G04 Generated by Ultiboard 14.1 *
%FSLAX24Y24*%
%MOIN*%

%ADD10C,0.0001*%
%ADD11C,0.0100*%
%ADD12C,0.0050*%
%ADD13C,0.0665*%
%ADD14C,0.0633*%
%ADD15C,0.0394*%
%ADD16C,0.0550*%


G04 ColorRGB 0000FF for the following layer *
%LNCopper Bottom*%
%LPD*%
G54D10*
G54D11*
X57600Y30200D02*
X56700Y30200D01*
X56600Y30200D01*
X56600Y30100D01*
X56400Y30000D01*
X53700Y30000D01*
X53600Y30100D01*
X53600Y31600D01*
X53400Y31800D01*
X-33200Y31800D01*
X-33400Y31600D01*
X-33400Y14600D01*
X-33200Y14400D01*
X-32800Y14400D01*
X-32800Y14000D01*
X27600Y18600D02*
X27600Y19200D01*
X27400Y19400D01*
X17200Y19400D01*
X17000Y19200D01*
X17000Y18600D01*
X16600Y18600D01*
X-10400Y19000D02*
X-10400Y25000D01*
X-10600Y25200D01*
X-11800Y25200D01*
X-12000Y25000D01*
X-10400Y14400D02*
X-10400Y14000D01*
X-12000Y25000D02*
X-12000Y14400D01*
X-10400Y14400D01*
X28000Y1000D02*
X28000Y1300D01*
X27900Y1400D01*
X24200Y1400D01*
X24000Y1200D01*
X24000Y0D01*
X23600Y0D01*
X8000Y21200D02*
X7600Y21200D01*
X7400Y21000D01*
X7400Y16400D01*
X9000Y7800D02*
X9000Y-3800D01*
X9200Y-4000D01*
X10100Y-4000D01*
X10200Y-4100D01*
X10200Y-6600D01*
X10400Y-6800D01*
X15000Y-6800D01*
X17400Y7400D02*
X17400Y6600D01*
X17200Y6400D01*
X12800Y6400D01*
X12600Y6200D01*
X12600Y3200D01*
X12800Y3000D01*
X15800Y3000D01*
X16000Y2800D01*
X16000Y2200D01*
X16400Y2200D01*
X41800Y24200D02*
X11600Y24200D01*
X11400Y24000D01*
X11400Y15200D01*
X11600Y15000D01*
X16600Y15000D01*
X16800Y15200D01*
X16800Y15800D01*
X17200Y15800D01*
X51200Y8400D02*
X57900Y8400D01*
X58000Y8300D01*
X58000Y-6400D01*
X57800Y-6600D01*
X56000Y-6600D01*
X27000Y-8400D02*
X27000Y-7800D01*
X27200Y-7600D01*
X28400Y-7600D01*
X28600Y-7400D01*
X28600Y-5400D01*
X29000Y-5400D01*
X21400Y-6400D02*
X10800Y-6400D01*
X10600Y-6200D01*
X10600Y-3300D01*
X10500Y-3200D01*
X10200Y-3200D01*
X10000Y-3000D01*
X10000Y5700D01*
X10100Y5800D01*
X10400Y5800D01*
X10600Y6000D01*
X10600Y10400D01*
X10400Y10600D01*
X10000Y10600D01*
X10000Y11600D02*
X9800Y11400D01*
X5000Y11400D01*
X4800Y11600D01*
X4800Y12200D01*
X4400Y12200D01*
X48000Y0D02*
X48000Y1000D01*
X47800Y1200D01*
X41600Y1200D01*
X41400Y1400D01*
X41400Y4000D01*
X41600Y4200D01*
X49600Y1000D02*
X57100Y1000D01*
X57200Y1100D01*
X57200Y5200D01*
X57000Y5400D01*
X55000Y5400D01*
X54800Y18200D02*
X54500Y18200D01*
X54400Y18100D01*
X54400Y17600D01*
X54200Y17400D01*
X46800Y17400D01*
X46600Y17200D01*
X46600Y16900D01*
X46500Y16800D01*
X34000Y16800D01*
X33800Y16600D01*
X33800Y16400D01*
X33600Y16200D01*
X30200Y16200D01*
X30200Y15800D01*
X-9400Y-3400D02*
X-9400Y-4000D01*
X-9600Y-4200D01*
X-13400Y-4200D01*
X-13600Y-4000D01*
X47000Y-8400D02*
X47000Y-9200D01*
X47200Y-9400D01*
X59000Y-9400D01*
X59200Y-9200D01*
X59200Y-1400D01*
X57400Y25200D02*
X10800Y25200D01*
X10600Y25000D01*
X10600Y19800D01*
X25600Y21600D02*
X25600Y21000D01*
X25400Y20800D01*
X17200Y20800D01*
X17000Y21000D01*
X17000Y21600D01*
X16600Y21600D01*
X21600Y17800D02*
X21400Y18000D01*
X21400Y19800D02*
X14200Y19800D01*
X14000Y19600D01*
X14000Y18600D01*
X13600Y18600D01*
X25600Y18600D02*
X25600Y17800D01*
X21600Y17800D01*
X11800Y21000D02*
X11800Y16400D01*
X12000Y16200D01*
X13200Y16200D01*
X13200Y15800D01*
X25600Y-3000D02*
X25600Y-3600D01*
X25400Y-3800D01*
X24600Y-3800D01*
X24400Y-4000D01*
X24400Y-5400D01*
X24000Y-5400D01*
X1000Y-200D02*
X0Y-200D01*
X-200Y0D01*
X-200Y4800D01*
X0Y5000D01*
X600Y5000D01*
X600Y5400D01*
X35600Y3200D02*
X28500Y3200D01*
X28400Y3300D01*
X28400Y3600D01*
X28200Y3800D01*
X22400Y3800D01*
X22200Y3600D01*
X22200Y500D01*
X22100Y400D01*
X21600Y400D01*
X21400Y200D01*
X21400Y-1400D01*
X21200Y-1600D01*
X14200Y-1600D01*
X13200Y12800D02*
X13200Y11400D01*
X13000Y11200D01*
X1000Y11200D01*
X800Y11400D01*
X800Y12200D01*
X400Y12200D01*
X46400Y7800D02*
X46400Y7200D01*
X46200Y7000D01*
X43600Y7000D01*
X43400Y7200D01*
X43400Y13400D01*
X43200Y13600D01*
X33000Y13600D01*
X33000Y17400D02*
X32800Y17200D01*
X18800Y17200D01*
X18600Y17000D01*
X18600Y15800D01*
X18200Y15800D01*
X50400Y7800D02*
X52000Y7800D01*
X51600Y19600D02*
X22100Y19600D01*
X22000Y19700D01*
X22000Y20000D01*
X21800Y20200D01*
X13000Y20200D01*
X12800Y20000D01*
X12800Y18000D01*
X13000Y17800D01*
X15000Y17800D01*
X15200Y17600D01*
X15200Y15800D01*
X43000Y-1600D02*
X43000Y-1300D01*
X43100Y-1200D01*
X53000Y-1200D01*
X53200Y-1400D01*
X-15000Y26000D02*
X-15000Y19000D01*
X38200Y-3000D02*
X38200Y-4000D01*
X38400Y-4200D01*
X55400Y-4200D01*
X55600Y-4000D01*
X55600Y-1400D01*
X38400Y29400D02*
X-12200Y29400D01*
X-12400Y29200D01*
X-12400Y18400D01*
X-12600Y18200D01*
X-15400Y18200D01*
X-15600Y18000D01*
X-15600Y16000D01*
X-16000Y16000D01*
X33000Y-5400D02*
X33000Y-10400D01*
X47200Y-10400D02*
X47200Y-9800D01*
X47400Y-9600D01*
X59300Y-9600D01*
X59400Y-9500D01*
X59400Y-4200D01*
X59600Y-4000D01*
X64600Y-4000D01*
X64800Y-3800D01*
X64800Y19700D01*
X64700Y19800D01*
X64600Y19800D01*
X64400Y20000D01*
X64400Y26600D01*
X64200Y26800D01*
X8800Y26800D01*
X8600Y26600D01*
X8600Y14300D01*
X8500Y14200D01*
X3000Y14200D01*
X2800Y14000D01*
X2800Y12200D01*
X2400Y12200D01*
X40600Y8600D02*
X40600Y9000D01*
X40400Y9200D01*
X38600Y9200D01*
X32000Y8200D02*
X29800Y8200D01*
X29600Y8000D01*
X29600Y7400D01*
X29200Y7400D01*
X52400Y14400D02*
X48800Y14400D01*
X48600Y14600D01*
X48600Y14800D01*
X48400Y15000D01*
X27800Y15000D01*
X27600Y15200D01*
X27600Y15800D01*
X27200Y15800D01*
X-8200Y4600D02*
X-8200Y3400D01*
X-8400Y3200D01*
X-19600Y3200D01*
X-30200Y7400D02*
X-30200Y18400D01*
X-30400Y18600D01*
X-32800Y18600D01*
X-32800Y19000D01*
X-11800Y-5200D02*
X-13300Y-5200D01*
X-13400Y-5300D01*
X-13400Y-6000D01*
X-13600Y-6200D01*
X-13600Y-7300D01*
X-13500Y-7400D01*
X-7600Y-7400D01*
X-4400Y-3400D02*
X-4400Y-2600D01*
X-11800Y-2600D01*
X-3000Y2200D02*
X-3000Y1500D01*
X-3000Y1400D01*
X-2900Y1400D01*
X-2800Y1200D01*
X-2800Y-2200D01*
X-3000Y-2400D01*
X-4200Y-2400D01*
X-4400Y-2600D01*
X51200Y2200D02*
X56400Y2200D01*
X56600Y2400D01*
X56600Y4500D01*
X56500Y4600D01*
X54000Y4600D01*
X15200Y12800D02*
X15200Y12200D01*
X15000Y12000D01*
X14000Y12000D01*
X13800Y11800D01*
X13800Y10400D01*
X13400Y10400D01*
X34800Y21400D02*
X55200Y21400D01*
X65800Y32400D02*
X66000Y32200D01*
X66000Y-11600D01*
X63400Y-11600D02*
X63400Y-8800D01*
X58600Y-8800D02*
X53400Y-8800D01*
X53200Y-8600D01*
X53200Y-7800D01*
X53000Y-7600D01*
X50000Y-7600D01*
X55200Y30400D02*
X55200Y32400D01*
X65800Y32400D01*
X46400Y-9400D02*
X43400Y-9400D01*
X43200Y-9200D01*
X43200Y-5600D01*
X43000Y-5400D01*
X42600Y-5400D01*
X41400Y-3400D02*
X41400Y-600D01*
X41200Y-400D01*
X40200Y-400D01*
X40200Y0D01*
X26800Y2200D02*
X26800Y2800D01*
X26600Y3000D01*
X22800Y3000D01*
X22600Y2800D01*
X22600Y-5300D01*
X22500Y-5400D01*
X22100Y-5400D01*
X22000Y-5500D01*
X22000Y-8000D01*
X21800Y-8200D01*
X21000Y-8200D01*
X49800Y30800D02*
X49800Y31100D01*
X49700Y31200D01*
X-25100Y31200D01*
X-25200Y31100D01*
X-25200Y29300D01*
X-25300Y29200D01*
X-25400Y29200D01*
X-25600Y29000D01*
X-25600Y-7100D01*
X-25500Y-7200D01*
X-25200Y-7200D01*
X-13200Y-8200D02*
X-13200Y-9000D01*
X-13000Y-9200D01*
X8000Y-9200D01*
X8200Y-9000D01*
X8200Y-7600D01*
X8400Y-7400D01*
X8400Y-6000D01*
X8200Y-5800D01*
X7400Y-5800D01*
X7400Y-5400D01*
X27000Y-10600D02*
X-22600Y-10600D01*
X-22800Y-10400D01*
X-22800Y5200D01*
X-22600Y5400D01*
X-21900Y5400D01*
X-21800Y5300D01*
X-21800Y3000D01*
X-21600Y2800D01*
X-5200Y2800D01*
X-5000Y3000D01*
X-600Y3000D02*
X-600Y8600D01*
X-400Y8800D01*
X4800Y8800D01*
X5000Y9000D01*
X5000Y10200D01*
X5400Y10200D01*
X46200Y5200D02*
X46200Y5800D01*
X46000Y6000D01*
X42600Y6000D01*
X32600Y6400D02*
X32600Y8000D01*
X32400Y8200D01*
X32400Y9000D01*
X32200Y9200D01*
X30800Y9200D01*
X-17200Y9000D02*
X-17200Y8400D01*
X-17400Y8200D01*
X-21200Y8200D01*
X-21400Y8400D01*
X-21400Y19600D01*
X-21200Y19800D01*
X-17600Y19800D01*
X-17400Y19600D01*
X-17400Y19000D01*
X-17000Y19000D01*
X-17200Y-5600D02*
X-17200Y-5200D01*
X-17400Y-5000D01*
X-17600Y-5000D01*
X-17800Y-4800D01*
X-17800Y-3200D01*
X-18200Y-3200D01*
X51000Y-8400D02*
X51000Y-9000D01*
X50800Y-9200D01*
X48600Y-9200D01*
X48400Y-9000D01*
X48400Y-8400D01*
X48000Y-8400D01*
X30600Y-3000D02*
X31000Y-3000D01*
X31000Y-7800D01*
X30800Y-8000D01*
X30000Y-8000D01*
X30000Y-8400D01*
X31800Y3800D02*
X31600Y3600D01*
X28900Y3600D01*
X28800Y3700D01*
X28800Y4100D01*
X28700Y4200D01*
X28400Y4200D01*
X28200Y4400D01*
X28200Y5200D01*
X27800Y5200D01*
X44200Y5200D02*
X41400Y5200D01*
X41200Y5000D01*
X41200Y1000D01*
X23800Y2200D02*
X23000Y2200D01*
X22800Y2000D01*
X22800Y-5500D01*
X22700Y-5600D01*
X22400Y-5600D01*
X22200Y-5800D01*
X22200Y-9000D01*
X22000Y-9200D01*
X15600Y-9200D01*
X15400Y-9000D01*
X15400Y-8400D01*
X15000Y-8400D01*
X14400Y5200D02*
X14200Y5000D01*
X14200Y3400D01*
X-3200Y-1200D02*
X-4800Y-1200D01*
X-5000Y-1000D01*
X-5000Y-400D01*
X-5400Y-400D01*
X62400Y18400D02*
X64200Y18400D01*
X64400Y18200D01*
X64400Y-2600D01*
X64200Y-2800D01*
X63000Y-2800D01*
X38200Y2200D02*
X38200Y3400D01*
X38000Y3600D01*
X35300Y3600D01*
X35200Y3600D01*
X35200Y3500D01*
X35000Y3400D01*
X28700Y3400D01*
X28600Y3500D01*
X28600Y3900D01*
X28500Y4000D01*
X22200Y4000D01*
X22000Y4200D01*
X49000Y-1800D02*
X45600Y-1800D01*
X45400Y-2000D01*
X45400Y-3000D01*
X45000Y-3000D01*
X-8400Y17800D02*
X-8400Y16000D01*
X10200Y20800D02*
X10200Y17100D01*
X10100Y17000D01*
X9800Y17000D01*
X9600Y16800D01*
X9600Y15600D01*
X9800Y15400D01*
X7600Y5600D02*
X7600Y4800D01*
X7400Y4600D01*
X2200Y4600D01*
X2000Y4400D01*
X2000Y2400D01*
X1600Y2400D01*
X55200Y32400D02*
X55000Y32600D01*
X-34200Y11800D02*
X-34000Y11600D01*
X-32300Y11600D01*
X-32200Y11700D01*
X-32200Y14400D01*
X-32400Y14600D01*
X-32800Y14600D01*
X-32800Y15000D01*
X55000Y32600D02*
X-34000Y32600D01*
X-34200Y32400D01*
X-34200Y11800D01*
X37000Y14600D02*
X36800Y14800D01*
X30300Y14800D01*
X30200Y14700D01*
X30200Y14600D01*
X30000Y14400D01*
X21400Y14400D01*
X21200Y14200D01*
X7400Y-7000D02*
X-5800Y-7000D01*
X-6000Y-7200D01*
X-6000Y-8400D01*
X-6400Y-8400D01*
X62400Y10000D02*
X62400Y9800D01*
X62200Y9600D01*
X62200Y9400D01*
X62000Y9200D01*
X58900Y9200D01*
X58700Y9400D01*
X49000Y9400D01*
X48800Y9600D01*
X48800Y10800D01*
X48400Y10800D01*
X47000Y-3000D02*
X47000Y-2400D01*
X47200Y-2200D01*
X55000Y-2200D01*
X55200Y-2400D01*
X55200Y-3200D01*
X61800Y-4600D02*
X64400Y-4600D01*
X64600Y-4800D01*
X64600Y-11800D01*
X66000Y-12400D02*
X-200Y-12400D01*
X-400Y-12200D01*
X-400Y-11800D01*
X-400Y-7600D02*
X5800Y-7600D01*
X6000Y-7800D01*
X6000Y-8400D01*
X6400Y-8400D01*
X63400Y15200D02*
X63400Y15400D01*
X63200Y15600D01*
X63200Y16400D01*
X63000Y16600D01*
X48000Y16600D01*
X47800Y16400D01*
X47800Y15800D01*
X47400Y15800D01*
X58000Y-8200D02*
X54200Y-8200D01*
X34200Y-7400D02*
X34200Y-5400D01*
X37200Y5200D02*
X37200Y6400D01*
X37400Y6600D01*
X52200Y6600D01*
X52600Y7000D01*
X56800Y7000D01*
X57000Y7200D01*
X57000Y29800D02*
X49500Y29800D01*
X49400Y29900D01*
X49400Y30800D01*
X49200Y31000D01*
X-24900Y31000D01*
X-25000Y30900D01*
X-25000Y1000D01*
X-25200Y800D01*
X27200Y7400D02*
X27200Y7800D01*
X27000Y8000D01*
X26800Y8000D01*
X26600Y8200D01*
X26600Y10400D01*
X26200Y10400D01*
X-4200Y1600D02*
X-4200Y2000D01*
X-4000Y2200D01*
X-3000Y2200D01*
X-2800Y2400D01*
X-4400Y5600D02*
X-4400Y6000D01*
X-2800Y2400D02*
X-2800Y5600D01*
X-4400Y5600D01*
X45200Y5200D02*
X45200Y3800D01*
X45400Y3600D01*
X51300Y3600D01*
X51400Y3700D01*
X51400Y4300D01*
X51500Y4400D01*
X53800Y4400D01*
X54000Y4600D01*
X54000Y5600D01*
X54200Y5800D01*
X57400Y5800D01*
X57600Y6000D01*
X57600Y8000D01*
X58200Y19000D02*
X40200Y19000D01*
X40000Y18800D01*
X41000Y13200D02*
X41000Y12600D01*
X41200Y12400D01*
X42800Y12400D01*
X43000Y12200D01*
X43000Y8200D01*
X42800Y8000D01*
X40400Y8000D01*
X40400Y7600D01*
X30600Y18600D02*
X39800Y18600D01*
X40000Y18800D01*
X-20000Y19000D02*
X-21000Y19000D01*
X-21200Y18800D01*
X-21200Y14600D01*
X-21000Y14400D01*
X-20200Y14400D01*
X-20200Y14000D01*
X400Y-5400D02*
X-2700Y-5400D01*
X-2800Y-5300D01*
X-2800Y-4800D01*
X-3000Y-4600D01*
X-9800Y-4600D01*
X-10000Y-4800D01*
X-10000Y-5400D01*
X-10400Y-5400D01*
X11800Y5200D02*
X12000Y5000D01*
X12000Y4300D01*
X11900Y4200D01*
X11400Y4200D01*
X11200Y4000D01*
X11200Y0D01*
X11400Y-200D01*
X13000Y-200D01*
X13200Y0D01*
X-20800Y18400D02*
X-20800Y15400D01*
X-20600Y15200D01*
X-15800Y15200D01*
X-15600Y15000D01*
X-15600Y14000D01*
X-15200Y14000D01*
X36600Y-1000D02*
X32000Y-1000D01*
X31800Y-1200D01*
X36200Y0D02*
X36200Y-600D01*
X36000Y-800D01*
X31500Y-800D01*
X31400Y-900D01*
X31400Y-1200D01*
X31200Y-1400D01*
X25100Y-1400D01*
X25000Y-1300D01*
X25000Y0D01*
X24600Y0D01*
X16400Y5200D02*
X16400Y6000D01*
X16600Y6200D01*
X21200Y6200D01*
X21400Y6400D01*
X21400Y8500D01*
X21300Y8600D01*
X21100Y8600D01*
X20900Y8800D01*
X16000Y8800D01*
X15800Y9000D01*
X15800Y10400D01*
X15400Y10400D01*
X28200Y12800D02*
X28200Y13400D01*
X28000Y13600D01*
X22200Y13600D01*
X22000Y13400D01*
X21400Y9000D02*
X17000Y9000D01*
X16800Y9200D01*
X16800Y10400D01*
X16400Y10400D01*
X25200Y15800D02*
X25200Y15200D01*
X25000Y15000D01*
X21600Y15000D01*
X5600Y5400D02*
X5600Y6000D01*
X5800Y6200D01*
X7800Y6200D01*
X8000Y6000D01*
X8000Y4600D01*
X7800Y4400D01*
X6200Y4400D01*
X6000Y4200D01*
X6000Y2400D01*
X5600Y2400D01*
X62400Y15200D02*
X62400Y15000D01*
X62200Y14800D01*
X62200Y14600D01*
X62000Y14400D01*
X58700Y14400D01*
X58600Y14500D01*
X58600Y14600D01*
X58400Y14800D01*
X49000Y14800D01*
X48800Y15000D01*
X48800Y15800D01*
X48400Y15800D01*
X62400Y12200D02*
X62400Y12400D01*
X62800Y12800D01*
X63800Y12800D01*
X64000Y13000D01*
X64000Y16600D01*
X63800Y16800D01*
X47000Y16800D01*
X46800Y16600D01*
X46800Y15800D01*
X46400Y15800D01*
X40200Y-8400D02*
X40200Y-11000D01*
X40400Y-11200D01*
X58900Y-11200D01*
X59000Y-11100D01*
X59000Y-10000D01*
X65200Y-10000D02*
X65400Y-9800D01*
X65400Y27700D01*
X65300Y27800D01*
X-1600Y27800D01*
X-1800Y27600D01*
X-1800Y11400D01*
X-1600Y11200D01*
X-4400Y11000D02*
X-3800Y11000D01*
X-3600Y10800D01*
X-3600Y7600D01*
X-3800Y7400D01*
X-13600Y7400D01*
X-13800Y7200D01*
X-13800Y6000D01*
X-14200Y6000D01*
X59600Y-3600D02*
X59600Y-2600D01*
X59800Y-2400D01*
X64000Y-2400D01*
X64200Y-2200D01*
X64200Y17800D01*
X64000Y18000D01*
X58000Y18000D01*
X57800Y18200D01*
X57800Y18600D01*
X57600Y18800D01*
X54100Y18800D01*
X54000Y18700D01*
X54000Y18600D01*
X53800Y18400D01*
X32500Y18400D01*
X32400Y18300D01*
X32400Y17800D01*
X32200Y17600D01*
X16200Y17600D01*
X16000Y17800D01*
X16000Y18600D01*
X15600Y18600D01*
X37400Y7600D02*
X37400Y9400D01*
X31800Y18000D02*
X31600Y17800D01*
X25600Y17800D01*
X20600Y21600D02*
X20400Y21800D01*
X20400Y23200D01*
X-1000Y23400D02*
X-1000Y-800D01*
X-800Y-1000D01*
X1400Y-1000D01*
X1600Y-800D01*
X1600Y-200D01*
X2000Y-200D01*
X37200Y-8400D02*
X37000Y-8200D01*
X37000Y-6600D01*
X11000Y-4800D02*
X10800Y-4600D01*
X10800Y10800D01*
X10600Y11000D01*
X8400Y11000D01*
X8200Y10800D01*
X8200Y9900D01*
X8000Y9700D01*
X8000Y9600D01*
X7800Y9400D01*
X7000Y9400D01*
X6800Y9600D01*
X6800Y10200D01*
X6400Y10200D01*
X9200Y-7000D02*
X9200Y-8400D01*
X45000Y-5400D02*
X45000Y-4800D01*
X44800Y-4600D01*
X37600Y-4600D01*
X37400Y-4400D01*
X37400Y-3200D01*
X37200Y-3000D01*
X33200Y-1600D02*
X33000Y-1800D01*
X27600Y-1800D01*
X27400Y-2000D01*
X39400Y10600D02*
X39400Y10000D01*
X39600Y9800D01*
X42100Y9800D01*
X42200Y9900D01*
X42200Y10200D01*
X41200Y23800D02*
X12800Y23800D01*
X12600Y23600D01*
X12600Y17700D01*
X12700Y17600D01*
X14600Y17600D01*
X14800Y17400D01*
X14800Y16800D01*
X22400Y8800D02*
X22400Y6800D01*
X22600Y6600D01*
X26200Y6600D01*
X26400Y6400D01*
X26400Y5200D01*
X26800Y5200D01*
X28800Y2200D02*
X28800Y1600D01*
X29000Y1400D01*
X31200Y1400D01*
X31400Y1200D01*
X31400Y-300D01*
X31400Y-400D01*
X31300Y-400D01*
X31200Y-600D01*
X31200Y-800D01*
X31000Y-1000D01*
X25400Y-1000D01*
X21800Y-1800D02*
X20400Y-1800D01*
X20200Y-2000D01*
X11600Y-2000D01*
X11400Y-2200D01*
X-2800Y-2800D02*
X-2800Y-4200D01*
X-3000Y-4400D01*
X-14600Y-4400D01*
X-14800Y-4600D01*
X-14800Y-5600D01*
X-15200Y-5600D01*
X28200Y10400D02*
X28200Y11000D01*
X28400Y11200D01*
X32200Y11200D01*
X32200Y13400D02*
X31200Y13400D01*
X31800Y21400D02*
X31800Y22000D01*
X32000Y22200D01*
X59000Y22200D01*
X64000Y-8600D02*
X64000Y-11800D01*
X11400Y-8400D02*
X13000Y-8400D01*
X17400Y2200D02*
X17400Y1600D01*
X17200Y1400D01*
X11800Y1400D01*
X11600Y1200D01*
X11200Y-1400D02*
X11000Y-1600D01*
X11000Y-2500D01*
X11100Y-2600D01*
X11700Y-2600D01*
X11800Y-2500D01*
X11800Y-2400D01*
X12000Y-2200D01*
X15600Y-2200D01*
X15800Y-2400D01*
X15800Y-3000D01*
X16200Y-3000D01*
X60400Y15200D02*
X60400Y15000D01*
X60000Y14600D01*
X59000Y14600D01*
X58800Y14800D01*
X58800Y14900D01*
X58700Y15000D01*
X50000Y15000D01*
X49800Y15200D01*
X49800Y15800D01*
X49400Y15800D01*
X55000Y-1800D02*
X52900Y-1800D01*
X52800Y-1700D01*
X52800Y-1600D01*
X52600Y-1400D01*
X45000Y-1400D01*
X44800Y-1600D01*
X44800Y-2000D01*
X42000Y-5000D02*
X42000Y-6800D01*
X41800Y-7000D01*
X38800Y-7000D01*
X37400Y10600D02*
X37400Y11800D01*
X37600Y12000D01*
X41400Y12000D01*
X40200Y30200D02*
X-24200Y30200D01*
X-24400Y30000D01*
X-24400Y-9400D01*
X-27800Y6200D02*
X-30600Y6200D01*
X-30800Y6400D01*
X-30800Y16400D01*
X-31000Y16600D01*
X-32800Y16600D01*
X-32800Y17000D01*
X-8400Y-400D02*
X-8400Y-1000D01*
X-8600Y-1200D01*
X-21400Y-1200D01*
X-21600Y-1400D01*
X-21600Y-3200D01*
X7400Y-8400D02*
X7000Y-8400D01*
X7000Y-7400D01*
X6800Y-7200D01*
X-1200Y-7200D01*
X-1400Y-7400D01*
X-1400Y-5800D02*
X-1600Y-5600D01*
X-3100Y-5600D01*
X-3200Y-5700D01*
X-3200Y-6000D01*
X-3400Y-6200D01*
X-11300Y-6200D01*
X-11400Y-6100D01*
X-11400Y-5800D01*
X-11400Y-400D02*
X-11400Y400D01*
X-11200Y600D01*
X-3800Y600D01*
X-3600Y800D01*
X-3600Y1200D01*
X8000Y2000D02*
X8000Y-2600D01*
X7800Y-2800D01*
X7000Y-2800D01*
X7000Y-3200D01*
X-2800Y5600D02*
X-2700Y5600D01*
X-2600Y5700D01*
X-2600Y6000D01*
X-200Y6000D02*
X-200Y6300D01*
X-100Y6400D01*
X6800Y6400D01*
X7000Y6600D01*
X7000Y7200D01*
X7400Y7200D01*
X30800Y5200D02*
X31400Y5200D01*
X31600Y5400D01*
X31600Y6200D01*
X10400Y5400D02*
X10400Y-2600D01*
X34400Y15800D02*
X34400Y15400D01*
X32600Y15400D01*
X-10200Y4600D02*
X-10200Y4200D01*
X-12400Y4200D01*
X13400Y10400D02*
X11800Y10400D01*
X11600Y10200D01*
X11600Y5400D01*
X11800Y5200D01*
X-3600Y21800D02*
X-3600Y13400D01*
X-3800Y13200D01*
X-5800Y13200D01*
X-6000Y13000D01*
X-6000Y11000D01*
X-6400Y11000D01*
X32000Y7400D02*
X31800Y7200D01*
X31800Y6800D01*
X31600Y6600D01*
X30400Y6600D01*
X30200Y6400D01*
X30200Y5200D01*
X29800Y5200D01*
X25200Y7400D02*
X25200Y9000D01*
X25000Y9200D01*
X23200Y9200D01*
X14200Y17200D02*
X12400Y17200D01*
X12200Y17400D01*
X12200Y21700D01*
X12100Y21800D01*
X11800Y21800D01*
X-26200Y21400D02*
X-26200Y-11200D01*
X-26000Y-11400D01*
X21200Y-11400D01*
X21400Y-11600D01*
X60400Y7000D02*
X60400Y7200D01*
X60000Y7600D01*
X58600Y7600D01*
X58400Y7800D01*
X58400Y8900D01*
X58300Y9000D01*
X46000Y9000D01*
X45800Y9200D01*
X45800Y10800D01*
X45400Y10800D01*
X33000Y12200D02*
X32800Y12000D01*
X26800Y12000D01*
X26600Y12200D01*
X26600Y12800D01*
X26200Y12800D01*
X-26600Y27800D02*
X-32800Y27800D01*
X-27000Y9800D02*
X-27000Y23200D01*
X-27200Y23400D01*
X-32800Y23400D01*
X-32800Y23800D01*
X30200Y7400D02*
X30200Y7800D01*
X32300Y7800D01*
X32400Y7700D01*
X32400Y7100D01*
X32300Y7000D01*
X32200Y7000D01*
X32000Y6800D01*
X32000Y5400D01*
X12200Y11600D02*
X12200Y12400D01*
X12000Y12600D01*
X7400Y12600D01*
X7400Y12200D01*
X-21000Y14400D02*
X-21000Y9600D01*
X-20800Y9400D01*
X-20200Y9400D01*
X-20200Y9000D01*
X14000Y-8400D02*
X14000Y-9000D01*
X13800Y-9200D01*
X10000Y-9200D01*
X-2400Y-5000D02*
X-2400Y1600D01*
X-2600Y1800D01*
X19400Y5200D02*
X19400Y5800D01*
X19600Y6000D01*
X21600Y6000D01*
X21800Y6200D01*
X18000Y9400D02*
X17800Y9600D01*
X17800Y10400D01*
X17400Y10400D01*
X21800Y6200D02*
X21800Y9400D01*
X18000Y9400D01*
X25200Y12800D02*
X25200Y11800D01*
X25000Y11600D01*
X20800Y11600D01*
X20600Y11800D01*
X47400Y7800D02*
X47400Y8400D01*
X47200Y8600D01*
X43800Y8600D01*
X43600Y8800D01*
X43600Y13700D01*
X43500Y13800D01*
X36800Y13800D01*
X36600Y14000D01*
X36600Y14400D01*
X36400Y14600D01*
X30500Y14600D01*
X30400Y14500D01*
X30400Y14200D01*
X30200Y14000D01*
X22000Y14000D01*
X51000Y17800D02*
X46600Y17800D01*
X46400Y17600D01*
X46400Y17200D01*
X46200Y17000D01*
X20800Y17000D01*
X20600Y16800D01*
X20600Y15800D01*
X20200Y15800D01*
X47000Y0D02*
X47000Y-800D01*
X47200Y-1000D01*
X55900Y-1000D01*
X56000Y-1100D01*
X56000Y-5900D01*
X55900Y-6000D01*
X55600Y-6000D01*
X25000Y-11600D02*
X25000Y-11900D01*
X24900Y-12000D01*
X1600Y-12000D01*
X1400Y-11800D01*
X41000Y-9800D02*
X41000Y-10800D01*
X41200Y-11000D01*
X58400Y-11000D01*
X58600Y-10800D01*
X-600Y27400D02*
X-600Y23000D01*
X-800Y22800D01*
X-800Y9600D01*
X-600Y9400D01*
X3800Y9400D01*
X4000Y9600D01*
X4000Y10200D01*
X4400Y10200D01*
X58600Y-7800D02*
X53600Y-7800D01*
X42600Y-7800D02*
X42600Y-7500D01*
X42500Y-7400D01*
X38500Y-7400D01*
X38400Y-7300D01*
X38400Y-5600D01*
X38200Y-5400D01*
X36200Y-3000D02*
X36200Y-3600D01*
X36000Y-3800D01*
X33600Y-3800D01*
X33400Y-4000D01*
X33400Y-10600D01*
X33600Y-10800D01*
X-5400Y28600D02*
X-5400Y19000D01*
X40800Y1400D02*
X41000Y1600D01*
X41000Y4200D01*
X40800Y4400D01*
X33600Y4400D01*
X33400Y4600D01*
X33400Y4800D01*
X33200Y5000D01*
X32900Y5000D01*
X32800Y5100D01*
X32800Y5700D01*
X32900Y5800D01*
X33000Y5800D01*
X33200Y6000D01*
X33200Y9800D01*
X33000Y10000D01*
X30200Y10000D01*
X30200Y10400D01*
X31600Y8800D02*
X30000Y8800D01*
X22400Y12000D02*
X21800Y12000D01*
X21600Y12200D01*
X21600Y13600D01*
X21400Y13800D01*
X11400Y13800D01*
X11200Y14000D01*
X8600Y5000D02*
X8600Y-3800D01*
X8400Y-4000D01*
X2600Y-4000D01*
X2400Y-3800D01*
X2400Y-3200D01*
X2000Y-3200D01*
X6000Y-3200D02*
X6000Y-2600D01*
X6200Y-2400D01*
X7600Y-2400D01*
X7800Y-2200D01*
X7800Y1000D01*
X7600Y1200D01*
X3200Y1200D01*
X3000Y1400D01*
X3000Y2400D01*
X2600Y2400D01*
X-17200Y14000D02*
X-17200Y13600D01*
X-17400Y13400D01*
X-17600Y13400D01*
X-17800Y13200D01*
X-17800Y11000D01*
X-18200Y11000D01*
X-8400Y7800D02*
X-8600Y7600D01*
X-22600Y7600D01*
X-22800Y7800D01*
X-22800Y16000D01*
X-9200Y1600D02*
X-9200Y2200D01*
X-9400Y2400D01*
X-21200Y2400D01*
X-29600Y7000D02*
X-29600Y19400D01*
X-29800Y19600D01*
X-32800Y19600D01*
X-32800Y20000D01*
X-27600Y-4800D02*
X-27600Y800D01*
X-27800Y1000D01*
X-32600Y1000D01*
X-32600Y1400D01*
X35400Y7600D02*
X35000Y7600D01*
X35000Y9600D01*
X24200Y15800D02*
X24200Y16400D01*
X24400Y16600D01*
X32600Y16600D01*
X33000Y19200D02*
X34400Y19200D01*
X34400Y22600D02*
X34400Y23200D01*
X34200Y23400D01*
X24200Y23400D01*
X24000Y23200D01*
X24000Y21600D01*
X23600Y21600D01*
X400Y15200D02*
X-600Y15200D01*
X-22000Y200D02*
X-22000Y-5000D01*
X-21800Y-5200D01*
X-20200Y-5200D01*
X-20200Y-5600D01*
X49000Y-5400D02*
X49000Y-4600D01*
X48800Y-4400D01*
X37900Y-4400D01*
X37800Y-4300D01*
X37800Y-4000D01*
X28000Y-5400D02*
X28000Y-7000D01*
X27800Y-7200D01*
X23400Y-7200D01*
X23200Y-7400D01*
X23200Y-9800D01*
X23000Y-10000D01*
X10700Y-10000D01*
X10600Y-9900D01*
X10600Y-9800D01*
X10400Y-9600D01*
X-22400Y-9600D01*
X-22600Y-9400D01*
X-22600Y4900D01*
X-22500Y5000D01*
X-22200Y5000D01*
X-21800Y8200D02*
X-21800Y20400D01*
X21000Y8200D02*
X20600Y8600D01*
X13800Y8600D01*
X11400Y12200D02*
X10400Y12200D01*
X10000Y8800D02*
X9800Y8600D01*
X9800Y-3500D01*
X9900Y-3600D01*
X10200Y-3600D01*
X11800Y-3600D02*
X11800Y-6000D01*
X12000Y-6200D01*
X15400Y-6200D01*
X15600Y-6000D01*
X15600Y-5400D01*
X16000Y-5400D01*
X35400Y12800D02*
X35400Y11800D01*
X35200Y11600D01*
X28200Y11600D01*
X28000Y11400D01*
X28000Y11300D01*
X27900Y11200D01*
X22000Y11200D01*
X21800Y11000D01*
X21800Y9400D01*
X44400Y12800D02*
X44400Y14400D01*
X44200Y14600D01*
X42200Y14600D01*
X42200Y23600D02*
X42200Y24500D01*
X42100Y24600D01*
X11400Y24600D01*
X11200Y24400D01*
X11200Y15900D01*
X11100Y15800D01*
X10800Y15800D01*
X10200Y9400D02*
X9600Y9400D01*
X9400Y9200D01*
X9400Y-3000D01*
X43000Y29600D02*
X43000Y30600D01*
X42800Y30800D01*
X-24700Y30800D01*
X-24800Y30700D01*
X-24800Y-7500D01*
X-24900Y-7600D01*
X-25000Y-7600D01*
X-25200Y-7800D01*
X-25200Y-10000D01*
X-2800Y-6000D02*
X-2600Y-6200D01*
X4800Y-6200D01*
X5000Y-6000D01*
X5000Y-5400D01*
X5400Y-5400D01*
X44200Y2200D02*
X44200Y3000D01*
X44400Y3200D01*
X51700Y3200D01*
X51800Y3300D01*
X51800Y3600D01*
X52000Y3800D01*
X56100Y3800D01*
X56200Y3900D01*
X56200Y4200D01*
X39000Y28200D02*
X-1800Y28200D01*
X-2000Y28000D01*
X-2000Y8200D01*
X-1800Y8000D01*
X-1400Y8000D01*
X51600Y26000D02*
X9600Y26000D01*
X9400Y25800D01*
X9400Y15100D01*
X9500Y15000D01*
X10100Y15000D01*
X10200Y15100D01*
X10200Y15800D01*
X10000Y16000D01*
X8600Y9200D02*
X8600Y8600D01*
X8400Y8400D01*
X6000Y8400D01*
X5800Y8200D01*
X5800Y7200D01*
X5400Y7200D01*
X60400Y20400D02*
X60400Y20200D01*
X60600Y20000D01*
X60600Y19800D01*
X60800Y19600D01*
X64400Y19600D01*
X64600Y19400D01*
X64600Y-3000D01*
X64400Y-3200D01*
X63600Y-3200D01*
X39200Y5200D02*
X39200Y6200D01*
X39400Y6400D01*
X53000Y6400D01*
X53200Y6600D01*
X1000Y25600D02*
X1000Y16800D01*
X-3200Y4800D02*
X-3200Y4000D01*
X-3400Y3800D01*
X-4600Y3800D01*
X-4800Y4000D01*
X-4800Y4600D01*
X-5200Y4600D01*
X29000Y-5400D02*
X29000Y-4800D01*
X28800Y-4600D01*
X26600Y-4600D01*
X26400Y-4800D01*
X26400Y-5400D01*
X26000Y-5400D01*
X48000Y-3000D02*
X48000Y-3600D01*
X47800Y-3800D01*
X42400Y-3800D01*
X42200Y-3600D01*
X42200Y-200D01*
X42400Y0D01*
X42400Y1800D02*
X41800Y1800D01*
X41600Y2000D01*
X41600Y3700D01*
X41700Y3800D01*
X43600Y3800D01*
X32800Y8800D02*
X32800Y9400D01*
X32600Y9600D01*
X27800Y9600D01*
X27600Y9800D01*
X27600Y10400D01*
X27200Y10400D01*
X-7400Y9000D02*
X-7400Y9600D01*
X-7600Y9800D01*
X-11500Y9800D01*
X-11600Y9900D01*
X-11600Y10200D01*
X63000Y10800D02*
X57600Y10800D01*
X27800Y2200D02*
X27800Y2800D01*
X28000Y3000D01*
X31400Y3000D01*
X31600Y2800D01*
X31600Y800D01*
X31800Y600D01*
X33400Y600D01*
X33800Y-1400D02*
X33600Y-1200D01*
X32900Y-1200D01*
X32800Y-1300D01*
X32800Y-1400D01*
X32600Y-1600D01*
X27100Y-1600D01*
X27000Y-1700D01*
X27000Y-3000D01*
X26600Y-3000D01*
X34200Y0D02*
X34000Y200D01*
X31800Y200D01*
X28000Y0D02*
X27600Y0D01*
X30600Y1000D02*
X28000Y1000D01*
X28000Y0D01*
X44000Y0D02*
X44000Y800D01*
X43800Y1000D01*
X34800Y1000D01*
X34600Y800D01*
X34600Y0D01*
X34200Y0D01*
X50000Y-8400D02*
X50000Y-7000D01*
X49800Y-6800D01*
X48200Y-6800D01*
X48000Y-6600D01*
X-12000Y14400D02*
X-12000Y9600D01*
X-11800Y9400D01*
X-10400Y9400D01*
X-10400Y9000D01*
X-12600Y17400D02*
X-12600Y10400D01*
X-12800Y10200D01*
X-15600Y10200D01*
X-15800Y10400D01*
X-15800Y11000D01*
X-16200Y11000D01*
X29600Y21600D02*
X29600Y21000D01*
X29800Y20800D01*
X30900Y20800D01*
X31000Y20800D01*
X31000Y20900D01*
X31200Y21000D01*
X57600Y21000D01*
X57800Y20800D01*
X57800Y20400D01*
X58400Y800D02*
X58400Y-6800D01*
X58200Y-7000D01*
X55200Y-7000D01*
X19200Y0D02*
X19200Y600D01*
X19400Y800D01*
X21000Y800D01*
X21200Y1000D01*
X21200Y2800D01*
X21000Y3000D01*
X18000Y3000D01*
X17800Y3200D01*
X17800Y5200D01*
X17400Y5200D01*
X21600Y-3800D02*
X20800Y-3800D01*
X18400Y2200D02*
X18400Y1400D01*
X18200Y1200D01*
X12600Y1200D01*
X12400Y1000D01*
X12400Y400D01*
X12200Y200D01*
X11800Y200D01*
X50600Y29200D02*
X42700Y29200D01*
X42600Y29300D01*
X42600Y30400D01*
X42400Y30600D01*
X-24400Y30600D01*
X-24600Y30400D01*
X-24600Y-8600D01*
X-24800Y-8800D01*
X35200Y5200D02*
X35200Y6600D01*
X35400Y6800D01*
X43000Y6800D01*
X43200Y7000D01*
X43200Y12600D01*
X43000Y12800D01*
X41800Y12800D01*
X40800Y29800D02*
X-23000Y29800D01*
X-23200Y29600D01*
X-23200Y7600D01*
X-23000Y7400D01*
X-21600Y7400D01*
X-21400Y7200D01*
X-21400Y4000D01*
X-21200Y3800D01*
X-15800Y3800D01*
X-15600Y4000D01*
X-15600Y4600D01*
X-15200Y4600D01*
X7000Y-200D02*
X7000Y600D01*
X6800Y800D01*
X4000Y800D01*
X-17200Y-5600D02*
X-17200Y-6000D01*
X-17400Y-6200D01*
X-17600Y-6200D01*
X-17800Y-6400D01*
X-17800Y-8600D01*
X-18200Y-8600D01*
X50000Y-5400D02*
X50200Y-5600D01*
X50200Y-7200D01*
X50400Y-7400D01*
X58600Y-7400D01*
X58800Y-7200D01*
X58800Y1600D01*
X58600Y1800D01*
X58200Y23200D02*
X41000Y23200D01*
X40600Y23600D01*
X18200Y23600D01*
X18000Y23400D01*
X18000Y21600D01*
X17600Y21600D01*
X19400Y2200D02*
X19400Y1200D01*
X19200Y1000D01*
X15800Y1000D01*
X15600Y800D01*
X15600Y0D01*
X15200Y0D01*
X7400Y7200D02*
X8000Y7200D01*
X8200Y7000D01*
X8200Y3000D01*
X8000Y2800D01*
X6600Y2800D01*
X6600Y2400D01*
X55400Y20600D02*
X16200Y20600D01*
X16000Y20800D01*
X16000Y21600D01*
X15600Y21600D01*
X45400Y-6600D02*
X45200Y-6400D01*
X45200Y-6300D01*
X45100Y-6200D01*
X44600Y-6200D01*
X44400Y-6000D01*
X44400Y-5400D01*
X44000Y-5400D01*
X14600Y21600D02*
X14200Y21600D01*
X14200Y22800D01*
X-11600Y22400D02*
X-11600Y15400D01*
X-11400Y15200D01*
X-6000Y15200D01*
X-5800Y15000D01*
X-5800Y14000D01*
X-5400Y14000D01*
X27000Y20000D02*
X34000Y20000D01*
X7600Y24200D02*
X7600Y27000D01*
X11000Y-9600D02*
X22200Y-9600D01*
X22400Y-9400D01*
X22400Y-7200D01*
X22600Y-7000D01*
X24400Y-7000D01*
X24600Y-6800D01*
X24600Y-5400D01*
X25000Y-5400D01*
X37200Y2200D02*
X37200Y1600D01*
X37000Y1400D01*
X32300Y1400D01*
X32200Y1300D01*
X32200Y1000D01*
X16200Y0D02*
X16200Y-800D01*
X16000Y-1000D01*
X11200Y-1000D01*
X11000Y-800D01*
X11000Y4400D01*
X11200Y4600D01*
X11600Y4600D01*
X19200Y12800D02*
X19200Y13400D01*
X19000Y13600D01*
X4000Y13600D01*
X3800Y13400D01*
X3800Y12200D01*
X3400Y12200D01*
X62400Y7000D02*
X62400Y7200D01*
X62800Y7600D01*
X63800Y7600D01*
X64000Y7800D01*
X64000Y11400D01*
X63800Y11600D01*
X47000Y11600D01*
X46800Y11400D01*
X46800Y10800D01*
X46400Y10800D01*
X60400Y12200D02*
X60400Y12400D01*
X60200Y12600D01*
X60200Y13600D01*
X60000Y13800D01*
X45600Y13800D01*
X45400Y14000D01*
X45400Y14600D01*
X59400Y20400D02*
X59400Y20200D01*
X59200Y20000D01*
X55800Y20000D01*
X41600Y-5800D02*
X40200Y-5800D01*
X40200Y-5400D01*
X37200Y0D02*
X37200Y-1800D01*
X37000Y-2000D01*
X31800Y-2000D01*
X31600Y-2200D01*
X31600Y-10900D01*
X31500Y-11000D01*
X31200Y-11000D01*
X26400Y-11000D02*
X-22800Y-11000D01*
X-23000Y-10800D01*
X-23000Y5500D01*
X-22900Y5600D01*
X-21700Y5600D01*
X-21600Y5500D01*
X-21600Y3700D01*
X-21500Y3600D01*
X-13600Y3600D01*
X-13400Y3800D01*
X-13400Y6600D01*
X-13200Y6800D01*
X-7000Y6800D01*
X-6800Y6600D01*
X-6800Y6000D01*
X-6400Y6000D01*
X45000Y0D02*
X45000Y-600D01*
X44800Y-800D01*
X42800Y-800D01*
X42600Y-1000D01*
X42600Y-3000D01*
X27000Y14800D02*
X26800Y14600D01*
X11900Y14600D01*
X11800Y14500D01*
X11800Y14200D01*
X13000Y8800D02*
X13000Y7400D01*
X13400Y7400D01*
X60400Y10000D02*
X60400Y9800D01*
X60000Y9400D01*
X59100Y9400D01*
X58900Y9600D01*
X50000Y9600D01*
X49800Y9800D01*
X49800Y10800D01*
X49400Y10800D01*
X47200Y5200D02*
X47200Y5800D01*
X47400Y6000D01*
X53600Y6000D01*
X53400Y24800D02*
X11100Y24800D01*
X11000Y24700D01*
X11000Y16500D01*
X10900Y16400D01*
X10600Y16400D01*
X8600Y10400D02*
X8600Y9800D01*
X8400Y9600D01*
X8300Y9600D01*
X8200Y9500D01*
X8200Y8800D01*
X8000Y8600D01*
X2000Y8600D01*
X1800Y8400D01*
X1800Y7200D01*
X1400Y7200D01*
X-26800Y800D02*
X-26800Y2800D01*
X-27000Y3000D01*
X-32600Y3000D01*
X-32600Y3400D01*
X-27400Y14400D02*
X-27400Y14700D01*
X-27500Y14800D01*
X-29200Y14800D01*
X34400Y10600D02*
X33800Y10600D01*
X33600Y10400D01*
X33600Y5800D01*
X33800Y5600D01*
X34200Y5600D01*
X34200Y5200D01*
X27600Y3400D02*
X22600Y3400D01*
X22400Y3200D01*
X22400Y-4800D01*
X22200Y-5000D01*
X21000Y-5400D02*
X21000Y-6000D01*
X20800Y-6200D01*
X17600Y-6200D01*
X17400Y-6000D01*
X17400Y-5400D01*
X17000Y-5400D01*
X36400Y10600D02*
X36400Y11200D01*
X36200Y11400D01*
X33600Y11400D01*
X33400Y11200D01*
X33400Y5600D01*
X33200Y5400D01*
X32800Y4600D02*
X32600Y4400D01*
X31000Y4400D01*
X30800Y4200D01*
X-5000Y-1600D02*
X-15600Y-1600D01*
X-15800Y-1800D01*
X-15800Y-3200D01*
X-16200Y-3200D01*
X9800Y-4400D02*
X9600Y-4600D01*
X9600Y-9200D01*
X9400Y-9400D01*
X-15600Y-9400D01*
X-15800Y-9200D01*
X-15800Y-8600D01*
X-16200Y-8600D01*
X42800Y25600D02*
X10000Y25600D01*
X9800Y25400D01*
X9800Y17400D01*
X59400Y10000D02*
X59400Y10200D01*
X59200Y10400D01*
X50400Y10400D01*
X50400Y10800D01*
X59400Y7000D02*
X59200Y7000D01*
X59000Y7200D01*
X58400Y7200D01*
X58200Y7400D01*
X58200Y8600D01*
X58000Y8800D01*
X45000Y8800D01*
X44800Y9000D01*
X44800Y10800D01*
X44400Y10800D01*
X57600Y-10600D02*
X57400Y-10800D01*
X42400Y-10800D01*
X42200Y-10600D01*
X42200Y-7800D01*
X42000Y-7600D01*
X37800Y-7600D01*
X37600Y-7400D01*
X37600Y-5400D01*
X37200Y-5400D01*
X-17000Y19000D02*
X-17000Y18600D01*
X-17200Y18400D01*
X-17400Y18400D01*
X-17600Y18200D01*
X-17600Y16000D01*
X-18000Y16000D01*
X-8400Y19000D02*
X-8800Y19000D01*
X-8800Y22000D01*
X-26000Y29800D02*
X-32800Y29800D01*
X-8400Y9000D02*
X-8800Y9000D01*
X-8800Y8000D01*
X-9000Y7800D01*
X-22100Y7800D01*
X-22200Y7900D01*
X-22200Y16400D01*
X-28400Y6600D02*
X-30400Y6600D01*
X-30600Y6800D01*
X-30600Y17400D01*
X-30800Y17600D01*
X-32800Y17600D01*
X-32800Y18000D01*
X-14000Y16000D02*
X-13600Y16000D01*
X-13400Y15800D01*
X-13400Y11600D01*
X-13600Y11400D01*
X-14200Y11400D01*
X-14200Y11000D01*
X27600Y1000D02*
X26200Y1000D01*
X26000Y800D01*
X26000Y0D01*
X25600Y0D01*
X29600Y-3000D02*
X29600Y-3600D01*
X29800Y-3800D01*
X30600Y-3800D01*
X30800Y-4000D01*
X30800Y-7000D01*
X30600Y-7200D01*
X29000Y-7200D01*
X21000Y-7200D02*
X10800Y-7200D01*
X10600Y-7400D01*
X10600Y-8800D01*
X-23600Y-10400D02*
X-23600Y20800D01*
X-22200Y4200D02*
X-22200Y400D01*
X-22000Y200D01*
X-20200Y200D01*
X-20200Y-200D01*
X-3200Y400D02*
X-9800Y400D01*
X-10000Y200D01*
X-10000Y-400D01*
X-10400Y-400D01*
X15400Y7400D02*
X15400Y6800D01*
X15200Y6600D01*
X12500Y6600D01*
X12400Y6500D01*
X12400Y2800D01*
X12600Y2600D01*
X13400Y2600D01*
X13400Y2200D01*
X41000Y-2400D02*
X40800Y-2200D01*
X32200Y-2200D01*
X32000Y-2400D01*
X32000Y-9200D01*
X26400Y-10200D02*
X600Y-10200D01*
X400Y-10000D01*
X50000Y0D02*
X50000Y-600D01*
X50200Y-800D01*
X56200Y-800D01*
X56400Y-1000D01*
X56400Y-5600D01*
X-3200Y25200D02*
X-3200Y7400D01*
X-3000Y7200D01*
X-2400Y7200D01*
X-2200Y7000D01*
X-2200Y-4400D01*
X-2000Y-4600D01*
X3800Y-4600D01*
X4000Y-4800D01*
X4000Y-5400D01*
X4400Y-5400D01*
X27600Y-9600D02*
X27600Y-12000D01*
X27800Y-12200D01*
X65400Y-12200D01*
X65600Y-12000D01*
X65600Y31800D01*
X65400Y32000D01*
X7000Y26400D02*
X7000Y16100D01*
X7100Y16000D01*
X8000Y16000D01*
X42000Y3400D02*
X51500Y3400D01*
X51600Y3500D01*
X51600Y4000D01*
X51800Y4200D01*
X54400Y4200D01*
X54000Y28200D02*
X50400Y28200D01*
X50200Y28400D01*
X50200Y28800D01*
X50000Y29000D01*
X-12000Y29000D01*
X-12200Y28800D01*
X-12200Y10200D01*
X-12400Y10000D01*
X-14600Y10000D01*
X-14800Y9800D01*
X-14800Y9000D01*
X-15200Y9000D01*
X8000Y-6600D02*
X-12600Y-6600D01*
X-12800Y-6400D01*
X-12800Y-5800D01*
X35200Y0D02*
X35200Y600D01*
X35400Y800D01*
X41600Y800D01*
X41800Y600D01*
X41800Y-3800D01*
X42000Y-4000D01*
X52000Y-4000D01*
X52200Y-3800D01*
X54000Y30400D02*
X54000Y31800D01*
X53800Y32000D01*
X-33500Y32000D01*
X-33600Y31900D01*
X-33600Y12200D01*
X-33400Y12000D01*
X-32600Y12000D01*
X-11200Y12200D02*
X-11200Y10400D01*
X-11000Y10200D01*
X-6000Y10200D01*
X-5800Y10000D01*
X-5800Y9000D01*
X-5400Y9000D01*
X22400Y20000D02*
X22400Y20300D01*
X22500Y20400D01*
X52700Y20400D01*
X52800Y20300D01*
X52800Y20000D01*
X51000Y4000D02*
X49800Y4000D01*
X49600Y4200D01*
X49600Y5200D01*
X49200Y5200D01*
X29000Y-8400D02*
X29000Y-11600D01*
X29200Y-11800D01*
X60800Y-11800D01*
X61000Y-11600D01*
X61000Y-4400D01*
X61200Y-4200D01*
X65000Y-4200D01*
X65200Y-4000D01*
X65200Y27400D01*
X65000Y27600D01*
X3000Y27600D01*
X2800Y27400D01*
X2800Y15200D01*
X2400Y15200D01*
X40400Y10600D02*
X40600Y10800D01*
X42600Y10800D01*
X42400Y28600D02*
X-2600Y28600D01*
X-2800Y28400D01*
X-2800Y7600D01*
X-2600Y7400D01*
X-2100Y7400D01*
X-2000Y7300D01*
X-2000Y-1300D01*
X-1900Y-1400D01*
X3400Y-1400D01*
X3600Y-1600D01*
X3600Y-3200D01*
X4000Y-3200D01*
X-26600Y8600D02*
X-26600Y24200D01*
X-26800Y24400D01*
X-32800Y24400D01*
X-32800Y24800D01*
X13400Y9400D02*
X13400Y8300D01*
X13500Y8200D01*
X17800Y8200D01*
X18000Y8000D01*
X18000Y7400D01*
X18400Y7400D01*
X21800Y800D02*
X21600Y1000D01*
X21600Y4500D01*
X21700Y4600D01*
X22400Y4600D01*
X22600Y4400D01*
X25200Y4400D01*
X25400Y4600D01*
X25400Y5200D01*
X25800Y5200D01*
X48000Y-5400D02*
X48000Y-6600D01*
X45400Y-6600D02*
X45600Y-6800D01*
X45600Y-8400D01*
X46000Y-8400D01*
X15200Y-3000D02*
X15200Y-3600D01*
X15000Y-3800D01*
X13600Y-3800D01*
X13400Y-4000D01*
X13400Y-5400D01*
X13000Y-5400D01*
X61400Y20400D02*
X61400Y20600D01*
X61200Y20800D01*
X61200Y21000D01*
X61000Y21200D01*
X55400Y21200D01*
X55200Y21400D01*
X25200Y10400D02*
X25200Y9800D01*
X25000Y9600D01*
X22200Y9600D01*
X22000Y9400D01*
X22000Y5900D01*
X21900Y5800D01*
X21600Y5800D01*
X21400Y5600D01*
X21400Y700D01*
X21200Y500D01*
X21200Y-1100D01*
X21100Y-1200D01*
X20800Y-1200D01*
X20800Y-2200D02*
X21800Y-2200D01*
X22000Y-2400D01*
X22000Y-4200D01*
X21800Y-4400D01*
X21800Y-7400D01*
X21600Y-7600D01*
X16600Y-7600D01*
X16400Y-7800D01*
X16400Y-8400D01*
X16000Y-8400D01*
X19200Y-3000D02*
X19200Y-3800D01*
X19000Y-4000D01*
X14600Y-4000D01*
X14400Y-4200D01*
X14400Y-5400D01*
X14000Y-5400D01*
X39200Y2200D02*
X39200Y4000D01*
X39000Y4200D01*
X31500Y4200D01*
X31400Y4100D01*
X31400Y4000D01*
X31200Y3800D01*
X29400Y3800D01*
X29200Y4000D01*
X38600Y3800D02*
X32400Y3800D01*
X12000Y6000D02*
X12200Y5800D01*
X12200Y3200D01*
X12000Y3000D01*
X11600Y-600D02*
X11800Y-800D01*
X13600Y-800D01*
X13800Y-600D01*
X13800Y0D01*
X14200Y0D01*
X52000Y7200D02*
X52200Y7400D01*
X54800Y7400D01*
X54800Y17600D02*
X55100Y17600D01*
X55200Y17700D01*
X55200Y18500D01*
X55100Y18600D01*
X54400Y18600D01*
X54200Y18400D01*
X54200Y18300D01*
X54100Y18200D01*
X32800Y18200D01*
X32600Y18000D01*
X32600Y17500D01*
X32500Y17400D01*
X16800Y17400D01*
X16600Y17200D01*
X16600Y15800D01*
X16200Y15800D01*
X49800Y30200D02*
X50100Y30200D01*
X50200Y30300D01*
X50200Y31200D01*
X50000Y31400D01*
X-25300Y31400D01*
X-25400Y31300D01*
X-25400Y29600D01*
X-25600Y29400D01*
X-25700Y29400D01*
X-25800Y29300D01*
X-25800Y-7600D01*
X-13200Y-7000D02*
X-13200Y-5500D01*
X-13100Y-5400D01*
X-12500Y-5400D01*
X-12400Y-5500D01*
X-12400Y-6200D01*
X-12200Y-6400D01*
X5800Y-6400D01*
X6000Y-6200D01*
X6000Y-5400D01*
X6400Y-5400D01*
X59400Y12200D02*
X59400Y12400D01*
X59200Y12600D01*
X59200Y13400D01*
X59000Y13600D01*
X45000Y13600D01*
X44800Y13800D01*
X44800Y14600D01*
X47200Y2200D02*
X47200Y2800D01*
X47400Y3000D01*
X53900Y3000D01*
X54000Y3100D01*
X54000Y3400D01*
X53400Y26400D02*
X9200Y26400D01*
X9000Y26200D01*
X9000Y15800D01*
X9000Y9800D02*
X9000Y8400D01*
X8800Y8200D01*
X7000Y8200D01*
X6800Y8000D01*
X6800Y7200D01*
X6400Y7200D01*
X38200Y-8400D02*
X38200Y-11200D01*
X38400Y-11400D01*
X59400Y-11400D01*
X59600Y-11200D01*
X59600Y-10400D01*
X8200Y26800D02*
X8400Y26600D01*
X8400Y14600D01*
X8200Y14400D01*
X-200Y14400D01*
X-400Y14200D01*
X-400Y11200D01*
X-200Y11000D01*
X6800Y11000D01*
X7000Y10800D01*
X7000Y10200D01*
X7400Y10200D01*
X34200Y-3000D02*
X32800Y-3000D01*
X32600Y-3200D01*
X32600Y-11400D01*
X32800Y-11600D01*
X60400Y-11600D01*
X60600Y-11400D01*
X60600Y-7600D01*
X63800Y21800D02*
X39600Y21800D01*
X-11200Y24800D02*
X-11200Y18400D01*
X-11000Y18200D01*
X-7000Y18200D01*
X-6800Y18000D01*
X-6800Y16000D01*
X-6400Y16000D01*
X43000Y2600D02*
X43000Y1600D01*
X43200Y1400D01*
X56800Y1400D01*
X56800Y400D02*
X56800Y-6200D01*
X8600Y-8000D02*
X8600Y-4600D01*
X8400Y-4400D01*
X1600Y-4400D01*
X1400Y-4200D01*
X1400Y-3200D01*
X1000Y-3200D01*
X-27400Y13200D02*
X-27400Y5900D01*
X-27500Y5800D01*
X-32600Y5800D01*
X-32600Y5400D01*
X48000Y-8400D02*
X48000Y-7800D01*
X47800Y-7600D01*
X46600Y-7600D01*
X46400Y-7400D01*
X46400Y-5400D01*
X46000Y-5400D01*
X18000Y-5400D02*
X18000Y-4800D01*
X18200Y-4600D01*
X19600Y-4600D01*
X19800Y-4400D01*
X19800Y-3000D01*
X20200Y-3000D01*
X-14200Y1600D02*
X-14200Y1000D01*
X-14400Y800D01*
X-21100Y800D01*
X-21200Y900D01*
X-21200Y1200D01*
X-26600Y-200D02*
X-26600Y-11600D01*
X-26400Y-11800D01*
X-2000Y-11800D01*
X-2000Y-7800D02*
X-4000Y-7800D01*
X7400Y12200D02*
X7400Y12800D01*
X7200Y13000D01*
X6000Y13000D01*
X5800Y12800D01*
X5800Y12200D01*
X5400Y12200D01*
X21600Y-3000D02*
X20200Y-3000D01*
X31200Y12800D02*
X32400Y12800D01*
X32600Y13000D01*
X32600Y14000D01*
X32400Y14200D01*
X30800Y14200D01*
X23000Y20000D02*
X25600Y20000D01*
X3000Y-200D02*
X3000Y400D01*
X2800Y600D01*
X1200Y600D01*
X1000Y800D01*
X1000Y2400D01*
X600Y2400D01*
X-400Y16600D02*
X-600Y16400D01*
X-600Y10800D01*
X-400Y10600D01*
X400Y10600D01*
X400Y10200D01*
X25600Y-3000D02*
X25600Y-2400D01*
X25400Y-2200D01*
X24200Y-2200D01*
X24000Y-2000D01*
X24000Y0D01*
X23600Y0D01*
X45000Y-8400D02*
X44800Y-8200D01*
X44800Y-6600D01*
X23200Y-11400D02*
X23000Y-11200D01*
X-23800Y-11200D01*
X-24000Y-11000D01*
X-24000Y23700D01*
X-23900Y23800D01*
X-23600Y23800D01*
X26600Y23000D02*
X26600Y21600D01*
X-11800Y600D02*
X-14600Y600D01*
X-14800Y400D01*
X-14800Y-200D01*
X-15200Y-200D01*
X34400Y12800D02*
X34400Y12000D01*
X34200Y11800D01*
X27900Y11800D01*
X27800Y11700D01*
X27800Y11600D01*
X27600Y11400D01*
X16000Y11400D01*
X15800Y11200D01*
X15800Y10400D01*
X15400Y10400D01*
X63400Y10000D02*
X63400Y9800D01*
X63200Y9600D01*
X63200Y9200D01*
X63000Y9000D01*
X58700Y9000D01*
X58500Y9200D01*
X48000Y9200D01*
X47800Y9400D01*
X47800Y10800D01*
X47400Y10800D01*
X59400Y15200D02*
X59200Y15200D01*
X59000Y15400D01*
X50400Y15400D01*
X50400Y15800D01*
X47800Y-10000D02*
X58400Y-10000D01*
X63800Y22600D02*
X39200Y22600D01*
X-1400Y24200D02*
X-1400Y23000D01*
X-1200Y22800D01*
X-1200Y10800D01*
X-1400Y10600D01*
X5400Y17400D02*
X5400Y15200D01*
X26000Y-8400D02*
X26000Y-9000D01*
X26200Y-9200D01*
X27900Y-9200D01*
X28000Y-9300D01*
X28000Y-11800D01*
X28200Y-12000D01*
X61600Y-12000D01*
X61800Y-11800D01*
X61800Y-8000D01*
X64800Y21800D02*
X64800Y27200D01*
X64600Y27400D01*
X5000Y27400D01*
X4800Y27200D01*
X4800Y15200D01*
X4400Y15200D01*
X0Y23800D02*
X0Y16200D01*
X-200Y16000D01*
X-1600Y6800D02*
X-1600Y-1000D01*
X-2400Y23000D02*
X-2400Y7800D01*
X-2200Y7600D01*
X-1400Y7600D01*
X-1200Y7400D01*
X-1200Y-1100D01*
X-1100Y-1200D01*
X5400Y-1200D01*
X5600Y-1000D01*
X5600Y-200D01*
X6000Y-200D01*
G54D12*
X-35300Y-13100D02*
X-35300Y-8390D01*
X-35300Y-13100D02*
X-25080Y-13100D01*
X66900Y-13100D02*
X56680Y-13100D01*
X66900Y-13100D02*
X66900Y-8390D01*
X66900Y34004D02*
X66900Y29294D01*
X66900Y34004D02*
X56680Y34004D01*
X-35300Y34004D02*
X-25080Y34004D01*
X-35300Y34004D02*
X-35300Y29294D01*
X-37269Y-13100D02*
X-41206Y-13100D01*
X-39237Y-15069D02*
X-39237Y-11131D01*
X-40714Y-13100D02*
G75*
D01*
G02X-40714Y-13100I1477J0*
G01*
X68869Y-13100D02*
X72806Y-13100D01*
X70837Y-15069D02*
X70837Y-11131D01*
X69361Y-13100D02*
G75*
D01*
G02X69361Y-13100I1476J0*
G01*
X70345Y-13100D02*
G75*
D01*
G02X70345Y-13100I492J0*
G01*
X-37269Y34004D02*
X-41206Y34004D01*
X-39237Y32035D02*
X-39237Y35972D01*
X-40714Y34004D02*
G75*
D01*
G02X-40714Y34004I1477J0*
G01*
X-40221Y34004D02*
G75*
D01*
G02X-40221Y34004I984J0*
G01*
X-39729Y34004D02*
G75*
D01*
G02X-39729Y34004I492J0*
G01*
G54D13*
X-32600Y-2200D03*
X-32600Y-3200D03*
X-32600Y-4200D03*
X-32600Y-5200D03*
X-32600Y-6200D03*
X-32600Y-7200D03*
X-32600Y-8200D03*
X-32600Y-9200D03*
X-32600Y8400D03*
X-32600Y7400D03*
X-32600Y6400D03*
X-32600Y5400D03*
X-32600Y4400D03*
X-32600Y3400D03*
X-32600Y2400D03*
X-32600Y1400D03*
X-32800Y20000D03*
X-32800Y19000D03*
X-32800Y18000D03*
X-32800Y17000D03*
X-32800Y16000D03*
X-32800Y15000D03*
X-32800Y14000D03*
X-32800Y13000D03*
X-32800Y30800D03*
X-32800Y29800D03*
X-32800Y28800D03*
X-32800Y27800D03*
X-32800Y26800D03*
X-32800Y25800D03*
X-32800Y24800D03*
X-32800Y23800D03*
G54D14*
X60400Y10000D03*
X60400Y7000D03*
X63400Y10000D03*
X62400Y10000D03*
X61400Y10000D03*
X62400Y7000D03*
X63400Y7000D03*
X61400Y7000D03*
X59400Y10000D03*
X59400Y7000D03*
X60400Y15200D03*
X60400Y12200D03*
X63400Y15200D03*
X62400Y15200D03*
X61400Y15200D03*
X62400Y12200D03*
X63400Y12200D03*
X61400Y12200D03*
X59400Y15200D03*
X59400Y12200D03*
X60400Y20400D03*
X60400Y17400D03*
X63400Y20400D03*
X62400Y20400D03*
X61400Y20400D03*
X62400Y17400D03*
X63400Y17400D03*
X61400Y17400D03*
X59400Y20400D03*
X59400Y17400D03*
G54D15*
X27000Y20000D03*
X34000Y20000D03*
X7600Y24200D03*
X7600Y27000D03*
X11000Y-9600D03*
X32200Y11200D03*
X32200Y13400D03*
X31200Y13400D03*
X31800Y21400D03*
X59000Y22200D03*
X64000Y-8600D03*
X64000Y-11800D03*
X11400Y-8400D03*
X7400Y-7000D03*
X52000Y7800D03*
X51600Y19600D03*
X-3200Y25200D03*
X58600Y1800D03*
X58200Y23200D03*
X41000Y-9800D03*
X58600Y-10800D03*
X-600Y27400D03*
X41800Y12800D03*
X40800Y29800D03*
X59200Y-1400D03*
X57400Y25200D03*
X10600Y19800D03*
X-8400Y7800D03*
X-22800Y16000D03*
X-20800Y18400D03*
X23200Y9200D03*
X14200Y17200D03*
X11800Y21800D03*
X-26200Y21400D03*
X21400Y-11600D03*
X42800Y25600D03*
X9800Y17400D03*
X49800Y30800D03*
X-25200Y-7200D03*
X-13200Y-8200D03*
X59600Y-10400D03*
X8200Y26800D03*
X8000Y-6600D03*
X-12800Y-5800D03*
X-2400Y23000D03*
X-3600Y21800D03*
X-11800Y600D03*
X52000Y7200D03*
X54800Y7400D03*
X54800Y17600D03*
X56400Y-5600D03*
X53600Y6000D03*
X53400Y24800D03*
X10600Y16400D03*
X8600Y10400D03*
X33600Y-10800D03*
X-5400Y28600D03*
X42600Y10800D03*
X42400Y28600D03*
X-27600Y-4800D03*
X21000Y-8200D03*
X35600Y3200D03*
X14200Y-1600D03*
X55200Y-3200D03*
X61800Y-4600D03*
X64600Y-11800D03*
X66000Y-12400D03*
X-400Y-11800D03*
X-400Y-7600D03*
X44800Y14600D03*
X58000Y-8200D03*
X54200Y-8200D03*
X34200Y-7400D03*
X21400Y-6400D03*
X10000Y10600D03*
X10000Y11600D03*
X31800Y3800D03*
X52400Y14400D03*
X37000Y-6600D03*
X11000Y-4800D03*
X32200Y1000D03*
X27000Y14800D03*
X11800Y14200D03*
X13000Y8800D03*
X57600Y-10600D03*
X61800Y-8000D03*
X64800Y21800D03*
X37400Y9400D03*
X31800Y18000D03*
X21400Y18000D03*
X21400Y19800D03*
X33000Y12200D03*
X-19600Y3200D03*
X-30200Y7400D03*
X36600Y-1000D03*
X31800Y-1200D03*
X20600Y11800D03*
X55800Y20000D03*
X41600Y-5800D03*
X53200Y6600D03*
X1000Y25600D03*
X1000Y16800D03*
X-3200Y4800D03*
X59600Y-3600D03*
X40600Y8600D03*
X38600Y9200D03*
X32000Y8200D03*
X31600Y6200D03*
X10400Y5400D03*
X10400Y-2600D03*
X-8800Y22000D03*
X-26000Y29800D03*
X-26600Y8600D03*
X23200Y-11400D03*
X-23600Y23800D03*
X26600Y23000D03*
X20800Y-1200D03*
X20800Y-2200D03*
X14200Y3400D03*
X-3200Y-1200D03*
X41800Y24200D03*
X43000Y29600D03*
X-25200Y-10000D03*
X-2800Y-6000D03*
X27000Y-10600D03*
X-5000Y3000D03*
X-600Y3000D03*
X31200Y-11000D03*
X26400Y-11000D03*
X21800Y800D03*
X4000Y800D03*
X-27400Y13200D03*
X-12600Y17400D03*
X25400Y-1000D03*
X21800Y-1800D03*
X11400Y-2200D03*
X-2800Y-2800D03*
X37000Y14600D03*
X21200Y14200D03*
X51000Y17800D03*
X49800Y30200D03*
X-25800Y-7600D03*
X-13200Y-7000D03*
X27600Y-9600D03*
X65400Y32000D03*
X7000Y26400D03*
X8000Y16000D03*
X42000Y3400D03*
X54400Y4200D03*
X54000Y28200D03*
X0Y23800D03*
X-200Y16000D03*
X-1600Y6800D03*
X-1600Y-1000D03*
X-21600Y-3200D03*
X46400Y-9400D03*
X42600Y-5400D03*
X41400Y-3400D03*
X-5000Y-1600D03*
X55600Y-6000D03*
X25000Y-11600D03*
X1400Y-11800D03*
X56200Y4200D03*
X39000Y28200D03*
X-1400Y8000D03*
X55600Y-1400D03*
X38400Y29400D03*
X43000Y2600D03*
X56800Y1400D03*
X56800Y400D03*
X56800Y-6200D03*
X8600Y-8000D03*
X37800Y-4000D03*
X12600Y21400D03*
X8000Y21200D03*
X7400Y16400D03*
X9000Y7800D03*
X15000Y-6800D03*
X42200Y10200D03*
X41200Y23800D03*
X14800Y16800D03*
X22400Y8800D03*
X38600Y3800D03*
X32400Y3800D03*
X12000Y6000D03*
X12000Y3000D03*
X11600Y-600D03*
X45400Y14600D03*
X55000Y-1800D03*
X44800Y-2000D03*
X33000Y-5400D03*
X33000Y-10400D03*
X47200Y-10400D03*
X49600Y1000D03*
X55000Y5400D03*
X54800Y18200D03*
X-27800Y6200D03*
X33200Y-1600D03*
X27400Y-2000D03*
X11600Y1200D03*
X11200Y-1400D03*
X21600Y15000D03*
X58600Y-7800D03*
X53600Y-7800D03*
X42600Y-7800D03*
X22400Y20000D03*
X52800Y20000D03*
X51000Y4000D03*
X42000Y-5000D03*
X38800Y-7000D03*
X5400Y17400D03*
X49000Y-1800D03*
X31200Y12800D03*
X30800Y14200D03*
X23000Y20000D03*
X25600Y20000D03*
X42400Y0D03*
X42400Y1800D03*
X43600Y3800D03*
X32800Y8800D03*
X-26600Y27800D03*
X-21200Y2400D03*
X-29600Y7000D03*
X33400Y600D03*
X33800Y-1400D03*
X-22200Y5000D03*
X-21800Y8200D03*
X-21800Y20400D03*
X10000Y-9200D03*
X-2400Y-5000D03*
X-2600Y1800D03*
X11800Y200D03*
X50600Y29200D03*
X-24800Y-8800D03*
X57600Y30200D03*
X12200Y11600D03*
X21600Y-3000D03*
X63000Y10800D03*
X57600Y10800D03*
X32000Y5400D03*
X-2600Y6000D03*
X-200Y6000D03*
X27600Y1000D03*
X42600Y-3000D03*
X-21200Y1200D03*
X-26600Y-200D03*
X-2000Y-11800D03*
X-2000Y-7800D03*
X-4000Y-7800D03*
X57600Y8000D03*
X58200Y19000D03*
X40000Y18800D03*
X41000Y13200D03*
X-1400Y-7400D03*
X-1400Y-5800D03*
X-11400Y-5800D03*
X-11400Y-400D03*
X-3600Y1200D03*
X8000Y2000D03*
X-11800Y-2600D03*
X-11800Y-5200D03*
X-7600Y-7400D03*
X13400Y9400D03*
X59000Y-10000D03*
X65200Y-10000D03*
X-1600Y11200D03*
X57000Y7200D03*
X57000Y29800D03*
X-25200Y800D03*
X55400Y20600D03*
X41600Y4200D03*
X29000Y-7200D03*
X21000Y-7200D03*
X10600Y-8800D03*
X-23600Y-10400D03*
X-23600Y20800D03*
X10200Y20800D03*
X9800Y15400D03*
X7600Y5600D03*
X-11600Y10200D03*
X-8400Y17800D03*
X-22200Y16400D03*
X57800Y20400D03*
X58400Y800D03*
X55200Y-7000D03*
X21000Y8200D03*
X13800Y8600D03*
X11400Y12200D03*
X10400Y12200D03*
X10000Y8800D03*
X10200Y-3600D03*
X11800Y-3600D03*
X33000Y13600D03*
X33000Y17400D03*
X51200Y8400D03*
X56000Y-6600D03*
X47800Y-10000D03*
X58400Y-10000D03*
X63800Y22600D03*
X39200Y22600D03*
X-1400Y24200D03*
X-1400Y10600D03*
X52200Y-3800D03*
X54000Y30400D03*
X-32600Y12000D03*
X-11200Y12200D03*
X14200Y22800D03*
X-11600Y22400D03*
X9800Y-4400D03*
X22000Y14000D03*
X42200Y14600D03*
X42200Y23600D03*
X10800Y15800D03*
X10200Y9400D03*
X9400Y-3000D03*
X51600Y26000D03*
X10000Y16000D03*
X8600Y9200D03*
X60600Y-7600D03*
X63800Y21800D03*
X39600Y21800D03*
X-11200Y24800D03*
X41400Y12000D03*
X40200Y30200D03*
X-24400Y-9400D03*
X-13600Y-4000D03*
X44800Y-6600D03*
X33200Y5400D03*
X32800Y4600D03*
X30800Y4200D03*
X21600Y-3800D03*
X20800Y-3800D03*
X41000Y-2400D03*
X32000Y-9200D03*
X26400Y-10200D03*
X400Y-10000D03*
X54000Y3400D03*
X53400Y26400D03*
X9000Y15800D03*
X9000Y9800D03*
X43000Y-1600D03*
X53200Y-1400D03*
X-15000Y26000D03*
X31600Y8800D03*
X30000Y8800D03*
X22400Y12000D03*
X11200Y14000D03*
X8600Y5000D03*
X-26800Y800D03*
X34800Y21400D03*
X55200Y21400D03*
X55200Y30400D03*
X66000Y-11600D03*
X63400Y-11600D03*
X63400Y-8800D03*
X58600Y-8800D03*
X9200Y-7000D03*
X9200Y-8400D03*
X11800Y5200D03*
X-3200Y400D03*
X-12400Y4200D03*
X-22200Y4200D03*
X32600Y15400D03*
X48000Y-6600D03*
X45400Y-6600D03*
X32600Y16600D03*
X33000Y19200D03*
X34400Y19200D03*
X34400Y22600D03*
X11800Y21000D03*
X-400Y16600D03*
X31800Y200D03*
X30600Y1000D03*
X-27400Y14400D03*
X-29200Y14800D03*
X27600Y3400D03*
X22200Y-5000D03*
X21000Y-5400D03*
X32000Y7400D03*
X29200Y4000D03*
X62400Y18400D03*
X63000Y-2800D03*
X42600Y6000D03*
X32600Y6400D03*
X30800Y9200D03*
X-28400Y6600D03*
X11600Y4600D03*
X22000Y13400D03*
X21400Y9000D03*
X63600Y-3200D03*
X22000Y4200D03*
X35000Y9600D03*
X40800Y1400D03*
X20400Y23200D03*
X-1000Y23400D03*
X-27000Y9800D03*
G54D16*
X34200Y5200D03*
X37200Y2200D03*
X35200Y2200D03*
X36200Y2200D03*
X38200Y2200D03*
X39200Y2200D03*
X40200Y2200D03*
X40200Y5200D03*
X37200Y5200D03*
X35200Y5200D03*
X36200Y5200D03*
X38200Y5200D03*
X39200Y5200D03*
X34200Y2200D03*
X34200Y0D03*
X37200Y-3000D03*
X35200Y-3000D03*
X36200Y-3000D03*
X38200Y-3000D03*
X39200Y-3000D03*
X40200Y-3000D03*
X40200Y0D03*
X37200Y0D03*
X35200Y0D03*
X36200Y0D03*
X38200Y0D03*
X39200Y0D03*
X34200Y-3000D03*
X34200Y-5400D03*
X37200Y-8400D03*
X35200Y-8400D03*
X36200Y-8400D03*
X38200Y-8400D03*
X39200Y-8400D03*
X40200Y-8400D03*
X40200Y-5400D03*
X37200Y-5400D03*
X35200Y-5400D03*
X36200Y-5400D03*
X38200Y-5400D03*
X39200Y-5400D03*
X34200Y-8400D03*
X44400Y10800D03*
X47400Y7800D03*
X45400Y7800D03*
X46400Y7800D03*
X48400Y7800D03*
X49400Y7800D03*
X50400Y7800D03*
X50400Y10800D03*
X47400Y10800D03*
X45400Y10800D03*
X46400Y10800D03*
X48400Y10800D03*
X49400Y10800D03*
X44400Y7800D03*
X44400Y15800D03*
X47400Y12800D03*
X45400Y12800D03*
X46400Y12800D03*
X48400Y12800D03*
X49400Y12800D03*
X50400Y12800D03*
X50400Y15800D03*
X47400Y15800D03*
X45400Y15800D03*
X46400Y15800D03*
X48400Y15800D03*
X49400Y15800D03*
X44400Y12800D03*
X-20000Y19000D03*
X-17000Y16000D03*
X-19000Y16000D03*
X-18000Y16000D03*
X-16000Y16000D03*
X-15000Y16000D03*
X-14000Y16000D03*
X-14000Y19000D03*
X-17000Y19000D03*
X-19000Y19000D03*
X-18000Y19000D03*
X-16000Y19000D03*
X-15000Y19000D03*
X-20000Y16000D03*
X-10400Y19000D03*
X-7400Y16000D03*
X-9400Y16000D03*
X-8400Y16000D03*
X-6400Y16000D03*
X-5400Y16000D03*
X-4400Y16000D03*
X-4400Y19000D03*
X-7400Y19000D03*
X-9400Y19000D03*
X-8400Y19000D03*
X-6400Y19000D03*
X-5400Y19000D03*
X-10400Y16000D03*
X-20200Y14000D03*
X-17200Y11000D03*
X-19200Y11000D03*
X-18200Y11000D03*
X-16200Y11000D03*
X-15200Y11000D03*
X-14200Y11000D03*
X-14200Y14000D03*
X-17200Y14000D03*
X-19200Y14000D03*
X-18200Y14000D03*
X-16200Y14000D03*
X-15200Y14000D03*
X-20200Y11000D03*
X-10400Y14000D03*
X-7400Y11000D03*
X-9400Y11000D03*
X-8400Y11000D03*
X-6400Y11000D03*
X-5400Y11000D03*
X-4400Y11000D03*
X-4400Y14000D03*
X-7400Y14000D03*
X-9400Y14000D03*
X-8400Y14000D03*
X-6400Y14000D03*
X-5400Y14000D03*
X-10400Y11000D03*
X-20200Y9000D03*
X-17200Y6000D03*
X-19200Y6000D03*
X-18200Y6000D03*
X-16200Y6000D03*
X-15200Y6000D03*
X-14200Y6000D03*
X-14200Y9000D03*
X-17200Y9000D03*
X-19200Y9000D03*
X-18200Y9000D03*
X-16200Y9000D03*
X-15200Y9000D03*
X-20200Y6000D03*
X-10400Y9000D03*
X-7400Y6000D03*
X-9400Y6000D03*
X-8400Y6000D03*
X-6400Y6000D03*
X-5400Y6000D03*
X-4400Y6000D03*
X-4400Y9000D03*
X-7400Y9000D03*
X-9400Y9000D03*
X-8400Y9000D03*
X-6400Y9000D03*
X-5400Y9000D03*
X-10400Y6000D03*
X-20200Y4600D03*
X-17200Y1600D03*
X-19200Y1600D03*
X-18200Y1600D03*
X-16200Y1600D03*
X-15200Y1600D03*
X-14200Y1600D03*
X-14200Y4600D03*
X-17200Y4600D03*
X-19200Y4600D03*
X-18200Y4600D03*
X-16200Y4600D03*
X-15200Y4600D03*
X-20200Y1600D03*
X-10200Y4600D03*
X-7200Y1600D03*
X-9200Y1600D03*
X-8200Y1600D03*
X-6200Y1600D03*
X-5200Y1600D03*
X-4200Y1600D03*
X-4200Y4600D03*
X-7200Y4600D03*
X-9200Y4600D03*
X-8200Y4600D03*
X-6200Y4600D03*
X-5200Y4600D03*
X-10200Y1600D03*
X-20200Y-200D03*
X-17200Y-3200D03*
X-19200Y-3200D03*
X-18200Y-3200D03*
X-16200Y-3200D03*
X-15200Y-3200D03*
X-14200Y-3200D03*
X-14200Y-200D03*
X-17200Y-200D03*
X-19200Y-200D03*
X-18200Y-200D03*
X-16200Y-200D03*
X-15200Y-200D03*
X-20200Y-3200D03*
X-10400Y-400D03*
X-7400Y-3400D03*
X-9400Y-3400D03*
X-8400Y-3400D03*
X-6400Y-3400D03*
X-5400Y-3400D03*
X-4400Y-3400D03*
X-4400Y-400D03*
X-7400Y-400D03*
X-9400Y-400D03*
X-8400Y-400D03*
X-6400Y-400D03*
X-5400Y-400D03*
X-10400Y-3400D03*
X-20200Y-5600D03*
X-17200Y-8600D03*
X-19200Y-8600D03*
X-18200Y-8600D03*
X-16200Y-8600D03*
X-15200Y-8600D03*
X-14200Y-8600D03*
X-14200Y-5600D03*
X-17200Y-5600D03*
X-19200Y-5600D03*
X-18200Y-5600D03*
X-16200Y-5600D03*
X-15200Y-5600D03*
X-20200Y-8600D03*
X-10400Y-5400D03*
X-7400Y-8400D03*
X-9400Y-8400D03*
X-8400Y-8400D03*
X-6400Y-8400D03*
X-5400Y-8400D03*
X-4400Y-8400D03*
X-4400Y-5400D03*
X-7400Y-5400D03*
X-9400Y-5400D03*
X-8400Y-5400D03*
X-6400Y-5400D03*
X-5400Y-5400D03*
X-10400Y-8400D03*
X400Y10200D03*
X2400Y7200D03*
X1400Y7200D03*
X3400Y7200D03*
X5400Y7200D03*
X4400Y7200D03*
X6400Y7200D03*
X7400Y7200D03*
X6400Y10200D03*
X3400Y10200D03*
X2400Y10200D03*
X1400Y10200D03*
X5400Y10200D03*
X4400Y10200D03*
X7400Y10200D03*
X400Y7200D03*
X400Y15200D03*
X2400Y12200D03*
X1400Y12200D03*
X3400Y12200D03*
X5400Y12200D03*
X4400Y12200D03*
X6400Y12200D03*
X7400Y12200D03*
X6400Y15200D03*
X3400Y15200D03*
X2400Y15200D03*
X1400Y15200D03*
X5400Y15200D03*
X4400Y15200D03*
X7400Y15200D03*
X400Y12200D03*
X600Y5400D03*
X3600Y2400D03*
X1600Y2400D03*
X2600Y2400D03*
X4600Y2400D03*
X5600Y2400D03*
X6600Y2400D03*
X6600Y5400D03*
X3600Y5400D03*
X1600Y5400D03*
X2600Y5400D03*
X4600Y5400D03*
X5600Y5400D03*
X600Y2400D03*
X1000Y-200D03*
X4000Y-3200D03*
X2000Y-3200D03*
X3000Y-3200D03*
X5000Y-3200D03*
X6000Y-3200D03*
X7000Y-3200D03*
X7000Y-200D03*
X4000Y-200D03*
X2000Y-200D03*
X3000Y-200D03*
X5000Y-200D03*
X6000Y-200D03*
X1000Y-3200D03*
X400Y-5400D03*
X2400Y-8400D03*
X1400Y-8400D03*
X3400Y-8400D03*
X5400Y-8400D03*
X4400Y-8400D03*
X6400Y-8400D03*
X7400Y-8400D03*
X6400Y-5400D03*
X3400Y-5400D03*
X2400Y-5400D03*
X1400Y-5400D03*
X5400Y-5400D03*
X4400Y-5400D03*
X7400Y-5400D03*
X400Y-8400D03*
X13600Y21600D03*
X15600Y18600D03*
X14600Y18600D03*
X16600Y18600D03*
X18600Y18600D03*
X17600Y18600D03*
X19600Y18600D03*
X20600Y18600D03*
X19600Y21600D03*
X16600Y21600D03*
X15600Y21600D03*
X14600Y21600D03*
X18600Y21600D03*
X17600Y21600D03*
X20600Y21600D03*
X13600Y18600D03*
X13200Y15800D03*
X15200Y12800D03*
X14200Y12800D03*
X16200Y12800D03*
X18200Y12800D03*
X17200Y12800D03*
X19200Y12800D03*
X20200Y12800D03*
X19200Y15800D03*
X16200Y15800D03*
X15200Y15800D03*
X14200Y15800D03*
X18200Y15800D03*
X17200Y15800D03*
X20200Y15800D03*
X13200Y12800D03*
X13400Y10400D03*
X15400Y7400D03*
X14400Y7400D03*
X16400Y7400D03*
X18400Y7400D03*
X17400Y7400D03*
X19400Y7400D03*
X20400Y7400D03*
X19400Y10400D03*
X16400Y10400D03*
X15400Y10400D03*
X14400Y10400D03*
X18400Y10400D03*
X17400Y10400D03*
X20400Y10400D03*
X13400Y7400D03*
X13400Y5200D03*
X15400Y2200D03*
X14400Y2200D03*
X16400Y2200D03*
X18400Y2200D03*
X17400Y2200D03*
X19400Y2200D03*
X20400Y2200D03*
X19400Y5200D03*
X16400Y5200D03*
X15400Y5200D03*
X14400Y5200D03*
X18400Y5200D03*
X17400Y5200D03*
X20400Y5200D03*
X13400Y2200D03*
X13200Y0D03*
X15200Y-3000D03*
X14200Y-3000D03*
X16200Y-3000D03*
X18200Y-3000D03*
X17200Y-3000D03*
X19200Y-3000D03*
X20200Y-3000D03*
X19200Y0D03*
X16200Y0D03*
X15200Y0D03*
X14200Y0D03*
X18200Y0D03*
X17200Y0D03*
X20200Y0D03*
X13200Y-3000D03*
X13000Y-5400D03*
X15000Y-8400D03*
X14000Y-8400D03*
X16000Y-8400D03*
X18000Y-8400D03*
X17000Y-8400D03*
X19000Y-8400D03*
X20000Y-8400D03*
X19000Y-5400D03*
X16000Y-5400D03*
X15000Y-5400D03*
X14000Y-5400D03*
X18000Y-5400D03*
X17000Y-5400D03*
X20000Y-5400D03*
X13000Y-8400D03*
X23600Y21600D03*
X25600Y18600D03*
X24600Y18600D03*
X26600Y18600D03*
X28600Y18600D03*
X27600Y18600D03*
X29600Y18600D03*
X30600Y18600D03*
X29600Y21600D03*
X26600Y21600D03*
X25600Y21600D03*
X24600Y21600D03*
X28600Y21600D03*
X27600Y21600D03*
X30600Y21600D03*
X23600Y18600D03*
X24200Y15800D03*
X27200Y12800D03*
X25200Y12800D03*
X26200Y12800D03*
X28200Y12800D03*
X29200Y12800D03*
X30200Y12800D03*
X30200Y15800D03*
X27200Y15800D03*
X25200Y15800D03*
X26200Y15800D03*
X28200Y15800D03*
X29200Y15800D03*
X24200Y12800D03*
X24200Y10400D03*
X27200Y7400D03*
X25200Y7400D03*
X26200Y7400D03*
X28200Y7400D03*
X29200Y7400D03*
X30200Y7400D03*
X30200Y10400D03*
X27200Y10400D03*
X25200Y10400D03*
X26200Y10400D03*
X28200Y10400D03*
X29200Y10400D03*
X24200Y7400D03*
X23800Y5200D03*
X25800Y2200D03*
X24800Y2200D03*
X26800Y2200D03*
X28800Y2200D03*
X27800Y2200D03*
X29800Y2200D03*
X30800Y2200D03*
X29800Y5200D03*
X26800Y5200D03*
X25800Y5200D03*
X24800Y5200D03*
X28800Y5200D03*
X27800Y5200D03*
X30800Y5200D03*
X23800Y2200D03*
X23600Y0D03*
X25600Y-3000D03*
X24600Y-3000D03*
X26600Y-3000D03*
X28600Y-3000D03*
X27600Y-3000D03*
X29600Y-3000D03*
X30600Y-3000D03*
X29600Y0D03*
X26600Y0D03*
X25600Y0D03*
X24600Y0D03*
X28600Y0D03*
X27600Y0D03*
X30600Y0D03*
X23600Y-3000D03*
X24000Y-5400D03*
X27000Y-8400D03*
X25000Y-8400D03*
X26000Y-8400D03*
X28000Y-8400D03*
X29000Y-8400D03*
X30000Y-8400D03*
X30000Y-5400D03*
X27000Y-5400D03*
X25000Y-5400D03*
X26000Y-5400D03*
X28000Y-5400D03*
X29000Y-5400D03*
X24000Y-8400D03*
X34400Y15800D03*
X37400Y12800D03*
X35400Y12800D03*
X36400Y12800D03*
X38400Y12800D03*
X39400Y12800D03*
X40400Y12800D03*
X40400Y15800D03*
X37400Y15800D03*
X35400Y15800D03*
X36400Y15800D03*
X38400Y15800D03*
X39400Y15800D03*
X34400Y12800D03*
X34400Y10600D03*
X37400Y7600D03*
X35400Y7600D03*
X36400Y7600D03*
X38400Y7600D03*
X39400Y7600D03*
X40400Y7600D03*
X40400Y10600D03*
X37400Y10600D03*
X35400Y10600D03*
X36400Y10600D03*
X38400Y10600D03*
X39400Y10600D03*
X34400Y7600D03*
X44200Y5200D03*
X46200Y2200D03*
X45200Y2200D03*
X47200Y2200D03*
X49200Y2200D03*
X48200Y2200D03*
X50200Y2200D03*
X51200Y2200D03*
X50200Y5200D03*
X47200Y5200D03*
X46200Y5200D03*
X45200Y5200D03*
X49200Y5200D03*
X48200Y5200D03*
X51200Y5200D03*
X44200Y2200D03*
X44000Y0D03*
X46000Y-3000D03*
X45000Y-3000D03*
X47000Y-3000D03*
X49000Y-3000D03*
X48000Y-3000D03*
X50000Y-3000D03*
X51000Y-3000D03*
X50000Y0D03*
X47000Y0D03*
X46000Y0D03*
X45000Y0D03*
X49000Y0D03*
X48000Y0D03*
X51000Y0D03*
X44000Y-3000D03*
X44000Y-5400D03*
X46000Y-8400D03*
X45000Y-8400D03*
X47000Y-8400D03*
X49000Y-8400D03*
X48000Y-8400D03*
X50000Y-8400D03*
X51000Y-8400D03*
X50000Y-5400D03*
X47000Y-5400D03*
X46000Y-5400D03*
X45000Y-5400D03*
X49000Y-5400D03*
X48000Y-5400D03*
X51000Y-5400D03*
X44000Y-8400D03*

M02*
