G04 Generated by Ultiboard 14.1 *
%FSLAX24Y24*%
%MOIN*%

%ADD10C,0.0001*%
%ADD11C,0.0100*%
%ADD12C,0.0050*%
%ADD13C,0.0665*%
%ADD14C,0.0633*%
%ADD15C,0.0394*%
%ADD16C,0.0550*%
%ADD17R,0.0550X0.0550*%


G04 ColorRGB 00FF00 for the following layer *
%LNCopper Top*%
%LPD*%
G54D10*
G54D11*
X20600Y18600D02*
X19600Y18600D01*
X19000Y-8400D02*
X18000Y-8400D01*
X-21200Y1200D02*
X-27100Y1200D01*
X-27200Y1100D01*
X-27200Y0D01*
X-27000Y-200D01*
X-26600Y-200D01*
X-2000Y-11800D02*
X-2000Y-7800D01*
X-4000Y-7800D02*
X-3800Y-8000D01*
X-3800Y-9000D01*
X-4000Y-9200D01*
X-13600Y-9200D01*
X-13800Y-9000D01*
X-13800Y-8600D01*
X-14200Y-8600D01*
X28000Y-3800D02*
X23000Y-3800D01*
X22800Y-3600D01*
X22800Y-3200D01*
X22600Y-3000D01*
X21600Y-3000D01*
X38400Y7600D02*
X38400Y7000D01*
X38200Y6800D01*
X36000Y6800D01*
X35800Y7000D01*
X35800Y7600D01*
X35400Y7600D01*
X34400Y7600D02*
X34200Y7600D01*
X34200Y7000D01*
X34000Y6800D01*
X31400Y6800D01*
X31200Y7000D01*
X31200Y12800D01*
X30800Y14200D02*
X31000Y14400D01*
X31000Y17200D01*
X30800Y17400D01*
X23000Y17400D01*
X22800Y17600D01*
X22800Y19800D01*
X23000Y20000D01*
X25600Y20000D02*
X25600Y21600D01*
X31600Y6200D02*
X26800Y6200D01*
X26600Y6400D01*
X26600Y6500D01*
X26500Y6600D01*
X10600Y6600D01*
X10400Y6400D01*
X10400Y5400D01*
X10400Y-2600D02*
X10200Y-2400D01*
X5600Y-2400D01*
X5400Y-2600D01*
X5400Y-3200D01*
X5000Y-3200D01*
X4400Y-8400D02*
X3400Y-8400D01*
X2400Y7200D02*
X2400Y6600D01*
X2200Y6400D01*
X1000Y5400D02*
X600Y5400D01*
X2200Y6400D02*
X1000Y6400D01*
X1000Y5400D01*
X1000Y6400D02*
X-2200Y6400D01*
X-2400Y6600D01*
X-2400Y16400D01*
X-2200Y16600D01*
X-400Y16600D01*
X44800Y-6600D02*
X41400Y-6600D01*
X41200Y-6400D01*
X41200Y-4800D01*
X41000Y-4600D01*
X39800Y-4600D01*
X39600Y-4400D01*
X39600Y-3000D01*
X39200Y-3000D01*
X28000Y-8400D02*
X28000Y-7600D01*
X27800Y-7400D01*
X23400Y-7400D01*
X23200Y-7600D01*
X23200Y-11400D01*
X-23600Y23800D02*
X-700Y23800D01*
X-600Y23700D01*
X-600Y23600D01*
X-400Y23400D01*
X400Y23400D01*
X600Y23600D01*
X26400Y23600D01*
X26600Y23400D01*
X26600Y23000D01*
X24800Y5200D02*
X24800Y6000D01*
X24600Y6200D01*
X13000Y6200D01*
X12800Y6000D01*
X12800Y5800D01*
X12600Y5600D01*
X11400Y5600D01*
X11200Y5400D01*
X11200Y4600D01*
X11000Y4400D01*
X9900Y4400D01*
X9800Y4300D01*
X9800Y4000D01*
X9600Y3800D01*
X-11600Y3800D01*
X-11800Y3600D01*
X-11800Y600D01*
X39200Y-8400D02*
X39200Y-10000D01*
X39400Y-10200D01*
X41300Y-10200D01*
X41400Y-10200D01*
X41400Y-10100D01*
X41600Y-10000D01*
X47800Y-10000D01*
X58400Y-10000D02*
X58400Y-9700D01*
X58500Y-9600D01*
X65200Y-9600D01*
X65400Y-9400D01*
X65400Y22400D01*
X65200Y22600D01*
X63800Y22600D01*
X39200Y22600D02*
X39200Y24400D01*
X39000Y24600D01*
X-1300Y24600D01*
X-1400Y24500D01*
X-1400Y24200D01*
X-1400Y10600D02*
X-1000Y11000D01*
X800Y11000D01*
X1000Y10800D01*
X1000Y10200D01*
X1400Y10200D01*
X26600Y16600D02*
X26600Y17000D01*
X26400Y17200D01*
X22700Y17200D01*
X22600Y17300D01*
X22600Y17400D01*
X22400Y17600D01*
X12900Y17600D01*
X12800Y17600D01*
X12800Y17700D01*
X12600Y17800D01*
X5500Y17800D01*
X5400Y17700D01*
X5400Y17400D01*
X61800Y-8000D02*
X64600Y-8000D01*
X64800Y-7800D01*
X64800Y21800D01*
X48200Y5200D02*
X48200Y5800D01*
X48000Y6000D01*
X44600Y6000D01*
X44400Y6200D01*
X44400Y6800D01*
X44200Y7000D01*
X41800Y7000D01*
X41600Y7200D01*
X41600Y11200D01*
X41400Y11400D01*
X33200Y11400D01*
X33000Y11600D01*
X33000Y12200D01*
X-17200Y9000D02*
X-17200Y8600D01*
X-17400Y8400D01*
X-17600Y8400D01*
X-17800Y8200D01*
X-17800Y6000D01*
X-18200Y6000D01*
X-18000Y19000D02*
X-18000Y17600D01*
X-18200Y17400D01*
X-26400Y17400D01*
X-26600Y17600D01*
X-26600Y27800D01*
X-8400Y14000D02*
X-8400Y14600D01*
X-8600Y14800D01*
X-27700Y14800D01*
X-27800Y14700D01*
X-27800Y12600D01*
X-28000Y12400D01*
X-33000Y12400D01*
X-33200Y12200D01*
X-33200Y8000D01*
X-33000Y7800D01*
X-32600Y7800D01*
X-32600Y7400D01*
X-18200Y9000D02*
X-18200Y9600D01*
X-18400Y9800D01*
X-27000Y9800D01*
X20000Y-8400D02*
X19000Y-8400D01*
X5400Y12200D02*
X5400Y12800D01*
X5200Y13000D01*
X2000Y13000D01*
X1800Y13200D01*
X1800Y15200D01*
X1400Y15200D01*
X-4400Y15200D02*
X-3800Y15200D01*
X-3600Y15000D01*
X-3600Y11600D01*
X-3800Y11400D01*
X-4400Y11400D01*
X-4400Y11000D01*
X57800Y20800D02*
X57800Y30000D01*
X57600Y30200D01*
X63400Y17400D02*
X63400Y17200D01*
X63000Y16800D01*
X62000Y16800D01*
X61800Y17000D01*
X61800Y17200D01*
X61600Y17400D01*
X61400Y17400D01*
X61400Y15200D01*
X36000Y9800D02*
X35800Y10000D01*
X35800Y10600D01*
X35400Y10600D01*
X38400Y10600D02*
X38400Y9800D01*
X36000Y9800D01*
X12600Y21400D02*
X8200Y21400D01*
X8000Y21200D01*
X7400Y16400D02*
X8300Y16400D01*
X8400Y16300D01*
X8400Y11700D01*
X8400Y11600D01*
X8300Y11600D01*
X8200Y11400D01*
X8200Y8900D01*
X8300Y8800D01*
X8800Y8800D01*
X9000Y8600D01*
X9000Y7800D01*
X15000Y-6800D02*
X15000Y-5400D01*
X45400Y7800D02*
X45400Y8400D01*
X45200Y8600D01*
X42000Y8600D01*
X41800Y8800D01*
X41800Y11200D01*
X42200Y11600D01*
X42200Y13100D01*
X42100Y13200D01*
X42000Y13200D01*
X41800Y13400D01*
X41800Y24200D01*
X49400Y12800D02*
X49400Y12200D01*
X49600Y12000D01*
X51000Y12000D01*
X51200Y11800D01*
X51200Y8400D01*
X56000Y-6600D02*
X56000Y-11800D01*
X55800Y-12000D01*
X12400Y-12000D01*
X12200Y-11800D01*
X12200Y-7500D01*
X12100Y-7400D01*
X2000Y-7400D01*
X1800Y-7200D01*
X1800Y-5400D01*
X1400Y-5400D01*
X27000Y-5400D02*
X27000Y-6200D01*
X26800Y-6400D01*
X21400Y-6400D01*
X10000Y10600D02*
X10000Y11600D01*
X46000Y-3000D02*
X46000Y-1400D01*
X45800Y-1200D01*
X42200Y-1200D01*
X42000Y-1000D01*
X42000Y1200D01*
X41800Y1400D01*
X40800Y1400D01*
X36400Y7600D02*
X36400Y8200D01*
X36200Y8400D01*
X33800Y8400D01*
X33600Y8200D01*
X33600Y7200D01*
X33400Y7000D01*
X31700Y7000D01*
X31600Y7100D01*
X31600Y8800D01*
X30000Y8800D02*
X22900Y8800D01*
X22800Y8900D01*
X22800Y11900D01*
X22700Y12000D01*
X22400Y12000D01*
X11200Y14000D02*
X11000Y13800D01*
X11000Y8600D01*
X10800Y8400D01*
X9900Y8400D01*
X9800Y8300D01*
X9800Y5200D01*
X9600Y5000D01*
X8600Y5000D01*
X-7400Y-400D02*
X-7400Y-800D01*
X-7600Y-1000D01*
X-7800Y-1000D01*
X-8000Y-1200D01*
X-8000Y-3400D01*
X-8400Y-3400D01*
X-9400Y6000D02*
X-9000Y6000D01*
X-9000Y7600D01*
X-8800Y7800D01*
X-8400Y7800D01*
X-22800Y16000D02*
X-27400Y16000D01*
X-27600Y16200D01*
X-27600Y20400D01*
X-27800Y20600D01*
X-33200Y20600D01*
X-33400Y20800D01*
X-33400Y26200D01*
X-33200Y26400D01*
X-32800Y26400D01*
X-32800Y26800D01*
X-21200Y2400D02*
X-29400Y2400D01*
X-29600Y2600D01*
X-29600Y7000D01*
X-18200Y-5600D02*
X-18200Y-5000D01*
X-18400Y-4800D01*
X-27600Y-4800D01*
X19400Y7400D02*
X18400Y7400D01*
X29200Y17800D02*
X29000Y18000D01*
X29000Y18600D01*
X28600Y18600D01*
X30600Y18600D02*
X30600Y17800D01*
X29200Y17800D01*
X49400Y-3800D02*
X46600Y-3800D01*
X46400Y-4000D01*
X46400Y-5400D01*
X46000Y-5400D01*
X59200Y-1400D02*
X58200Y-1400D01*
X58000Y-1200D01*
X58000Y7400D01*
X57800Y7600D01*
X57300Y7600D01*
X57200Y7700D01*
X57200Y25000D01*
X57400Y25200D01*
X10600Y19800D02*
X17000Y19800D01*
X17200Y19600D01*
X17200Y18600D01*
X17600Y18600D01*
X21400Y18000D02*
X21400Y19800D01*
X13600Y21600D02*
X13600Y21200D01*
X13400Y21000D01*
X11800Y21000D01*
X38200Y5200D02*
X38200Y3400D01*
X38000Y3200D01*
X35600Y3200D01*
X14200Y-1600D02*
X14200Y-3000D01*
X33000Y13600D02*
X33000Y17400D01*
X52000Y7800D02*
X51800Y8000D01*
X51800Y19400D01*
X51600Y19600D01*
X39200Y0D02*
X39200Y-1400D01*
X39400Y-1600D01*
X43000Y-1600D01*
X53200Y-1400D02*
X53200Y-1100D01*
X53300Y-1000D01*
X55600Y-1000D01*
X55800Y-800D01*
X55800Y4500D01*
X55900Y4600D01*
X56000Y4600D01*
X56200Y4800D01*
X56200Y31200D01*
X56000Y31400D01*
X39500Y31400D01*
X39400Y31300D01*
X39400Y26200D01*
X39200Y26000D01*
X-15000Y26000D01*
X55600Y-1400D02*
X55900Y-1400D01*
X56000Y-1300D01*
X56000Y1600D01*
X56200Y1800D01*
X56400Y1800D01*
X56600Y2000D01*
X56600Y31700D01*
X56500Y31800D01*
X38600Y31800D01*
X38400Y31600D01*
X38400Y29400D01*
X27000Y-8400D02*
X27000Y-7800D01*
X26800Y-7600D01*
X24600Y-7600D01*
X24400Y-7800D01*
X24400Y-8200D01*
X24000Y-8200D01*
X24000Y-8400D01*
X30000Y-5400D02*
X33000Y-5400D01*
X33000Y-10400D02*
X47200Y-10400D01*
X42400Y0D02*
X42400Y1800D01*
X43600Y3800D02*
X43400Y4000D01*
X43400Y6700D01*
X43300Y6800D01*
X41500Y6800D01*
X41400Y6900D01*
X41400Y8800D01*
X41200Y9000D01*
X40300Y9000D01*
X40200Y8900D01*
X40200Y8800D01*
X40000Y8600D01*
X33000Y8600D01*
X32800Y8800D01*
X-11600Y10200D02*
X-16600Y10200D01*
X-16800Y10000D01*
X-16800Y9000D01*
X-17200Y9000D01*
X-17200Y-200D02*
X-17200Y-600D01*
X-17400Y-800D01*
X-17600Y-800D01*
X-17800Y-1000D01*
X-17800Y-3200D01*
X-18200Y-3200D01*
X40400Y12800D02*
X40800Y12800D01*
X40800Y13000D01*
X41000Y13200D01*
X-13600Y16000D02*
X-14000Y16000D01*
X-4400Y16000D02*
X-4400Y15200D01*
X-13600Y15200D01*
X-13600Y16000D01*
X20400Y7400D02*
X20400Y8400D01*
X20600Y8600D01*
X21300Y8600D01*
X21400Y8600D01*
X21400Y8500D01*
X21600Y8400D01*
X22700Y8400D01*
X22800Y8400D01*
X22800Y8500D01*
X23000Y8600D01*
X28400Y8600D01*
X28600Y8400D01*
X29600Y8400D01*
X29800Y8200D01*
X29800Y7400D01*
X30200Y7400D01*
X-11800Y-2600D02*
X-11800Y-5200D01*
X-7600Y-7400D02*
X-5000Y-7400D01*
X-4800Y-7600D01*
X-4800Y-8400D01*
X-4400Y-8400D01*
X33400Y600D02*
X33400Y-400D01*
X33800Y-800D01*
X33800Y-1400D01*
X34200Y5200D02*
X34200Y3600D01*
X34000Y3400D01*
X32000Y3400D01*
X31800Y3200D01*
X31800Y1000D01*
X34400Y15800D02*
X34800Y15800D01*
X34800Y21400D01*
X55200Y21400D02*
X55200Y30400D01*
X66000Y-11600D02*
X65800Y-11400D01*
X63600Y-11400D01*
X63400Y-11600D01*
X63400Y-8800D02*
X58600Y-8800D01*
X49000Y-8400D02*
X49000Y-9200D01*
X48800Y-9400D01*
X46400Y-9400D01*
X42600Y-5400D02*
X41600Y-5400D01*
X41400Y-5200D01*
X41400Y-3400D01*
X21000Y-8200D02*
X21000Y-9000D01*
X20800Y-9200D01*
X17600Y-9200D01*
X17400Y-9000D01*
X17400Y-8400D01*
X17000Y-8400D01*
X48400Y12800D02*
X48400Y13400D01*
X48600Y13600D01*
X51000Y13600D01*
X51200Y13800D01*
X51200Y16400D01*
X51000Y16600D01*
X50400Y16600D01*
X50200Y16800D01*
X50200Y30700D01*
X50100Y30800D01*
X49800Y30800D01*
X-25200Y-7200D02*
X-25000Y-7400D01*
X-13400Y-7400D01*
X-13200Y-7600D01*
X-13200Y-8200D01*
X36200Y-8400D02*
X36200Y-9800D01*
X36000Y-10000D01*
X27200Y-10000D01*
X27000Y-10200D01*
X27000Y-10600D01*
X-5000Y3000D02*
X-600Y3000D01*
X6400Y12200D02*
X6400Y11600D01*
X6200Y11400D01*
X1800Y12200D02*
X1400Y12200D01*
X6200Y11400D02*
X1800Y11400D01*
X1800Y12200D01*
X4000Y800D02*
X4200Y1000D01*
X4200Y2400D01*
X4600Y2400D01*
X-18000Y16000D02*
X-18000Y15400D01*
X-18200Y15200D01*
X-32200Y15200D01*
X-32400Y15400D01*
X-32400Y16000D01*
X-32800Y16000D01*
X20400Y2200D02*
X19400Y2200D01*
X29600Y0D02*
X29600Y1200D01*
X29800Y1400D01*
X31400Y1400D01*
X31600Y1600D01*
X31600Y3600D01*
X31800Y3800D01*
X61400Y15200D02*
X61400Y12200D01*
X34400Y19200D02*
X34600Y19000D01*
X34800Y19000D01*
X18400Y5200D02*
X18400Y4400D01*
X18200Y4200D01*
X10100Y4200D01*
X10000Y4100D01*
X10000Y3700D01*
X9900Y3600D01*
X-10800Y3600D01*
X-11000Y3400D01*
X-11000Y1000D01*
X-10800Y800D01*
X-3800Y800D01*
X-3600Y600D01*
X-3600Y-1000D01*
X-3800Y-1200D01*
X-5800Y-1200D01*
X-6000Y-1400D01*
X-6000Y-3400D01*
X-6400Y-3400D01*
X14200Y3400D02*
X14000Y3600D01*
X10700Y3600D01*
X10600Y3500D01*
X10600Y-1200D01*
X10400Y-1400D01*
X-3000Y-1400D01*
X-3200Y-1200D01*
X62400Y17400D02*
X62400Y18400D01*
X63000Y-2800D02*
X54600Y-2800D01*
X54400Y-3000D01*
X54400Y-7100D01*
X54300Y-7200D01*
X39500Y-7200D01*
X39400Y-7100D01*
X39400Y-6400D01*
X39200Y-6200D01*
X36800Y-6200D01*
X36600Y-6000D01*
X36600Y-5400D01*
X36200Y-5400D01*
X22000Y4200D02*
X21800Y4000D01*
X10300Y4000D01*
X10200Y3900D01*
X10200Y3500D01*
X10100Y3400D01*
X-5600Y3400D01*
X-5800Y3200D01*
X-5800Y1600D01*
X-6200Y1600D01*
X49000Y0D02*
X49000Y-1800D01*
X49800Y1400D02*
X49600Y1600D01*
X49600Y2200D01*
X49200Y2200D01*
X51200Y2200D02*
X51200Y1400D01*
X49800Y1400D01*
X20200Y12800D02*
X20200Y12200D01*
X20000Y12000D01*
X18600Y12000D01*
X18400Y11800D01*
X18400Y11200D01*
X25800Y2200D02*
X25800Y1400D01*
X25600Y1200D01*
X21500Y1200D01*
X21400Y1100D01*
X21400Y-2400D01*
X21600Y-2600D01*
X23400Y-2600D01*
X23400Y-3000D01*
X23600Y-3000D01*
X16200Y12800D02*
X15200Y12800D01*
X3400Y-8400D02*
X2400Y-8400D01*
X61400Y12200D02*
X61400Y10000D01*
X37400Y12800D02*
X37000Y12800D01*
X37000Y14600D01*
X21200Y14200D02*
X21200Y9800D01*
X21000Y9600D01*
X16000Y9600D01*
X15800Y9400D01*
X15800Y7400D01*
X15400Y7400D01*
X14400Y2200D02*
X14400Y1600D01*
X14200Y1400D01*
X12300Y1400D01*
X12200Y1300D01*
X12200Y-3900D01*
X12100Y-4000D01*
X9500Y-4000D01*
X9400Y-4100D01*
X9400Y-6000D01*
X9200Y-6200D01*
X7600Y-6200D01*
X7400Y-6400D01*
X7400Y-7000D01*
X14400Y8200D02*
X10200Y8200D01*
X10000Y8000D01*
X10000Y4800D01*
X9800Y4600D01*
X6200Y4600D01*
X6000Y4800D01*
X6000Y5400D01*
X5600Y5400D01*
X55200Y-3200D02*
X61600Y-3200D01*
X61800Y-3400D01*
X61800Y-4600D01*
X64600Y-11800D02*
X64600Y-12200D01*
X64800Y-12400D01*
X66000Y-12400D01*
X-400Y-11800D02*
X-400Y-7600D01*
X59400Y17400D02*
X59200Y17400D01*
X58800Y17800D01*
X58800Y21000D01*
X59000Y21200D01*
X64300Y21200D01*
X64400Y21100D01*
X64400Y-5300D01*
X64300Y-5400D01*
X60400Y-5400D01*
X60200Y-5600D01*
X60200Y-8000D01*
X60000Y-8200D01*
X58000Y-8200D01*
X54200Y-8200D02*
X54200Y-7600D01*
X54000Y-7400D01*
X34200Y-7400D01*
X57000Y7200D02*
X57000Y29800D01*
X-25200Y800D02*
X-16800Y800D01*
X-16600Y1000D01*
X-16600Y1600D01*
X-16200Y1600D01*
X-7400Y9000D02*
X-7400Y8600D01*
X-7600Y8400D01*
X-7800Y8400D01*
X-8000Y8200D01*
X-8000Y6000D01*
X-8400Y6000D01*
X-18200Y-200D02*
X-18200Y400D01*
X-18400Y600D01*
X-20500Y600D01*
X-20600Y600D01*
X-20600Y500D01*
X-20800Y400D01*
X-26700Y400D01*
X-26800Y500D01*
X-26800Y800D01*
X20400Y7400D02*
X19400Y7400D01*
X18000Y-5400D02*
X18000Y-8400D01*
X57600Y8000D02*
X57400Y8200D01*
X57400Y20700D01*
X57500Y20800D01*
X58100Y20800D01*
X58200Y20700D01*
X58200Y19000D01*
X40000Y18800D02*
X41000Y18800D01*
X41200Y18600D01*
X41200Y13400D01*
X41000Y13200D01*
X51200Y1400D02*
X51600Y1400D01*
X51800Y1200D01*
X51800Y-2000D01*
X51600Y-2200D01*
X48700Y-2200D01*
X48600Y-2100D01*
X48600Y-1200D01*
X48400Y-1000D01*
X45600Y-1000D01*
X45400Y-800D01*
X45400Y0D01*
X45000Y0D01*
X13400Y5200D02*
X11800Y5200D01*
X18600Y18600D02*
X18600Y20000D01*
X18400Y20200D01*
X-20600Y20200D01*
X-20800Y20000D01*
X-20800Y18400D01*
X38200Y0D02*
X38200Y-800D01*
X38000Y-1000D01*
X36600Y-1000D01*
X31800Y-1200D02*
X29200Y-1200D01*
X29000Y-1000D01*
X29000Y0D01*
X28600Y0D01*
X20400Y5200D02*
X22200Y5200D01*
X22400Y5000D01*
X22400Y3900D01*
X22300Y3800D01*
X10500Y3800D01*
X10400Y3700D01*
X10400Y1800D01*
X10200Y1600D01*
X4600Y1600D01*
X4400Y1400D01*
X4400Y-200D01*
X4000Y-200D01*
X22000Y13400D02*
X21800Y13200D01*
X21800Y9100D01*
X21700Y9000D01*
X21400Y9000D01*
X21600Y15000D02*
X21600Y9600D01*
X21400Y9400D01*
X17000Y9400D01*
X16800Y9200D01*
X16800Y7400D01*
X16400Y7400D01*
X14200Y12800D02*
X14200Y13400D01*
X14000Y13600D01*
X12600Y13600D01*
X12400Y13800D01*
X12400Y16900D01*
X12300Y17000D01*
X4000Y17000D01*
X3800Y16800D01*
X3800Y15200D01*
X3400Y15200D01*
X59000Y-10000D02*
X65200Y-10000D01*
X-1600Y11200D02*
X1800Y11200D01*
X2000Y11000D01*
X2000Y10200D01*
X2400Y10200D01*
X26200Y12000D02*
X26200Y10400D01*
X-11200Y18200D02*
X-16400Y18200D01*
X-16600Y18400D01*
X-16600Y19000D01*
X-17000Y19000D01*
X-8800Y22000D02*
X-25800Y22000D01*
X-26000Y22200D01*
X-26000Y29800D01*
X-22200Y16400D02*
X-27200Y16400D01*
X-27400Y16600D01*
X-27400Y25200D01*
X-27600Y25400D01*
X-32800Y25400D01*
X-32800Y25800D01*
X-19200Y1600D02*
X-19200Y3500D01*
X-19300Y3600D01*
X-28200Y3600D01*
X-28400Y3800D01*
X-28400Y6600D01*
X-19200Y-8600D02*
X-19200Y-8000D01*
X-19400Y-7800D01*
X-20700Y-7800D01*
X-20800Y-7800D01*
X-20800Y-7900D01*
X-21000Y-8000D01*
X-25400Y-8000D01*
X-25600Y-8200D01*
X-25600Y-9800D01*
X-25800Y-10000D01*
X-33300Y-10000D01*
X-33400Y-9900D01*
X-33400Y1800D01*
X-33200Y2000D01*
X-32600Y2000D01*
X-32600Y2400D01*
X27600Y-3000D02*
X27800Y-2800D01*
X27800Y-1700D01*
X27700Y-1600D01*
X26200Y-1600D01*
X26000Y-1400D01*
X26000Y0D01*
X25600Y0D01*
X30600Y17800D02*
X31000Y17800D01*
X31200Y17600D01*
X31200Y13900D01*
X31100Y13800D01*
X30800Y13800D01*
X30600Y13600D01*
X30600Y12800D01*
X30200Y12800D01*
X44000Y-8400D02*
X44200Y-8400D01*
X44200Y-9600D01*
X44400Y-9800D01*
X46700Y-9800D01*
X46800Y-9800D01*
X46800Y-9700D01*
X47000Y-9600D01*
X54400Y-9600D01*
X54600Y-9400D01*
X54600Y-3800D01*
X54800Y-3600D01*
X59600Y-3600D01*
X37400Y9400D02*
X37200Y9200D01*
X34700Y9200D01*
X34600Y9300D01*
X34600Y9500D01*
X34500Y9600D01*
X31700Y9600D01*
X31600Y9700D01*
X31600Y17800D01*
X31800Y18000D01*
X29000Y-7200D02*
X21000Y-7200D01*
X10600Y-8800D02*
X10600Y-12200D01*
X10400Y-12400D01*
X-23400Y-12400D01*
X-23600Y-12200D01*
X-23600Y-10400D01*
X-23600Y20800D02*
X10200Y20800D01*
X37000Y-6600D02*
X33600Y-6600D01*
X33400Y-6400D01*
X33400Y-4800D01*
X33200Y-4600D01*
X11200Y-4600D01*
X11000Y-4800D01*
X13000Y-5400D02*
X13000Y-6800D01*
X12800Y-7000D01*
X9200Y-7000D01*
X9200Y-8400D02*
X9200Y-9000D01*
X9000Y-9200D01*
X5000Y-9200D01*
X4800Y-9000D01*
X4800Y-8400D01*
X4400Y-8400D01*
X35200Y2200D02*
X35200Y1600D01*
X35000Y1400D01*
X33200Y1400D01*
X33000Y1200D01*
X33000Y-1400D01*
X33200Y-1600D01*
X27400Y-2000D02*
X25200Y-2000D01*
X25000Y-2200D01*
X25000Y-3000D01*
X24600Y-3000D01*
X42200Y10200D02*
X42200Y11100D01*
X42300Y11200D01*
X42400Y11200D01*
X42600Y11400D01*
X42600Y24400D01*
X42400Y24600D01*
X41400Y24600D01*
X41200Y24400D01*
X41200Y23800D01*
X14800Y16800D02*
X22200Y16800D01*
X22400Y16600D01*
X22400Y13100D01*
X22300Y13000D01*
X22200Y13000D01*
X22000Y12800D01*
X22000Y8900D01*
X22100Y8800D01*
X22400Y8800D01*
X25400Y-1000D02*
X25400Y-1600D01*
X25200Y-1800D01*
X21800Y-1800D01*
X11400Y-2200D02*
X-2600Y-2200D01*
X-2800Y-2400D01*
X-2800Y-2800D01*
X32200Y11200D02*
X32200Y13400D01*
X31200Y13400D02*
X31400Y13600D01*
X31400Y21300D01*
X31500Y21400D01*
X31800Y21400D01*
X59000Y22200D02*
X65100Y22200D01*
X65200Y22100D01*
X65200Y-8400D01*
X65000Y-8600D01*
X64000Y-8600D01*
X64000Y-11800D02*
X64000Y-12400D01*
X63800Y-12600D01*
X11600Y-12600D01*
X11400Y-12400D01*
X11400Y-8400D01*
X11600Y1200D02*
X11300Y1200D01*
X11200Y1100D01*
X11200Y-1400D01*
X60400Y17400D02*
X60400Y17200D01*
X60000Y16800D01*
X59000Y16800D01*
X58800Y16600D01*
X58800Y6600D01*
X59000Y6400D01*
X59400Y6400D01*
X59600Y6200D01*
X59600Y-1700D01*
X59500Y-1800D01*
X55000Y-1800D01*
X44800Y-2000D02*
X33600Y-2000D01*
X33400Y-2200D01*
X33400Y-3600D01*
X33600Y-3800D01*
X34600Y-3800D01*
X34800Y-4000D01*
X34800Y-5400D01*
X35200Y-5400D01*
X6400Y12200D02*
X6400Y12600D01*
X6200Y12800D01*
X6000Y12800D01*
X5800Y13000D01*
X5800Y15200D01*
X5400Y15200D01*
X45000Y-3000D02*
X45000Y-3600D01*
X44800Y-3800D01*
X42200Y-3800D01*
X42000Y-4000D01*
X42000Y-5000D01*
X38800Y-7000D02*
X29600Y-7000D01*
X29400Y-6800D01*
X29400Y-5400D01*
X29000Y-5400D01*
X42600Y10800D02*
X42800Y11000D01*
X42800Y24700D01*
X42700Y24800D01*
X42600Y24800D01*
X42400Y25000D01*
X42400Y28600D01*
X-8000Y-6400D02*
X-17200Y-6400D01*
X-19200Y6000D02*
X-19200Y6600D01*
X-19400Y6800D01*
X-20600Y6800D01*
X-20800Y7000D01*
X-20800Y8400D01*
X-21000Y8600D01*
X-26600Y8600D01*
X-8400Y-5400D02*
X-8400Y-6000D01*
X-8600Y-6200D01*
X-13100Y-6200D01*
X-13200Y-6100D01*
X-13200Y-4600D01*
X-13400Y-4400D01*
X-32000Y-4400D01*
X-32200Y-4600D01*
X-32200Y-5200D01*
X-32600Y-5200D01*
X51000Y-3000D02*
X51000Y-3600D01*
X50800Y-3800D01*
X49400Y-3000D02*
X49000Y-3000D01*
X50800Y-3800D02*
X49400Y-3800D01*
X49400Y-3000D01*
X-1400Y-7400D02*
X-1400Y-5800D01*
X-11400Y-5800D02*
X-11400Y-400D01*
X-3600Y1200D02*
X-3600Y2000D01*
X-3400Y2200D01*
X-400Y2200D01*
X-200Y2400D01*
X-200Y3000D01*
X0Y3200D01*
X7800Y3200D01*
X8000Y3000D01*
X8000Y2000D01*
X-2600Y6000D02*
X-200Y6000D01*
X63400Y7000D02*
X63400Y6800D01*
X63000Y6400D01*
X62000Y6400D01*
X61800Y6600D01*
X61800Y6800D01*
X61600Y7000D01*
X61400Y7000D01*
X32600Y15400D02*
X32600Y11200D01*
X32800Y11000D01*
X34400Y11000D01*
X34400Y10600D01*
X-12400Y4200D02*
X-12400Y100D01*
X-12300Y0D01*
X-10400Y0D01*
X-10400Y-400D01*
X18600Y21600D02*
X18600Y22200D01*
X18400Y22400D01*
X-3400Y22400D01*
X-3600Y22200D01*
X-3600Y21800D01*
X38400Y9800D02*
X38800Y9800D01*
X39000Y9600D01*
X39000Y8900D01*
X38900Y8800D01*
X34300Y8800D01*
X34200Y8900D01*
X34200Y9000D01*
X34000Y9200D01*
X32500Y9200D01*
X32400Y9100D01*
X32400Y7500D01*
X32300Y7400D01*
X32000Y7400D01*
X23200Y9200D02*
X23200Y16800D01*
X23000Y17000D01*
X22500Y17000D01*
X22400Y17000D01*
X22400Y17100D01*
X22200Y17200D01*
X14200Y17200D01*
X11800Y21800D02*
X7800Y21800D01*
X7400Y21400D01*
X-26200Y21400D01*
X21400Y-11600D02*
X21400Y-7800D01*
X21200Y-7600D01*
X19600Y-7600D01*
X19400Y-7400D01*
X19400Y-5400D01*
X19000Y-5400D01*
X15400Y2200D02*
X15400Y1400D01*
X15200Y1200D01*
X12600Y1200D01*
X12400Y1000D01*
X12400Y-2400D01*
X12600Y-2600D01*
X13000Y-2600D01*
X13000Y-3000D01*
X13200Y-3000D01*
X38400Y12800D02*
X38400Y12200D01*
X38200Y12000D01*
X36000Y12000D01*
X35800Y12200D01*
X35800Y12800D01*
X35400Y12800D01*
X27200Y7400D02*
X27200Y8000D01*
X27000Y8200D01*
X24800Y8200D01*
X24600Y8000D01*
X24600Y7600D01*
X24200Y7600D01*
X24200Y7400D01*
X39400Y7600D02*
X39400Y6600D01*
X39600Y6400D01*
X42900Y6400D01*
X43000Y6300D01*
X43000Y2600D01*
X56800Y1400D02*
X56800Y400D01*
X56800Y-6200D02*
X56800Y-12200D01*
X56600Y-12400D01*
X11900Y-12400D01*
X11800Y-12300D01*
X11800Y-8100D01*
X11700Y-8000D01*
X8600Y-8000D01*
X-9400Y11000D02*
X-9400Y11600D01*
X-9600Y11800D01*
X-32000Y11800D01*
X-32200Y11600D01*
X-32200Y8400D01*
X-32600Y8400D01*
X-19200Y11000D02*
X-19200Y10400D01*
X-19400Y10200D01*
X-30400Y10200D01*
X-30600Y10000D01*
X-30600Y7000D01*
X-30800Y6800D01*
X-32600Y6800D01*
X-32600Y6400D01*
X-18200Y14000D02*
X-18200Y13400D01*
X-18400Y13200D01*
X-27400Y13200D01*
X30800Y2200D02*
X29800Y2200D01*
X-14200Y6000D02*
X-13600Y6000D01*
X-13400Y5800D01*
X-13400Y1600D01*
X-4000Y-7800D02*
X-4200Y-8000D01*
X-4400Y-8000D01*
X-4400Y-8400D01*
X30600Y-3000D02*
X30600Y-3600D01*
X30400Y-3800D01*
X28000Y-3000D02*
X27600Y-3000D01*
X30400Y-3800D02*
X28000Y-3800D01*
X28000Y-3000D01*
X32000Y5400D02*
X32000Y4800D01*
X31800Y4600D01*
X31400Y4600D01*
X31200Y4400D01*
X31200Y2200D01*
X30800Y2200D01*
X12600Y11200D02*
X12300Y11200D01*
X12200Y11300D01*
X12200Y11600D01*
X4400Y7200D02*
X3400Y7200D01*
X-10400Y19000D02*
X-10400Y18400D01*
X-10200Y18200D01*
X-3800Y18200D01*
X-3600Y18400D01*
X-3600Y19800D01*
X-3800Y20000D01*
X-19400Y20000D01*
X-19600Y19800D01*
X-19600Y19000D01*
X-20000Y19000D01*
X10000Y-9200D02*
X10000Y-12000D01*
X9800Y-12200D01*
X-2300Y-12200D01*
X-2400Y-12100D01*
X-2400Y-5000D01*
X-2600Y1800D02*
X-2400Y1600D01*
X3000Y1600D01*
X3200Y1800D01*
X3200Y2400D01*
X3600Y2400D01*
X20600Y11800D02*
X20000Y11800D01*
X19800Y11600D01*
X19800Y10400D01*
X19400Y10400D01*
X22000Y14000D02*
X22000Y15300D01*
X21900Y15400D01*
X21300Y15400D01*
X21200Y15300D01*
X21200Y15200D01*
X21000Y15000D01*
X19800Y15000D01*
X19600Y15200D01*
X19600Y15800D01*
X19200Y15800D01*
X48400Y7800D02*
X48400Y7200D01*
X48600Y7000D01*
X51400Y7000D01*
X51600Y7200D01*
X51600Y17600D01*
X51400Y17800D01*
X51000Y17800D01*
X55600Y-6000D02*
X55600Y-11400D01*
X55400Y-11600D01*
X25000Y-11600D01*
X1400Y-11800D02*
X1400Y-8400D01*
X35200Y-8400D02*
X35200Y-7800D01*
X35400Y-7600D01*
X40800Y-7600D01*
X41000Y-7800D01*
X41000Y-9800D01*
X58600Y-10800D02*
X65800Y-10800D01*
X66000Y-10600D01*
X66000Y32500D01*
X65900Y32600D01*
X-400Y32600D01*
X-600Y32400D01*
X-600Y27400D01*
X62400Y20400D02*
X62400Y20600D01*
X62800Y21000D01*
X64000Y21000D01*
X64200Y20800D01*
X64200Y-5100D01*
X64100Y-5200D01*
X58800Y-5200D01*
X58600Y-5400D01*
X58600Y-7800D01*
X53600Y-7800D02*
X53400Y-7600D01*
X42800Y-7600D01*
X42600Y-7800D01*
X33600Y-10800D02*
X54600Y-10800D01*
X54800Y-10600D01*
X54800Y-5400D01*
X55000Y-5200D01*
X57000Y-5200D01*
X57200Y-5400D01*
X57200Y-11000D01*
X57400Y-11200D01*
X66000Y-11200D01*
X66200Y-11000D01*
X66200Y32700D01*
X66100Y32800D01*
X-5200Y32800D01*
X-5400Y32600D01*
X-5400Y28600D01*
X36400Y12800D02*
X36400Y13400D01*
X36200Y13600D01*
X33800Y13600D01*
X33600Y13800D01*
X33600Y23600D01*
X33400Y23800D01*
X0Y23800D01*
X-200Y16000D02*
X-2000Y16000D01*
X-2200Y15800D01*
X-2200Y7000D01*
X-2000Y6800D01*
X-1600Y6800D01*
X-1600Y-1000D02*
X4400Y-1000D01*
X4600Y-800D01*
X4600Y-200D01*
X5000Y-200D01*
X39400Y12800D02*
X39400Y12000D01*
X39200Y11800D01*
X33600Y11800D01*
X33400Y12000D01*
X33400Y22400D01*
X33200Y22600D01*
X20200Y22600D01*
X20000Y22800D01*
X20000Y23000D01*
X19800Y23200D01*
X13900Y23200D01*
X13700Y23000D01*
X-2400Y23000D01*
X-3800Y17200D02*
X-4000Y17000D01*
X-4000Y16000D01*
X-4400Y16000D01*
X1400Y15200D02*
X1400Y17200D01*
X-3800Y17200D01*
X35000Y9600D02*
X34800Y9800D01*
X32000Y9800D01*
X31800Y10000D01*
X31800Y13700D01*
X31900Y13800D01*
X32000Y13800D01*
X32200Y14000D01*
X32200Y22200D01*
X32000Y22400D01*
X27600Y22400D01*
X24600Y21600D02*
X24600Y18600D01*
X61400Y20400D02*
X61400Y17400D01*
X32600Y16600D02*
X32600Y19100D01*
X32700Y19200D01*
X33000Y19200D01*
X34400Y19200D02*
X34400Y22600D01*
X-10400Y-400D02*
X-10400Y-1000D01*
X-10600Y-1200D01*
X-11000Y-1200D01*
X-11200Y-1400D01*
X-11200Y-4000D01*
X-10800Y-4400D01*
X-10800Y-5400D01*
X-10400Y-5400D01*
X37800Y-4000D02*
X35800Y-4000D01*
X35600Y-3800D01*
X35600Y-3000D01*
X35200Y-3000D01*
X-22200Y5000D02*
X-21900Y5000D01*
X-21800Y5100D01*
X-21800Y8200D01*
X-21800Y20400D02*
X23300Y20400D01*
X23400Y20300D01*
X23400Y18600D01*
X23600Y18600D01*
X28200Y7400D02*
X28200Y8200D01*
X28000Y8400D01*
X24500Y8400D01*
X24400Y8400D01*
X24400Y8300D01*
X24200Y8200D01*
X21000Y8200D01*
X13800Y8600D02*
X13600Y8400D01*
X11600Y8400D01*
X11400Y8600D01*
X11400Y12200D01*
X10400Y12200D02*
X10400Y10300D01*
X10300Y10200D01*
X10000Y10200D01*
X9800Y10000D01*
X9800Y9000D01*
X10000Y8800D01*
X10200Y-3600D02*
X11800Y-3600D01*
X42200Y14600D02*
X42200Y23600D01*
X10800Y15800D02*
X10800Y9600D01*
X10600Y9400D01*
X10200Y9400D01*
X9400Y-3000D02*
X9200Y-3200D01*
X9200Y-3800D01*
X9000Y-4000D01*
X4000Y-4000D01*
X3800Y-4200D01*
X3800Y-5400D01*
X3400Y-5400D01*
X46400Y12800D02*
X46400Y12200D01*
X46200Y12000D01*
X43400Y12000D01*
X43200Y12200D01*
X43200Y29400D01*
X43000Y29600D01*
X-25200Y-10000D02*
X-3000Y-10000D01*
X-2800Y-9800D01*
X-2800Y-6000D01*
X56200Y4200D02*
X56400Y4400D01*
X56400Y31500D01*
X56300Y31600D01*
X39200Y31600D01*
X39000Y31400D01*
X39000Y28200D01*
X-1400Y8000D02*
X-1400Y7700D01*
X-1300Y7600D01*
X200Y7600D01*
X200Y7200D01*
X400Y7200D01*
X50200Y5200D02*
X50200Y5800D01*
X50400Y6000D01*
X52200Y6000D01*
X52400Y6200D01*
X52400Y8100D01*
X52300Y8200D01*
X52200Y8200D01*
X52000Y8400D01*
X52000Y25900D01*
X51900Y26000D01*
X51600Y26000D01*
X10000Y16000D02*
X9600Y16000D01*
X9400Y15800D01*
X9400Y9400D01*
X9200Y9200D01*
X8600Y9200D01*
X63600Y-3200D02*
X63600Y-2600D01*
X63400Y-2400D01*
X54400Y-2400D01*
X54200Y-2600D01*
X54200Y-6800D01*
X54000Y-7000D01*
X39800Y-7000D01*
X39600Y-6800D01*
X39600Y-5400D01*
X39200Y-5400D01*
X53200Y6600D02*
X53200Y20300D01*
X53200Y20400D01*
X53100Y20400D01*
X53000Y20600D01*
X53000Y31000D01*
X52800Y31200D01*
X39800Y31200D01*
X39600Y31000D01*
X39600Y25800D01*
X39400Y25600D01*
X1000Y25600D01*
X1000Y16800D02*
X800Y17000D01*
X-3000Y17000D01*
X-3200Y16800D01*
X-3200Y4800D01*
X27200Y12800D02*
X27200Y13200D01*
X27000Y13400D01*
X26800Y13400D01*
X26600Y13600D01*
X26600Y15800D01*
X26200Y15800D01*
X49200Y5200D02*
X49200Y4600D01*
X49000Y4400D01*
X45800Y4400D01*
X45600Y4200D01*
X45600Y2200D01*
X45200Y2200D01*
X41600Y4200D02*
X41600Y5800D01*
X41400Y6000D01*
X32300Y6000D01*
X32200Y6100D01*
X32200Y6400D01*
X32000Y6600D01*
X26900Y6600D01*
X26600Y6900D01*
X26600Y7400D01*
X26200Y7400D01*
X46200Y2200D02*
X46200Y1600D01*
X46400Y1400D01*
X49100Y1400D01*
X49200Y1300D01*
X49200Y1100D01*
X49300Y1000D01*
X49600Y1000D01*
X55000Y5400D02*
X55200Y5600D01*
X55200Y18100D01*
X55100Y18200D01*
X54800Y18200D01*
X-32400Y-6400D02*
X-32600Y-6200D01*
X-17200Y-5600D02*
X-17200Y-6400D01*
X-32400Y-6400D01*
X-13600Y-4000D02*
X-20800Y-4000D01*
X-21000Y-3800D01*
X-21000Y-2800D01*
X-21200Y-2600D01*
X-32600Y-2600D01*
X-32600Y-2200D01*
X-9400Y-8400D02*
X-9400Y-6800D01*
X-9600Y-6600D01*
X-26000Y-6600D01*
X-26200Y-6800D01*
X-26200Y-9600D01*
X-26400Y-9800D01*
X-33000Y-9800D01*
X-33200Y-9600D01*
X-33200Y-4800D01*
X-33000Y-4600D01*
X-32600Y-4600D01*
X-32600Y-4200D01*
X31800Y200D02*
X31800Y1000D01*
X30600Y1000D01*
X63400Y12200D02*
X63200Y12200D01*
X63000Y12000D01*
X63000Y10800D01*
X57600Y10800D02*
X57400Y10800D01*
X14600Y18600D02*
X14600Y19200D01*
X14400Y19400D01*
X5000Y19400D01*
X4800Y19200D01*
X4800Y17600D01*
X4600Y17400D01*
X-12600Y17400D01*
X57800Y20400D02*
X57800Y18700D01*
X57900Y18600D01*
X58000Y18600D01*
X58200Y18400D01*
X58200Y1000D01*
X58400Y800D01*
X55200Y-7000D02*
X55200Y-11200D01*
X55000Y-11400D01*
X25600Y-11400D01*
X25400Y-11200D01*
X25400Y-8400D01*
X25000Y-8400D01*
X14000Y-5400D02*
X14000Y-8400D01*
X36200Y5200D02*
X36200Y4600D01*
X36000Y4400D01*
X35400Y4400D01*
X35200Y4200D01*
X35200Y3400D01*
X35000Y3200D01*
X32800Y3200D01*
X32600Y3000D01*
X32600Y-3800D01*
X32400Y-4000D01*
X21800Y-4000D01*
X21600Y-3800D01*
X20800Y-3800D02*
X18800Y-3800D01*
X18600Y-3600D01*
X18600Y-3000D01*
X18200Y-3000D01*
X11800Y200D02*
X12000Y0D01*
X12000Y-1600D01*
X11800Y-1800D01*
X-3000Y-1800D01*
X-3200Y-2000D01*
X-3200Y-4000D01*
X-3400Y-4200D01*
X-4800Y-4200D01*
X-5000Y-4400D01*
X-5000Y-5400D01*
X-5400Y-5400D01*
X14400Y10400D02*
X14400Y7400D01*
X18200Y12800D02*
X18200Y12200D01*
X18000Y12000D01*
X12400Y12000D01*
X12200Y12200D01*
X12200Y16600D01*
X12000Y16800D01*
X7000Y16800D01*
X6800Y16600D01*
X6800Y15200D01*
X6400Y15200D01*
X50400Y12800D02*
X51200Y12800D01*
X51400Y13000D01*
X51400Y16700D01*
X51300Y16800D01*
X50800Y16800D01*
X50600Y17000D01*
X50600Y29200D01*
X-24800Y-8800D02*
X-24800Y-9700D01*
X-24700Y-9800D01*
X-3600Y-9800D01*
X-3400Y-9600D01*
X-3400Y-4800D01*
X-3200Y-4600D01*
X1800Y-4600D01*
X2000Y-4800D01*
X2000Y-5400D01*
X2400Y-5400D01*
X-13600Y15200D02*
X-13800Y15000D01*
X-27900Y15000D01*
X-28000Y14900D01*
X-28000Y14600D01*
X-28200Y14400D01*
X-32800Y14400D01*
X-32800Y14000D01*
X41800Y12800D02*
X41600Y13000D01*
X41600Y19100D01*
X41500Y19200D01*
X41000Y19200D01*
X40800Y19400D01*
X40800Y29800D01*
X46000Y0D02*
X46000Y800D01*
X45800Y1000D01*
X43600Y1000D01*
X43400Y1200D01*
X43400Y2900D01*
X43400Y3000D01*
X43300Y3000D01*
X43200Y3200D01*
X43200Y6500D01*
X43100Y6600D01*
X41300Y6600D01*
X41200Y6700D01*
X41200Y8400D01*
X41000Y8600D01*
X40600Y8600D01*
X38600Y9200D02*
X38400Y9000D01*
X34500Y9000D01*
X34400Y9100D01*
X34400Y9300D01*
X34300Y9400D01*
X32200Y9400D01*
X32000Y9200D01*
X32000Y8200D01*
X48200Y2200D02*
X48200Y2800D01*
X48400Y3000D01*
X49200Y3000D01*
X49400Y3200D01*
X49400Y4200D01*
X49600Y4400D01*
X52400Y4400D01*
X52600Y4600D01*
X52600Y14200D01*
X52400Y14400D01*
X-7400Y-5400D02*
X-7400Y-5000D01*
X-7600Y-4800D01*
X-7800Y-4800D01*
X-8000Y-4600D01*
X-8000Y-3400D01*
X-8400Y-3400D01*
X-7400Y-400D02*
X-7400Y200D01*
X-7600Y400D01*
X-10700Y400D01*
X-10800Y400D01*
X-10800Y300D01*
X-11000Y200D01*
X-12100Y200D01*
X-12200Y300D01*
X-12200Y1000D01*
X-12000Y1200D01*
X-12000Y9600D01*
X-11800Y9800D01*
X-9000Y9800D01*
X-8800Y10000D01*
X-8800Y11000D01*
X-8400Y11000D01*
X-19600Y3200D02*
X-28600Y3200D01*
X-28800Y3400D01*
X-28800Y7200D01*
X-29000Y7400D01*
X-30200Y7400D01*
X58600Y1800D02*
X58600Y23100D01*
X58500Y23200D01*
X58200Y23200D01*
X47000Y-5400D02*
X47000Y-4800D01*
X47200Y-4600D01*
X52400Y-4600D01*
X52600Y-4400D01*
X52600Y1500D01*
X52700Y1600D01*
X55200Y1600D01*
X55400Y1800D01*
X55400Y20600D01*
X24200Y15800D02*
X23600Y15800D01*
X23400Y15600D01*
X23400Y11000D01*
X23600Y10800D01*
X24200Y10800D01*
X24200Y10400D01*
X14200Y22800D02*
X14000Y22600D01*
X-11400Y22600D01*
X-11600Y22400D01*
X26600Y18600D02*
X27000Y18600D01*
X27000Y20000D01*
X34000Y20000D02*
X34000Y24000D01*
X33800Y24200D01*
X7600Y24200D01*
X7600Y27000D02*
X-5600Y27000D01*
X-5800Y27200D01*
X-5800Y31200D01*
X-6000Y31400D01*
X-33400Y31400D01*
X-33600Y31200D01*
X-33600Y-12400D01*
X-33400Y-12600D01*
X10800Y-12600D01*
X11000Y-12400D01*
X11000Y-9600D01*
X32200Y1000D02*
X32200Y-1500D01*
X32100Y-1600D01*
X29200Y-1600D01*
X29000Y-1800D01*
X29000Y-3000D01*
X28600Y-3000D01*
X11600Y4600D02*
X11800Y4400D01*
X14800Y4400D01*
X15000Y4600D01*
X15000Y5200D01*
X15400Y5200D01*
X45400Y14600D02*
X45400Y15800D01*
X55800Y20000D02*
X55600Y19800D01*
X55600Y1500D01*
X55500Y1400D01*
X53000Y1400D01*
X52800Y1200D01*
X52800Y-6000D01*
X52600Y-6200D01*
X41700Y-6200D01*
X41600Y-6100D01*
X41600Y-5800D01*
X31200Y-11000D02*
X26400Y-11000D01*
X29200Y10400D02*
X29200Y9800D01*
X29000Y9600D01*
X26800Y9600D01*
X26600Y9800D01*
X26600Y10400D01*
X26200Y10400D01*
X42600Y6000D02*
X42400Y6200D01*
X32800Y6200D01*
X32600Y6400D01*
X30800Y9200D02*
X31000Y9400D01*
X31000Y11000D01*
X30800Y11200D01*
X29800Y11200D01*
X29600Y11400D01*
X29600Y12800D01*
X29200Y12800D01*
X17600Y-2200D02*
X15800Y-2200D01*
X15600Y-2000D01*
X15600Y0D01*
X15200Y0D01*
X42600Y-3000D02*
X40200Y-3000D01*
X19600Y18600D02*
X19600Y18000D01*
X19400Y17800D01*
X13100Y17800D01*
X12900Y18000D01*
X5200Y18000D01*
X5000Y17800D01*
X5000Y17300D01*
X4900Y17200D01*
X1400Y17200D01*
X20200Y22400D02*
X20000Y22200D01*
X20000Y21600D01*
X19600Y21600D01*
X27600Y21600D02*
X27600Y22400D01*
X20200Y22400D01*
X2400Y-8400D02*
X2400Y-7800D01*
X2200Y-7600D01*
X1000Y-7600D01*
X800Y-7400D01*
X800Y-5400D01*
X400Y-5400D01*
X28200Y15800D02*
X28200Y15000D01*
X28000Y14800D01*
X27000Y14800D01*
X11800Y14200D02*
X11800Y9000D01*
X12000Y8800D01*
X13000Y8800D01*
X53600Y6000D02*
X53600Y24600D01*
X53400Y24800D01*
X10600Y16400D02*
X8800Y16400D01*
X8600Y16200D01*
X8600Y10400D01*
X49000Y0D02*
X49000Y1000D01*
X48800Y1200D01*
X45800Y1200D01*
X45600Y1400D01*
X45600Y2200D01*
X45200Y2200D01*
X-9400Y16000D02*
X-9400Y16800D01*
X-9600Y17000D01*
X-26800Y17000D01*
X-27000Y17200D01*
X-27000Y30200D01*
X-27200Y30400D01*
X-32800Y30400D01*
X-32800Y30800D01*
X-7400Y19000D02*
X-7400Y19600D01*
X-7600Y19800D01*
X-11000Y19800D01*
X-11200Y19600D01*
X-11200Y18000D01*
X-11000Y17800D01*
X-8400Y17800D01*
X-8000Y13200D02*
X-16600Y13200D01*
X-16800Y13400D01*
X-16800Y14000D01*
X-17200Y14000D01*
X-19200Y-3200D02*
X-19200Y-2600D01*
X-19400Y-2400D01*
X-29600Y-2400D01*
X-29800Y-2200D01*
X-29800Y3800D01*
X-30000Y4000D01*
X-32600Y4000D01*
X-32600Y4400D01*
X-13400Y-2600D02*
X-13600Y-2800D01*
X-14200Y-2800D01*
X-14200Y-3200D01*
X-14200Y1600D02*
X-13400Y1600D01*
X-13400Y-2600D01*
X24600Y20600D02*
X10400Y20600D01*
X10200Y20800D01*
X9800Y15400D02*
X9600Y15200D01*
X9600Y5800D01*
X9400Y5600D01*
X7600Y5600D01*
X3400Y7200D02*
X2400Y7200D01*
X-20200Y14000D02*
X-20200Y14400D01*
X-27400Y14400D01*
X-29200Y14800D02*
X-32600Y14800D01*
X-32800Y15000D01*
X15200Y12800D02*
X15200Y13600D01*
X15000Y13800D01*
X13800Y13800D01*
X13600Y14000D01*
X13600Y15800D01*
X13200Y15800D01*
X15200Y-3000D02*
X15200Y-1400D01*
X15000Y-1200D01*
X13800Y-1200D01*
X13600Y-1000D01*
X13600Y0D01*
X13200Y0D01*
X-20200Y9000D02*
X-26900Y9000D01*
X-27000Y8900D01*
X-27000Y4600D01*
X-26800Y4400D01*
X-22400Y4400D01*
X-22200Y4200D01*
X29800Y5200D02*
X29800Y3600D01*
X29600Y3400D01*
X27600Y3400D01*
X22200Y-5000D02*
X22200Y-5300D01*
X22100Y-5400D01*
X21000Y-5400D01*
X33200Y5400D02*
X32900Y5400D01*
X32800Y5300D01*
X32800Y4600D01*
X30800Y4200D02*
X30800Y3200D01*
X30600Y3000D01*
X24400Y3000D01*
X24200Y2800D01*
X24200Y2400D01*
X23800Y2400D01*
X23800Y2200D01*
X28800Y5200D02*
X28800Y4600D01*
X28600Y4400D01*
X23000Y4400D01*
X22800Y4200D01*
X22800Y3200D01*
X22600Y3000D01*
X13900Y3000D01*
X13800Y3100D01*
X13800Y3200D01*
X13600Y3400D01*
X11000Y3400D01*
X10800Y3200D01*
X10800Y-1500D01*
X10700Y-1600D01*
X-5000Y-1600D01*
X24800Y2200D02*
X24800Y1600D01*
X24600Y1400D01*
X21300Y1400D01*
X21200Y1300D01*
X21200Y-4100D01*
X21100Y-4200D01*
X10000Y-4200D01*
X9800Y-4400D01*
X49400Y7800D02*
X49400Y8600D01*
X49200Y8800D01*
X43200Y8800D01*
X43000Y9000D01*
X43000Y25400D01*
X42800Y25600D01*
X9800Y17400D02*
X13600Y17400D01*
X13800Y17200D01*
X13800Y15800D01*
X14200Y15800D01*
X63400Y20400D02*
X63600Y20400D01*
X64000Y20000D01*
X64000Y-4800D01*
X63800Y-5000D01*
X57800Y-5000D01*
X57600Y-5200D01*
X57600Y-10600D01*
X29200Y15800D02*
X29200Y16400D01*
X29000Y16600D01*
X26600Y15800D02*
X26200Y15800D01*
X29000Y16600D02*
X26600Y16600D01*
X26600Y15800D01*
X27200Y12800D02*
X27200Y12200D01*
X27000Y12000D01*
X24800Y12000D01*
X24600Y12200D01*
X24600Y12600D01*
X24200Y12600D01*
X24200Y12800D01*
X-19000Y16000D02*
X-19000Y16600D01*
X-19200Y16800D01*
X-27100Y16800D01*
X-27200Y16900D01*
X-27200Y28200D01*
X-27400Y28400D01*
X-32800Y28400D01*
X-32800Y28800D01*
X29800Y2200D02*
X29400Y2200D01*
X29400Y1200D01*
X29200Y1000D01*
X27600Y1000D01*
X20200Y-3000D02*
X20200Y-2400D01*
X20000Y-2200D01*
X17600Y-3000D02*
X17200Y-3000D01*
X20000Y-2200D02*
X17600Y-2200D01*
X17600Y-3000D01*
X-1400Y-7400D02*
X-1600Y-7600D01*
X-1800Y-7600D01*
X-2000Y-7800D01*
X45000Y0D02*
X45000Y600D01*
X44800Y800D01*
X43300Y800D01*
X43200Y900D01*
X43200Y2000D01*
X43000Y2200D01*
X40200Y2200D01*
X17200Y12800D02*
X16200Y12800D01*
X-20200Y4600D02*
X-20200Y4200D01*
X-22200Y4200D01*
X1000Y-200D02*
X1000Y200D01*
X800Y400D01*
X-3200Y400D01*
X23800Y5200D02*
X23800Y5800D01*
X23600Y6000D01*
X14000Y6000D01*
X13800Y5800D01*
X13800Y5200D01*
X13400Y5200D01*
X44000Y-3000D02*
X43800Y-3000D01*
X43800Y-2600D01*
X43600Y-2400D01*
X41000Y-2400D01*
X32000Y-9200D02*
X26600Y-9200D01*
X26400Y-9400D01*
X26400Y-10200D01*
X400Y-10000D02*
X400Y-8400D01*
X56400Y-5600D02*
X56400Y-12000D01*
X56200Y-12200D01*
X12100Y-12200D01*
X12000Y-12100D01*
X12000Y-7800D01*
X11800Y-7600D01*
X6000Y-7600D01*
X5800Y-7800D01*
X5800Y-8400D01*
X5400Y-8400D01*
X45400Y12800D02*
X45400Y13400D01*
X45200Y13600D01*
X43500Y13600D01*
X43400Y13700D01*
X43400Y30400D01*
X43200Y30600D01*
X39900Y30600D01*
X39800Y30500D01*
X39800Y25400D01*
X39600Y25200D01*
X-3200Y25200D01*
X34200Y-8400D02*
X34000Y-8400D01*
X34000Y-9400D01*
X33800Y-9600D01*
X27600Y-9600D01*
X65400Y32000D02*
X38200Y32000D01*
X38000Y31800D01*
X38000Y26600D01*
X37800Y26400D01*
X7000Y26400D01*
X8000Y16000D02*
X8200Y15800D01*
X8200Y11900D01*
X8000Y11700D01*
X8000Y11400D01*
X7800Y11200D01*
X4000Y11200D01*
X3800Y11000D01*
X3800Y10200D01*
X3400Y10200D01*
X36200Y2200D02*
X36200Y2800D01*
X36400Y3000D01*
X41900Y3000D01*
X42000Y3100D01*
X42000Y3400D01*
X54400Y4200D02*
X54200Y4400D01*
X54200Y28000D01*
X54000Y28200D01*
X34200Y2200D02*
X34200Y2000D01*
X33000Y2000D01*
X32800Y1800D01*
X32800Y-4200D01*
X32600Y-4400D01*
X10700Y-4400D01*
X10600Y-4500D01*
X10600Y-6400D01*
X10400Y-6600D01*
X8000Y-6600D01*
X-12800Y-5800D02*
X-12800Y6600D01*
X-13000Y6800D01*
X-15600Y6800D01*
X-15800Y6600D01*
X-15800Y6000D01*
X-16200Y6000D01*
X52200Y-3800D02*
X52200Y1600D01*
X52400Y1800D01*
X54600Y1800D01*
X54800Y2000D01*
X54800Y4500D01*
X54700Y4600D01*
X54600Y4600D01*
X54400Y4800D01*
X54400Y30300D01*
X54300Y30400D01*
X54000Y30400D01*
X-32600Y12000D02*
X-32400Y12200D01*
X-11200Y12200D01*
X22400Y17600D02*
X22400Y20000D01*
X52800Y20000D02*
X52800Y4200D01*
X52600Y4000D01*
X51000Y4000D01*
X-7400Y-5400D02*
X-7400Y-5800D01*
X-7600Y-6000D01*
X-7800Y-6000D01*
X-8000Y-6200D01*
X-8000Y-8400D01*
X-8400Y-8400D01*
X28600Y21600D02*
X28600Y18600D01*
X49000Y-3000D02*
X49000Y-2200D01*
X12600Y9600D02*
X12800Y9400D01*
X13400Y9400D01*
X18400Y10400D02*
X18400Y11200D01*
X12600Y11200D01*
X12600Y9600D01*
X26600Y0D02*
X26600Y600D01*
X26400Y800D01*
X21800Y800D01*
X20400Y23200D02*
X20200Y23400D01*
X13700Y23400D01*
X13600Y23400D01*
X13600Y23300D01*
X13400Y23200D01*
X-800Y23200D01*
X-1000Y23400D01*
X61400Y10000D02*
X61400Y7000D01*
X48000Y-6600D02*
X45400Y-6600D01*
X17200Y0D02*
X17200Y600D01*
X17000Y800D01*
X13800Y800D01*
X13600Y600D01*
X13600Y0D01*
X13200Y0D01*
X-10200Y4600D02*
X-11000Y4600D01*
X-11200Y4800D01*
X-11200Y8400D01*
X-11000Y8600D01*
X-10400Y8600D01*
X-10400Y9000D01*
X20800Y-1200D02*
X20800Y-2200D01*
X29200Y4000D02*
X23200Y4000D01*
X23000Y3800D01*
X23000Y2000D01*
X22800Y1800D01*
X21200Y1800D01*
X20800Y1400D01*
X18800Y1400D01*
X18600Y1200D01*
X18600Y0D01*
X18200Y0D01*
X40200Y5200D02*
X40200Y4000D01*
X40000Y3800D01*
X38600Y3800D01*
X32400Y3800D02*
X32400Y5700D01*
X32300Y5800D01*
X31300Y5800D01*
X31100Y6000D01*
X26500Y6000D01*
X26400Y6100D01*
X26400Y6200D01*
X26200Y6400D01*
X12100Y6400D01*
X12000Y6300D01*
X12000Y6000D01*
X12000Y3000D02*
X12000Y900D01*
X11900Y800D01*
X11600Y800D01*
X11400Y600D01*
X11400Y-400D01*
X11600Y-600D01*
X44400Y7800D02*
X44600Y7800D01*
X44600Y7000D01*
X44800Y6800D01*
X51900Y6800D01*
X52000Y6900D01*
X52000Y7200D01*
X54800Y7400D02*
X54800Y17600D01*
X47400Y12800D02*
X47400Y13600D01*
X47200Y13800D01*
X43800Y13800D01*
X43600Y14000D01*
X43600Y30000D01*
X43800Y30200D01*
X49800Y30200D01*
X-25800Y-7600D02*
X-25800Y-7000D01*
X-25600Y-6800D01*
X-13400Y-6800D01*
X-13200Y-7000D01*
X44800Y14600D02*
X44800Y15800D01*
X44400Y15800D01*
X54000Y3400D02*
X54000Y26200D01*
X53800Y26400D01*
X53400Y26400D01*
X9000Y15800D02*
X9000Y9800D01*
X59600Y-10400D02*
X65600Y-10400D01*
X65800Y-10200D01*
X65800Y32300D01*
X65700Y32400D01*
X8400Y32400D01*
X8200Y32200D01*
X8200Y26800D01*
X60600Y-7600D02*
X64400Y-7600D01*
X64600Y-7400D01*
X64600Y21300D01*
X64500Y21400D01*
X63900Y21400D01*
X63800Y21500D01*
X63800Y21800D01*
X39600Y21800D02*
X39600Y24600D01*
X39400Y24800D01*
X-11200Y24800D01*
X6600Y5400D02*
X6600Y5800D01*
X6800Y6000D01*
X8000Y6000D01*
X8200Y6200D01*
X8200Y8200D01*
X8000Y8400D01*
X-1800Y8400D01*
X-2000Y8600D01*
X-2000Y11500D01*
X-1900Y11600D01*
X-1200Y11600D01*
X-1000Y11400D01*
X1800Y11400D01*
X41400Y12000D02*
X41400Y18900D01*
X41300Y19000D01*
X40600Y19000D01*
X40400Y19200D01*
X40400Y30000D01*
X40200Y30200D01*
X-24400Y-9400D02*
X-3700Y-9400D01*
X-3600Y-9300D01*
X-3600Y-4500D01*
X-3500Y-4400D01*
X2400Y-4400D01*
X2600Y-4200D01*
X2600Y-3200D01*
X3000Y-3200D01*
X-7400Y14000D02*
X-7400Y13600D01*
X-7600Y13400D01*
X-7800Y13400D01*
X-8000Y13200D01*
X-8000Y11000D01*
X-8400Y11000D01*
X-18200Y4600D02*
X-18200Y4000D01*
X-18400Y3800D01*
X-27600Y3800D01*
X-27800Y4000D01*
X-27800Y6200D01*
X-21600Y-3200D02*
X-32600Y-3200D01*
G54D12*
X-35300Y-13100D02*
X-35300Y-8390D01*
X-35300Y-13100D02*
X-25080Y-13100D01*
X66900Y-13100D02*
X56680Y-13100D01*
X66900Y-13100D02*
X66900Y-8390D01*
X66900Y34004D02*
X66900Y29294D01*
X66900Y34004D02*
X56680Y34004D01*
X-35300Y34004D02*
X-25080Y34004D01*
X-35300Y34004D02*
X-35300Y29294D01*
X-37269Y-13100D02*
X-41206Y-13100D01*
X-39237Y-15069D02*
X-39237Y-11131D01*
X-40714Y-13100D02*
G75*
D01*
G02X-40714Y-13100I1477J0*
G01*
X68869Y-13100D02*
X72806Y-13100D01*
X70837Y-15069D02*
X70837Y-11131D01*
X69361Y-13100D02*
G75*
D01*
G02X69361Y-13100I1476J0*
G01*
X70345Y-13100D02*
G75*
D01*
G02X70345Y-13100I492J0*
G01*
X-37269Y34004D02*
X-41206Y34004D01*
X-39237Y32035D02*
X-39237Y35972D01*
X-40714Y34004D02*
G75*
D01*
G02X-40714Y34004I1477J0*
G01*
X-40221Y34004D02*
G75*
D01*
G02X-40221Y34004I984J0*
G01*
X-39729Y34004D02*
G75*
D01*
G02X-39729Y34004I492J0*
G01*
G54D13*
X-32600Y-2200D03*
X-32600Y-3200D03*
X-32600Y-4200D03*
X-32600Y-5200D03*
X-32600Y-6200D03*
X-32600Y-7200D03*
X-32600Y-8200D03*
X-32600Y-9200D03*
X-32600Y8400D03*
X-32600Y7400D03*
X-32600Y6400D03*
X-32600Y5400D03*
X-32600Y4400D03*
X-32600Y3400D03*
X-32600Y2400D03*
X-32600Y1400D03*
X-32800Y20000D03*
X-32800Y19000D03*
X-32800Y18000D03*
X-32800Y17000D03*
X-32800Y16000D03*
X-32800Y15000D03*
X-32800Y14000D03*
X-32800Y13000D03*
X-32800Y30800D03*
X-32800Y29800D03*
X-32800Y28800D03*
X-32800Y27800D03*
X-32800Y26800D03*
X-32800Y25800D03*
X-32800Y24800D03*
X-32800Y23800D03*
G54D14*
X60400Y10000D03*
X60400Y7000D03*
X63400Y10000D03*
X62400Y10000D03*
X61400Y10000D03*
X62400Y7000D03*
X63400Y7000D03*
X61400Y7000D03*
X59400Y10000D03*
X59400Y7000D03*
X60400Y15200D03*
X60400Y12200D03*
X63400Y15200D03*
X62400Y15200D03*
X61400Y15200D03*
X62400Y12200D03*
X63400Y12200D03*
X61400Y12200D03*
X59400Y15200D03*
X59400Y12200D03*
X60400Y20400D03*
X60400Y17400D03*
X63400Y20400D03*
X62400Y20400D03*
X61400Y20400D03*
X62400Y17400D03*
X63400Y17400D03*
X61400Y17400D03*
X59400Y20400D03*
X59400Y17400D03*
G54D15*
X27000Y20000D03*
X34000Y20000D03*
X7600Y24200D03*
X7600Y27000D03*
X11000Y-9600D03*
X32200Y11200D03*
X32200Y13400D03*
X31200Y13400D03*
X31800Y21400D03*
X59000Y22200D03*
X64000Y-8600D03*
X64000Y-11800D03*
X11400Y-8400D03*
X7400Y-7000D03*
X52000Y7800D03*
X51600Y19600D03*
X-3200Y25200D03*
X58600Y1800D03*
X58200Y23200D03*
X41000Y-9800D03*
X58600Y-10800D03*
X-600Y27400D03*
X41800Y12800D03*
X40800Y29800D03*
X59200Y-1400D03*
X57400Y25200D03*
X10600Y19800D03*
X-8400Y7800D03*
X-22800Y16000D03*
X-20800Y18400D03*
X23200Y9200D03*
X14200Y17200D03*
X11800Y21800D03*
X-26200Y21400D03*
X21400Y-11600D03*
X42800Y25600D03*
X9800Y17400D03*
X49800Y30800D03*
X-25200Y-7200D03*
X-13200Y-8200D03*
X59600Y-10400D03*
X8200Y26800D03*
X8000Y-6600D03*
X-12800Y-5800D03*
X-2400Y23000D03*
X-3600Y21800D03*
X-11800Y600D03*
X52000Y7200D03*
X54800Y7400D03*
X54800Y17600D03*
X56400Y-5600D03*
X53600Y6000D03*
X53400Y24800D03*
X10600Y16400D03*
X8600Y10400D03*
X33600Y-10800D03*
X-5400Y28600D03*
X42600Y10800D03*
X42400Y28600D03*
X-27600Y-4800D03*
X21000Y-8200D03*
X35600Y3200D03*
X14200Y-1600D03*
X55200Y-3200D03*
X61800Y-4600D03*
X64600Y-11800D03*
X66000Y-12400D03*
X-400Y-11800D03*
X-400Y-7600D03*
X44800Y14600D03*
X58000Y-8200D03*
X54200Y-8200D03*
X34200Y-7400D03*
X21400Y-6400D03*
X10000Y10600D03*
X10000Y11600D03*
X31800Y3800D03*
X52400Y14400D03*
X37000Y-6600D03*
X11000Y-4800D03*
X32200Y1000D03*
X27000Y14800D03*
X11800Y14200D03*
X13000Y8800D03*
X57600Y-10600D03*
X61800Y-8000D03*
X64800Y21800D03*
X37400Y9400D03*
X31800Y18000D03*
X21400Y18000D03*
X21400Y19800D03*
X33000Y12200D03*
X-19600Y3200D03*
X-30200Y7400D03*
X36600Y-1000D03*
X31800Y-1200D03*
X20600Y11800D03*
X55800Y20000D03*
X41600Y-5800D03*
X53200Y6600D03*
X1000Y25600D03*
X1000Y16800D03*
X-3200Y4800D03*
X59600Y-3600D03*
X40600Y8600D03*
X38600Y9200D03*
X32000Y8200D03*
X31600Y6200D03*
X10400Y5400D03*
X10400Y-2600D03*
X-8800Y22000D03*
X-26000Y29800D03*
X-26600Y8600D03*
X23200Y-11400D03*
X-23600Y23800D03*
X26600Y23000D03*
X20800Y-1200D03*
X20800Y-2200D03*
X14200Y3400D03*
X-3200Y-1200D03*
X41800Y24200D03*
X43000Y29600D03*
X-25200Y-10000D03*
X-2800Y-6000D03*
X27000Y-10600D03*
X-5000Y3000D03*
X-600Y3000D03*
X31200Y-11000D03*
X26400Y-11000D03*
X21800Y800D03*
X4000Y800D03*
X-27400Y13200D03*
X-12600Y17400D03*
X25400Y-1000D03*
X21800Y-1800D03*
X11400Y-2200D03*
X-2800Y-2800D03*
X37000Y14600D03*
X21200Y14200D03*
X51000Y17800D03*
X49800Y30200D03*
X-25800Y-7600D03*
X-13200Y-7000D03*
X27600Y-9600D03*
X65400Y32000D03*
X7000Y26400D03*
X8000Y16000D03*
X42000Y3400D03*
X54400Y4200D03*
X54000Y28200D03*
X0Y23800D03*
X-200Y16000D03*
X-1600Y6800D03*
X-1600Y-1000D03*
X-21600Y-3200D03*
X46400Y-9400D03*
X42600Y-5400D03*
X41400Y-3400D03*
X-5000Y-1600D03*
X55600Y-6000D03*
X25000Y-11600D03*
X1400Y-11800D03*
X56200Y4200D03*
X39000Y28200D03*
X-1400Y8000D03*
X55600Y-1400D03*
X38400Y29400D03*
X43000Y2600D03*
X56800Y1400D03*
X56800Y400D03*
X56800Y-6200D03*
X8600Y-8000D03*
X37800Y-4000D03*
X12600Y21400D03*
X8000Y21200D03*
X7400Y16400D03*
X9000Y7800D03*
X15000Y-6800D03*
X42200Y10200D03*
X41200Y23800D03*
X14800Y16800D03*
X22400Y8800D03*
X38600Y3800D03*
X32400Y3800D03*
X12000Y6000D03*
X12000Y3000D03*
X11600Y-600D03*
X45400Y14600D03*
X55000Y-1800D03*
X44800Y-2000D03*
X33000Y-5400D03*
X33000Y-10400D03*
X47200Y-10400D03*
X49600Y1000D03*
X55000Y5400D03*
X54800Y18200D03*
X-27800Y6200D03*
X33200Y-1600D03*
X27400Y-2000D03*
X11600Y1200D03*
X11200Y-1400D03*
X21600Y15000D03*
X58600Y-7800D03*
X53600Y-7800D03*
X42600Y-7800D03*
X22400Y20000D03*
X52800Y20000D03*
X51000Y4000D03*
X42000Y-5000D03*
X38800Y-7000D03*
X5400Y17400D03*
X49000Y-1800D03*
X31200Y12800D03*
X30800Y14200D03*
X23000Y20000D03*
X25600Y20000D03*
X42400Y0D03*
X42400Y1800D03*
X43600Y3800D03*
X32800Y8800D03*
X-26600Y27800D03*
X-21200Y2400D03*
X-29600Y7000D03*
X33400Y600D03*
X33800Y-1400D03*
X-22200Y5000D03*
X-21800Y8200D03*
X-21800Y20400D03*
X10000Y-9200D03*
X-2400Y-5000D03*
X-2600Y1800D03*
X11800Y200D03*
X50600Y29200D03*
X-24800Y-8800D03*
X57600Y30200D03*
X12200Y11600D03*
X21600Y-3000D03*
X63000Y10800D03*
X57600Y10800D03*
X32000Y5400D03*
X-2600Y6000D03*
X-200Y6000D03*
X27600Y1000D03*
X42600Y-3000D03*
X-21200Y1200D03*
X-26600Y-200D03*
X-2000Y-11800D03*
X-2000Y-7800D03*
X-4000Y-7800D03*
X57600Y8000D03*
X58200Y19000D03*
X40000Y18800D03*
X41000Y13200D03*
X-1400Y-7400D03*
X-1400Y-5800D03*
X-11400Y-5800D03*
X-11400Y-400D03*
X-3600Y1200D03*
X8000Y2000D03*
X-11800Y-2600D03*
X-11800Y-5200D03*
X-7600Y-7400D03*
X13400Y9400D03*
X59000Y-10000D03*
X65200Y-10000D03*
X-1600Y11200D03*
X57000Y7200D03*
X57000Y29800D03*
X-25200Y800D03*
X55400Y20600D03*
X41600Y4200D03*
X29000Y-7200D03*
X21000Y-7200D03*
X10600Y-8800D03*
X-23600Y-10400D03*
X-23600Y20800D03*
X10200Y20800D03*
X9800Y15400D03*
X7600Y5600D03*
X-11600Y10200D03*
X-8400Y17800D03*
X-22200Y16400D03*
X57800Y20400D03*
X58400Y800D03*
X55200Y-7000D03*
X21000Y8200D03*
X13800Y8600D03*
X11400Y12200D03*
X10400Y12200D03*
X10000Y8800D03*
X10200Y-3600D03*
X11800Y-3600D03*
X33000Y13600D03*
X33000Y17400D03*
X51200Y8400D03*
X56000Y-6600D03*
X47800Y-10000D03*
X58400Y-10000D03*
X63800Y22600D03*
X39200Y22600D03*
X-1400Y24200D03*
X-1400Y10600D03*
X52200Y-3800D03*
X54000Y30400D03*
X-32600Y12000D03*
X-11200Y12200D03*
X14200Y22800D03*
X-11600Y22400D03*
X9800Y-4400D03*
X22000Y14000D03*
X42200Y14600D03*
X42200Y23600D03*
X10800Y15800D03*
X10200Y9400D03*
X9400Y-3000D03*
X51600Y26000D03*
X10000Y16000D03*
X8600Y9200D03*
X60600Y-7600D03*
X63800Y21800D03*
X39600Y21800D03*
X-11200Y24800D03*
X41400Y12000D03*
X40200Y30200D03*
X-24400Y-9400D03*
X-13600Y-4000D03*
X44800Y-6600D03*
X33200Y5400D03*
X32800Y4600D03*
X30800Y4200D03*
X21600Y-3800D03*
X20800Y-3800D03*
X41000Y-2400D03*
X32000Y-9200D03*
X26400Y-10200D03*
X400Y-10000D03*
X54000Y3400D03*
X53400Y26400D03*
X9000Y15800D03*
X9000Y9800D03*
X43000Y-1600D03*
X53200Y-1400D03*
X-15000Y26000D03*
X31600Y8800D03*
X30000Y8800D03*
X22400Y12000D03*
X11200Y14000D03*
X8600Y5000D03*
X-26800Y800D03*
X34800Y21400D03*
X55200Y21400D03*
X55200Y30400D03*
X66000Y-11600D03*
X63400Y-11600D03*
X63400Y-8800D03*
X58600Y-8800D03*
X9200Y-7000D03*
X9200Y-8400D03*
X11800Y5200D03*
X-3200Y400D03*
X-12400Y4200D03*
X-22200Y4200D03*
X32600Y15400D03*
X48000Y-6600D03*
X45400Y-6600D03*
X32600Y16600D03*
X33000Y19200D03*
X34400Y19200D03*
X34400Y22600D03*
X11800Y21000D03*
X-400Y16600D03*
X31800Y200D03*
X30600Y1000D03*
X-27400Y14400D03*
X-29200Y14800D03*
X27600Y3400D03*
X22200Y-5000D03*
X21000Y-5400D03*
X32000Y7400D03*
X29200Y4000D03*
X62400Y18400D03*
X63000Y-2800D03*
X42600Y6000D03*
X32600Y6400D03*
X30800Y9200D03*
X-28400Y6600D03*
X11600Y4600D03*
X22000Y13400D03*
X21400Y9000D03*
X63600Y-3200D03*
X22000Y4200D03*
X35000Y9600D03*
X40800Y1400D03*
X20400Y23200D03*
X-1000Y23400D03*
X-27000Y9800D03*
G54D16*
X34200Y5200D03*
X37200Y2200D03*
X35200Y2200D03*
X36200Y2200D03*
X38200Y2200D03*
X39200Y2200D03*
X40200Y2200D03*
X40200Y5200D03*
X37200Y5200D03*
X35200Y5200D03*
X36200Y5200D03*
X38200Y5200D03*
X39200Y5200D03*
X34200Y0D03*
X37200Y-3000D03*
X35200Y-3000D03*
X36200Y-3000D03*
X38200Y-3000D03*
X39200Y-3000D03*
X40200Y-3000D03*
X40200Y0D03*
X37200Y0D03*
X35200Y0D03*
X36200Y0D03*
X38200Y0D03*
X39200Y0D03*
X34200Y-5400D03*
X37200Y-8400D03*
X35200Y-8400D03*
X36200Y-8400D03*
X38200Y-8400D03*
X39200Y-8400D03*
X40200Y-8400D03*
X40200Y-5400D03*
X37200Y-5400D03*
X35200Y-5400D03*
X36200Y-5400D03*
X38200Y-5400D03*
X39200Y-5400D03*
X44400Y10800D03*
X47400Y7800D03*
X45400Y7800D03*
X46400Y7800D03*
X48400Y7800D03*
X49400Y7800D03*
X50400Y7800D03*
X50400Y10800D03*
X47400Y10800D03*
X45400Y10800D03*
X46400Y10800D03*
X48400Y10800D03*
X49400Y10800D03*
X44400Y15800D03*
X47400Y12800D03*
X45400Y12800D03*
X46400Y12800D03*
X48400Y12800D03*
X49400Y12800D03*
X50400Y12800D03*
X50400Y15800D03*
X47400Y15800D03*
X45400Y15800D03*
X46400Y15800D03*
X48400Y15800D03*
X49400Y15800D03*
X-20000Y19000D03*
X-17000Y16000D03*
X-19000Y16000D03*
X-18000Y16000D03*
X-16000Y16000D03*
X-15000Y16000D03*
X-14000Y16000D03*
X-14000Y19000D03*
X-17000Y19000D03*
X-19000Y19000D03*
X-18000Y19000D03*
X-16000Y19000D03*
X-15000Y19000D03*
X-10400Y19000D03*
X-7400Y16000D03*
X-9400Y16000D03*
X-8400Y16000D03*
X-6400Y16000D03*
X-5400Y16000D03*
X-4400Y16000D03*
X-4400Y19000D03*
X-7400Y19000D03*
X-9400Y19000D03*
X-8400Y19000D03*
X-6400Y19000D03*
X-5400Y19000D03*
X-20200Y14000D03*
X-17200Y11000D03*
X-19200Y11000D03*
X-18200Y11000D03*
X-16200Y11000D03*
X-15200Y11000D03*
X-14200Y11000D03*
X-14200Y14000D03*
X-17200Y14000D03*
X-19200Y14000D03*
X-18200Y14000D03*
X-16200Y14000D03*
X-15200Y14000D03*
X-10400Y14000D03*
X-7400Y11000D03*
X-9400Y11000D03*
X-8400Y11000D03*
X-6400Y11000D03*
X-5400Y11000D03*
X-4400Y11000D03*
X-4400Y14000D03*
X-7400Y14000D03*
X-9400Y14000D03*
X-8400Y14000D03*
X-6400Y14000D03*
X-5400Y14000D03*
X-20200Y9000D03*
X-17200Y6000D03*
X-19200Y6000D03*
X-18200Y6000D03*
X-16200Y6000D03*
X-15200Y6000D03*
X-14200Y6000D03*
X-14200Y9000D03*
X-17200Y9000D03*
X-19200Y9000D03*
X-18200Y9000D03*
X-16200Y9000D03*
X-15200Y9000D03*
X-10400Y9000D03*
X-7400Y6000D03*
X-9400Y6000D03*
X-8400Y6000D03*
X-6400Y6000D03*
X-5400Y6000D03*
X-4400Y6000D03*
X-4400Y9000D03*
X-7400Y9000D03*
X-9400Y9000D03*
X-8400Y9000D03*
X-6400Y9000D03*
X-5400Y9000D03*
X-20200Y4600D03*
X-17200Y1600D03*
X-19200Y1600D03*
X-18200Y1600D03*
X-16200Y1600D03*
X-15200Y1600D03*
X-14200Y1600D03*
X-14200Y4600D03*
X-17200Y4600D03*
X-19200Y4600D03*
X-18200Y4600D03*
X-16200Y4600D03*
X-15200Y4600D03*
X-10200Y4600D03*
X-7200Y1600D03*
X-9200Y1600D03*
X-8200Y1600D03*
X-6200Y1600D03*
X-5200Y1600D03*
X-4200Y1600D03*
X-4200Y4600D03*
X-7200Y4600D03*
X-9200Y4600D03*
X-8200Y4600D03*
X-6200Y4600D03*
X-5200Y4600D03*
X-20200Y-200D03*
X-17200Y-3200D03*
X-19200Y-3200D03*
X-18200Y-3200D03*
X-16200Y-3200D03*
X-15200Y-3200D03*
X-14200Y-3200D03*
X-14200Y-200D03*
X-17200Y-200D03*
X-19200Y-200D03*
X-18200Y-200D03*
X-16200Y-200D03*
X-15200Y-200D03*
X-10400Y-400D03*
X-7400Y-3400D03*
X-9400Y-3400D03*
X-8400Y-3400D03*
X-6400Y-3400D03*
X-5400Y-3400D03*
X-4400Y-3400D03*
X-4400Y-400D03*
X-7400Y-400D03*
X-9400Y-400D03*
X-8400Y-400D03*
X-6400Y-400D03*
X-5400Y-400D03*
X-20200Y-5600D03*
X-17200Y-8600D03*
X-19200Y-8600D03*
X-18200Y-8600D03*
X-16200Y-8600D03*
X-15200Y-8600D03*
X-14200Y-8600D03*
X-14200Y-5600D03*
X-17200Y-5600D03*
X-19200Y-5600D03*
X-18200Y-5600D03*
X-16200Y-5600D03*
X-15200Y-5600D03*
X-10400Y-5400D03*
X-7400Y-8400D03*
X-9400Y-8400D03*
X-8400Y-8400D03*
X-6400Y-8400D03*
X-5400Y-8400D03*
X-4400Y-8400D03*
X-4400Y-5400D03*
X-7400Y-5400D03*
X-9400Y-5400D03*
X-8400Y-5400D03*
X-6400Y-5400D03*
X-5400Y-5400D03*
X400Y10200D03*
X2400Y7200D03*
X1400Y7200D03*
X3400Y7200D03*
X5400Y7200D03*
X4400Y7200D03*
X6400Y7200D03*
X7400Y7200D03*
X6400Y10200D03*
X3400Y10200D03*
X2400Y10200D03*
X1400Y10200D03*
X5400Y10200D03*
X4400Y10200D03*
X7400Y10200D03*
X400Y15200D03*
X2400Y12200D03*
X1400Y12200D03*
X3400Y12200D03*
X5400Y12200D03*
X4400Y12200D03*
X6400Y12200D03*
X7400Y12200D03*
X6400Y15200D03*
X3400Y15200D03*
X2400Y15200D03*
X1400Y15200D03*
X5400Y15200D03*
X4400Y15200D03*
X7400Y15200D03*
X600Y5400D03*
X3600Y2400D03*
X1600Y2400D03*
X2600Y2400D03*
X4600Y2400D03*
X5600Y2400D03*
X6600Y2400D03*
X6600Y5400D03*
X3600Y5400D03*
X1600Y5400D03*
X2600Y5400D03*
X4600Y5400D03*
X5600Y5400D03*
X1000Y-200D03*
X4000Y-3200D03*
X2000Y-3200D03*
X3000Y-3200D03*
X5000Y-3200D03*
X6000Y-3200D03*
X7000Y-3200D03*
X7000Y-200D03*
X4000Y-200D03*
X2000Y-200D03*
X3000Y-200D03*
X5000Y-200D03*
X6000Y-200D03*
X400Y-5400D03*
X2400Y-8400D03*
X1400Y-8400D03*
X3400Y-8400D03*
X5400Y-8400D03*
X4400Y-8400D03*
X6400Y-8400D03*
X7400Y-8400D03*
X6400Y-5400D03*
X3400Y-5400D03*
X2400Y-5400D03*
X1400Y-5400D03*
X5400Y-5400D03*
X4400Y-5400D03*
X7400Y-5400D03*
X13600Y21600D03*
X15600Y18600D03*
X14600Y18600D03*
X16600Y18600D03*
X18600Y18600D03*
X17600Y18600D03*
X19600Y18600D03*
X20600Y18600D03*
X19600Y21600D03*
X16600Y21600D03*
X15600Y21600D03*
X14600Y21600D03*
X18600Y21600D03*
X17600Y21600D03*
X20600Y21600D03*
X13200Y15800D03*
X15200Y12800D03*
X14200Y12800D03*
X16200Y12800D03*
X18200Y12800D03*
X17200Y12800D03*
X19200Y12800D03*
X20200Y12800D03*
X19200Y15800D03*
X16200Y15800D03*
X15200Y15800D03*
X14200Y15800D03*
X18200Y15800D03*
X17200Y15800D03*
X20200Y15800D03*
X13400Y10400D03*
X15400Y7400D03*
X14400Y7400D03*
X16400Y7400D03*
X18400Y7400D03*
X17400Y7400D03*
X19400Y7400D03*
X20400Y7400D03*
X19400Y10400D03*
X16400Y10400D03*
X15400Y10400D03*
X14400Y10400D03*
X18400Y10400D03*
X17400Y10400D03*
X20400Y10400D03*
X13400Y5200D03*
X15400Y2200D03*
X14400Y2200D03*
X16400Y2200D03*
X18400Y2200D03*
X17400Y2200D03*
X19400Y2200D03*
X20400Y2200D03*
X19400Y5200D03*
X16400Y5200D03*
X15400Y5200D03*
X14400Y5200D03*
X18400Y5200D03*
X17400Y5200D03*
X20400Y5200D03*
X13200Y0D03*
X15200Y-3000D03*
X14200Y-3000D03*
X16200Y-3000D03*
X18200Y-3000D03*
X17200Y-3000D03*
X19200Y-3000D03*
X20200Y-3000D03*
X19200Y0D03*
X16200Y0D03*
X15200Y0D03*
X14200Y0D03*
X18200Y0D03*
X17200Y0D03*
X20200Y0D03*
X13000Y-5400D03*
X15000Y-8400D03*
X14000Y-8400D03*
X16000Y-8400D03*
X18000Y-8400D03*
X17000Y-8400D03*
X19000Y-8400D03*
X20000Y-8400D03*
X19000Y-5400D03*
X16000Y-5400D03*
X15000Y-5400D03*
X14000Y-5400D03*
X18000Y-5400D03*
X17000Y-5400D03*
X20000Y-5400D03*
X23600Y21600D03*
X25600Y18600D03*
X24600Y18600D03*
X26600Y18600D03*
X28600Y18600D03*
X27600Y18600D03*
X29600Y18600D03*
X30600Y18600D03*
X29600Y21600D03*
X26600Y21600D03*
X25600Y21600D03*
X24600Y21600D03*
X28600Y21600D03*
X27600Y21600D03*
X30600Y21600D03*
X24200Y15800D03*
X27200Y12800D03*
X25200Y12800D03*
X26200Y12800D03*
X28200Y12800D03*
X29200Y12800D03*
X30200Y12800D03*
X30200Y15800D03*
X27200Y15800D03*
X25200Y15800D03*
X26200Y15800D03*
X28200Y15800D03*
X29200Y15800D03*
X24200Y10400D03*
X27200Y7400D03*
X25200Y7400D03*
X26200Y7400D03*
X28200Y7400D03*
X29200Y7400D03*
X30200Y7400D03*
X30200Y10400D03*
X27200Y10400D03*
X25200Y10400D03*
X26200Y10400D03*
X28200Y10400D03*
X29200Y10400D03*
X23800Y5200D03*
X25800Y2200D03*
X24800Y2200D03*
X26800Y2200D03*
X28800Y2200D03*
X27800Y2200D03*
X29800Y2200D03*
X30800Y2200D03*
X29800Y5200D03*
X26800Y5200D03*
X25800Y5200D03*
X24800Y5200D03*
X28800Y5200D03*
X27800Y5200D03*
X30800Y5200D03*
X23600Y0D03*
X25600Y-3000D03*
X24600Y-3000D03*
X26600Y-3000D03*
X28600Y-3000D03*
X27600Y-3000D03*
X29600Y-3000D03*
X30600Y-3000D03*
X29600Y0D03*
X26600Y0D03*
X25600Y0D03*
X24600Y0D03*
X28600Y0D03*
X27600Y0D03*
X30600Y0D03*
X24000Y-5400D03*
X27000Y-8400D03*
X25000Y-8400D03*
X26000Y-8400D03*
X28000Y-8400D03*
X29000Y-8400D03*
X30000Y-8400D03*
X30000Y-5400D03*
X27000Y-5400D03*
X25000Y-5400D03*
X26000Y-5400D03*
X28000Y-5400D03*
X29000Y-5400D03*
X34400Y15800D03*
X37400Y12800D03*
X35400Y12800D03*
X36400Y12800D03*
X38400Y12800D03*
X39400Y12800D03*
X40400Y12800D03*
X40400Y15800D03*
X37400Y15800D03*
X35400Y15800D03*
X36400Y15800D03*
X38400Y15800D03*
X39400Y15800D03*
X34400Y10600D03*
X37400Y7600D03*
X35400Y7600D03*
X36400Y7600D03*
X38400Y7600D03*
X39400Y7600D03*
X40400Y7600D03*
X40400Y10600D03*
X37400Y10600D03*
X35400Y10600D03*
X36400Y10600D03*
X38400Y10600D03*
X39400Y10600D03*
X44200Y5200D03*
X46200Y2200D03*
X45200Y2200D03*
X47200Y2200D03*
X49200Y2200D03*
X48200Y2200D03*
X50200Y2200D03*
X51200Y2200D03*
X50200Y5200D03*
X47200Y5200D03*
X46200Y5200D03*
X45200Y5200D03*
X49200Y5200D03*
X48200Y5200D03*
X51200Y5200D03*
X44000Y0D03*
X46000Y-3000D03*
X45000Y-3000D03*
X47000Y-3000D03*
X49000Y-3000D03*
X48000Y-3000D03*
X50000Y-3000D03*
X51000Y-3000D03*
X50000Y0D03*
X47000Y0D03*
X46000Y0D03*
X45000Y0D03*
X49000Y0D03*
X48000Y0D03*
X51000Y0D03*
X44000Y-5400D03*
X46000Y-8400D03*
X45000Y-8400D03*
X47000Y-8400D03*
X49000Y-8400D03*
X48000Y-8400D03*
X50000Y-8400D03*
X51000Y-8400D03*
X50000Y-5400D03*
X47000Y-5400D03*
X46000Y-5400D03*
X45000Y-5400D03*
X49000Y-5400D03*
X48000Y-5400D03*
X51000Y-5400D03*
G54D17*
X34200Y2200D03*
X34200Y-3000D03*
X34200Y-8400D03*
X44400Y7800D03*
X44400Y12800D03*
X-20000Y16000D03*
X-10400Y16000D03*
X-20200Y11000D03*
X-10400Y11000D03*
X-20200Y6000D03*
X-10400Y6000D03*
X-20200Y1600D03*
X-10200Y1600D03*
X-20200Y-3200D03*
X-10400Y-3400D03*
X-20200Y-8600D03*
X-10400Y-8400D03*
X400Y7200D03*
X400Y12200D03*
X600Y2400D03*
X1000Y-3200D03*
X400Y-8400D03*
X13600Y18600D03*
X13200Y12800D03*
X13400Y7400D03*
X13400Y2200D03*
X13200Y-3000D03*
X13000Y-8400D03*
X23600Y18600D03*
X24200Y12800D03*
X24200Y7400D03*
X23800Y2200D03*
X23600Y-3000D03*
X24000Y-8400D03*
X34400Y12800D03*
X34400Y7600D03*
X44200Y2200D03*
X44000Y-3000D03*
X44000Y-8400D03*

M02*
