G04 Generated by Ultiboard 14.1 *
%FSLAX24Y24*%
%MOIN*%

%ADD10C,0.0001*%
%ADD11C,0.0001*%
%ADD12C,0.0050*%


G04 ColorRGB 00FFFF for the following layer *
%LNBoard Outline*%
%LPD*%
G54D10*
G54D11*
X-35200Y-13000D02*
X66800Y-13000D01*
X66800Y33904D01*
X-35200Y33904D01*
X-35200Y-13000D01*
G54D12*
X-35300Y-13100D02*
X-35300Y-8390D01*
X-35300Y-13100D02*
X-25080Y-13100D01*
X66900Y-13100D02*
X56680Y-13100D01*
X66900Y-13100D02*
X66900Y-8390D01*
X66900Y34004D02*
X66900Y29294D01*
X66900Y34004D02*
X56680Y34004D01*
X-35300Y34004D02*
X-25080Y34004D01*
X-35300Y34004D02*
X-35300Y29294D01*
X-37269Y-13100D02*
X-41206Y-13100D01*
X-39237Y-15069D02*
X-39237Y-11131D01*
X-40714Y-13100D02*
G75*
D01*
G02X-40714Y-13100I1477J0*
G01*
X68869Y-13100D02*
X72806Y-13100D01*
X70837Y-15069D02*
X70837Y-11131D01*
X69361Y-13100D02*
G75*
D01*
G02X69361Y-13100I1476J0*
G01*
X70345Y-13100D02*
G75*
D01*
G02X70345Y-13100I492J0*
G01*
X-37269Y34004D02*
X-41206Y34004D01*
X-39237Y32035D02*
X-39237Y35972D01*
X-40714Y34004D02*
G75*
D01*
G02X-40714Y34004I1477J0*
G01*
X-40221Y34004D02*
G75*
D01*
G02X-40221Y34004I984J0*
G01*
X-39729Y34004D02*
G75*
D01*
G02X-39729Y34004I492J0*
G01*

M02*
