M48
INCH,TZ
VER,1
FMAT,2
DETECT,ON
ATC,ON
T1C0.0465
T2C0.0350
T3C0.0236
%
T1
X-32600Y-2200
Y-3200
Y-4200
Y-5200
Y-6200
Y-7200
Y-8200
Y-9200
Y8400
Y7400
Y6400
Y5400
Y4400
Y3400
Y2400
Y1400
X-32800Y20000
Y19000
Y18000
Y17000
Y16000
Y15000
Y14000
Y13000
Y30800
Y29800
Y28800
Y27800
Y26800
Y25800
Y24800
Y23800
T2
X60400Y10000
Y7000
X63400Y10000
X62400
X61400
X62400Y7000
X63400
X61400
X59400Y10000
Y7000
X60400Y15200
Y12200
X63400Y15200
X62400
X61400
X62400Y12200
X63400
X61400
X59400Y15200
Y12200
X60400Y20400
Y17400
X63400Y20400
X62400
X61400
X62400Y17400
X63400
X61400
X59400Y20400
Y17400
X34200Y5200
X37200Y2200
X35200
X36200
X38200
X39200
X40200
Y5200
X37200
X35200
X36200
X38200
X39200
X34200Y2200
Y0
X37200Y-3000
X35200
X36200
X38200
X39200
X40200
Y0
X37200
X35200
X36200
X38200
X39200
X34200Y-3000
Y-5400
X37200Y-8400
X35200
X36200
X38200
X39200
X40200
Y-5400
X37200
X35200
X36200
X38200
X39200
X34200Y-8400
X44400Y10800
X47400Y7800
X45400
X46400
X48400
X49400
X50400
Y10800
X47400
X45400
X46400
X48400
X49400
X44400Y7800
Y15800
X47400Y12800
X45400
X46400
X48400
X49400
X50400
Y15800
X47400
X45400
X46400
X48400
X49400
X44400Y12800
X-20000Y19000
X-17000Y16000
X-19000
X-18000
X-16000
X-15000
X-14000
Y19000
X-17000
X-19000
X-18000
X-16000
X-15000
X-20000Y16000
X-10400Y19000
X-7400Y16000
X-9400
X-8400
X-6400
X-5400
X-4400
Y19000
X-7400
X-9400
X-8400
X-6400
X-5400
X-10400Y16000
X-20200Y14000
X-17200Y11000
X-19200
X-18200
X-16200
X-15200
X-14200
Y14000
X-17200
X-19200
X-18200
X-16200
X-15200
X-20200Y11000
X-10400Y14000
X-7400Y11000
X-9400
X-8400
X-6400
X-5400
X-4400
Y14000
X-7400
X-9400
X-8400
X-6400
X-5400
X-10400Y11000
X-20200Y9000
X-17200Y6000
X-19200
X-18200
X-16200
X-15200
X-14200
Y9000
X-17200
X-19200
X-18200
X-16200
X-15200
X-20200Y6000
X-10400Y9000
X-7400Y6000
X-9400
X-8400
X-6400
X-5400
X-4400
Y9000
X-7400
X-9400
X-8400
X-6400
X-5400
X-10400Y6000
X-20200Y4600
X-17200Y1600
X-19200
X-18200
X-16200
X-15200
X-14200
Y4600
X-17200
X-19200
X-18200
X-16200
X-15200
X-20200Y1600
X-10200Y4600
X-7200Y1600
X-9200
X-8200
X-6200
X-5200
X-4200
Y4600
X-7200
X-9200
X-8200
X-6200
X-5200
X-10200Y1600
X-20200Y-200
X-17200Y-3200
X-19200
X-18200
X-16200
X-15200
X-14200
Y-200
X-17200
X-19200
X-18200
X-16200
X-15200
X-20200Y-3200
X-10400Y-400
X-7400Y-3400
X-9400
X-8400
X-6400
X-5400
X-4400
Y-400
X-7400
X-9400
X-8400
X-6400
X-5400
X-10400Y-3400
X-20200Y-5600
X-17200Y-8600
X-19200
X-18200
X-16200
X-15200
X-14200
Y-5600
X-17200
X-19200
X-18200
X-16200
X-15200
X-20200Y-8600
X-10400Y-5400
X-7400Y-8400
X-9400
X-8400
X-6400
X-5400
X-4400
Y-5400
X-7400
X-9400
X-8400
X-6400
X-5400
X-10400Y-8400
X400Y10200
X2400Y7200
X1400
X3400
X5400
X4400
X6400
X7400
X6400Y10200
X3400
X2400
X1400
X5400
X4400
X7400
X400Y7200
Y15200
X2400Y12200
X1400
X3400
X5400
X4400
X6400
X7400
X6400Y15200
X3400
X2400
X1400
X5400
X4400
X7400
X400Y12200
X600Y5400
X3600Y2400
X1600
X2600
X4600
X5600
X6600
Y5400
X3600
X1600
X2600
X4600
X5600
X600Y2400
X1000Y-200
X4000Y-3200
X2000
X3000
X5000
X6000
X7000
Y-200
X4000
X2000
X3000
X5000
X6000
X1000Y-3200
X400Y-5400
X2400Y-8400
X1400
X3400
X5400
X4400
X6400
X7400
X6400Y-5400
X3400
X2400
X1400
X5400
X4400
X7400
X400Y-8400
X13600Y21600
X15600Y18600
X14600
X16600
X18600
X17600
X19600
X20600
X19600Y21600
X16600
X15600
X14600
X18600
X17600
X20600
X13600Y18600
X13200Y15800
X15200Y12800
X14200
X16200
X18200
X17200
X19200
X20200
X19200Y15800
X16200
X15200
X14200
X18200
X17200
X20200
X13200Y12800
X13400Y10400
X15400Y7400
X14400
X16400
X18400
X17400
X19400
X20400
X19400Y10400
X16400
X15400
X14400
X18400
X17400
X20400
X13400Y7400
Y5200
X15400Y2200
X14400
X16400
X18400
X17400
X19400
X20400
X19400Y5200
X16400
X15400
X14400
X18400
X17400
X20400
X13400Y2200
X13200Y0
X15200Y-3000
X14200
X16200
X18200
X17200
X19200
X20200
X19200Y0
X16200
X15200
X14200
X18200
X17200
X20200
X13200Y-3000
X13000Y-5400
X15000Y-8400
X14000
X16000
X18000
X17000
X19000
X20000
X19000Y-5400
X16000
X15000
X14000
X18000
X17000
X20000
X13000Y-8400
X23600Y21600
X25600Y18600
X24600
X26600
X28600
X27600
X29600
X30600
X29600Y21600
X26600
X25600
X24600
X28600
X27600
X30600
X23600Y18600
X24200Y15800
X27200Y12800
X25200
X26200
X28200
X29200
X30200
Y15800
X27200
X25200
X26200
X28200
X29200
X24200Y12800
Y10400
X27200Y7400
X25200
X26200
X28200
X29200
X30200
Y10400
X27200
X25200
X26200
X28200
X29200
X24200Y7400
X23800Y5200
X25800Y2200
X24800
X26800
X28800
X27800
X29800
X30800
X29800Y5200
X26800
X25800
X24800
X28800
X27800
X30800
X23800Y2200
X23600Y0
X25600Y-3000
X24600
X26600
X28600
X27600
X29600
X30600
X29600Y0
X26600
X25600
X24600
X28600
X27600
X30600
X23600Y-3000
X24000Y-5400
X27000Y-8400
X25000
X26000
X28000
X29000
X30000
Y-5400
X27000
X25000
X26000
X28000
X29000
X24000Y-8400
X34400Y15800
X37400Y12800
X35400
X36400
X38400
X39400
X40400
Y15800
X37400
X35400
X36400
X38400
X39400
X34400Y12800
Y10600
X37400Y7600
X35400
X36400
X38400
X39400
X40400
Y10600
X37400
X35400
X36400
X38400
X39400
X34400Y7600
X44200Y5200
X46200Y2200
X45200
X47200
X49200
X48200
X50200
X51200
X50200Y5200
X47200
X46200
X45200
X49200
X48200
X51200
X44200Y2200
X44000Y0
X46000Y-3000
X45000
X47000
X49000
X48000
X50000
X51000
X50000Y0
X47000
X46000
X45000
X49000
X48000
X51000
X44000Y-3000
Y-5400
X46000Y-8400
X45000
X47000
X49000
X48000
X50000
X51000
X50000Y-5400
X47000
X46000
X45000
X49000
X48000
X51000
X44000Y-8400
T3
X27000Y20000
X34000
X7600Y24200
Y27000
X11000Y-9600
X32200Y11200
Y13400
X31200
X31800Y21400
X59000Y22200
X64000Y-8600
Y-11800
X11400Y-8400
X7400Y-7000
X52000Y7800
X51600Y19600
X-3200Y25200
X58600Y1800
X58200Y23200
X41000Y-9800
X58600Y-10800
X-600Y27400
X41800Y12800
X40800Y29800
X59200Y-1400
X57400Y25200
X10600Y19800
X-8400Y7800
X-22800Y16000
X-20800Y18400
X23200Y9200
X14200Y17200
X11800Y21800
X-26200Y21400
X21400Y-11600
X42800Y25600
X9800Y17400
X49800Y30800
X-25200Y-7200
X-13200Y-8200
X59600Y-10400
X8200Y26800
X8000Y-6600
X-12800Y-5800
X-2400Y23000
X-3600Y21800
X-11800Y600
X52000Y7200
X54800Y7400
Y17600
X56400Y-5600
X53600Y6000
X53400Y24800
X10600Y16400
X8600Y10400
X33600Y-10800
X-5400Y28600
X42600Y10800
X42400Y28600
X-27600Y-4800
X21000Y-8200
X35600Y3200
X14200Y-1600
X55200Y-3200
X61800Y-4600
X64600Y-11800
X66000Y-12400
X-400Y-11800
Y-7600
X44800Y14600
X58000Y-8200
X54200
X34200Y-7400
X21400Y-6400
X10000Y10600
Y11600
X31800Y3800
X52400Y14400
X37000Y-6600
X11000Y-4800
X32200Y1000
X27000Y14800
X11800Y14200
X13000Y8800
X57600Y-10600
X61800Y-8000
X64800Y21800
X37400Y9400
X31800Y18000
X21400
Y19800
X33000Y12200
X-19600Y3200
X-30200Y7400
X36600Y-1000
X31800Y-1200
X20600Y11800
X55800Y20000
X41600Y-5800
X53200Y6600
X1000Y25600
Y16800
X-3200Y4800
X59600Y-3600
X40600Y8600
X38600Y9200
X32000Y8200
X31600Y6200
X10400Y5400
Y-2600
X-8800Y22000
X-26000Y29800
X-26600Y8600
X23200Y-11400
X-23600Y23800
X26600Y23000
X20800Y-1200
Y-2200
X14200Y3400
X-3200Y-1200
X41800Y24200
X43000Y29600
X-25200Y-10000
X-2800Y-6000
X27000Y-10600
X-5000Y3000
X-600
X31200Y-11000
X26400
X21800Y800
X4000
X-27400Y13200
X-12600Y17400
X25400Y-1000
X21800Y-1800
X11400Y-2200
X-2800Y-2800
X37000Y14600
X21200Y14200
X51000Y17800
X49800Y30200
X-25800Y-7600
X-13200Y-7000
X27600Y-9600
X65400Y32000
X7000Y26400
X8000Y16000
X42000Y3400
X54400Y4200
X54000Y28200
X0Y23800
X-200Y16000
X-1600Y6800
Y-1000
X-21600Y-3200
X46400Y-9400
X42600Y-5400
X41400Y-3400
X-5000Y-1600
X55600Y-6000
X25000Y-11600
X1400Y-11800
X56200Y4200
X39000Y28200
X-1400Y8000
X55600Y-1400
X38400Y29400
X43000Y2600
X56800Y1400
Y400
Y-6200
X8600Y-8000
X37800Y-4000
X12600Y21400
X8000Y21200
X7400Y16400
X9000Y7800
X15000Y-6800
X42200Y10200
X41200Y23800
X14800Y16800
X22400Y8800
X38600Y3800
X32400
X12000Y6000
Y3000
X11600Y-600
X45400Y14600
X55000Y-1800
X44800Y-2000
X33000Y-5400
Y-10400
X47200
X49600Y1000
X55000Y5400
X54800Y18200
X-27800Y6200
X33200Y-1600
X27400Y-2000
X11600Y1200
X11200Y-1400
X21600Y15000
X58600Y-7800
X53600
X42600
X22400Y20000
X52800
X51000Y4000
X42000Y-5000
X38800Y-7000
X5400Y17400
X49000Y-1800
X31200Y12800
X30800Y14200
X23000Y20000
X25600
X42400Y0
Y1800
X43600Y3800
X32800Y8800
X-26600Y27800
X-21200Y2400
X-29600Y7000
X33400Y600
X33800Y-1400
X-22200Y5000
X-21800Y8200
Y20400
X10000Y-9200
X-2400Y-5000
X-2600Y1800
X11800Y200
X50600Y29200
X-24800Y-8800
X57600Y30200
X12200Y11600
X21600Y-3000
X63000Y10800
X57600
X32000Y5400
X-2600Y6000
X-200
X27600Y1000
X42600Y-3000
X-21200Y1200
X-26600Y-200
X-2000Y-11800
Y-7800
X-4000
X57600Y8000
X58200Y19000
X40000Y18800
X41000Y13200
X-1400Y-7400
Y-5800
X-11400
Y-400
X-3600Y1200
X8000Y2000
X-11800Y-2600
Y-5200
X-7600Y-7400
X13400Y9400
X59000Y-10000
X65200
X-1600Y11200
X57000Y7200
Y29800
X-25200Y800
X55400Y20600
X41600Y4200
X29000Y-7200
X21000
X10600Y-8800
X-23600Y-10400
Y20800
X10200
X9800Y15400
X7600Y5600
X-11600Y10200
X-8400Y17800
X-22200Y16400
X57800Y20400
X58400Y800
X55200Y-7000
X21000Y8200
X13800Y8600
X11400Y12200
X10400
X10000Y8800
X10200Y-3600
X11800
X33000Y13600
Y17400
X51200Y8400
X56000Y-6600
X47800Y-10000
X58400
X63800Y22600
X39200
X-1400Y24200
Y10600
X52200Y-3800
X54000Y30400
X-32600Y12000
X-11200Y12200
X14200Y22800
X-11600Y22400
X9800Y-4400
X22000Y14000
X42200Y14600
Y23600
X10800Y15800
X10200Y9400
X9400Y-3000
X51600Y26000
X10000Y16000
X8600Y9200
X60600Y-7600
X63800Y21800
X39600
X-11200Y24800
X41400Y12000
X40200Y30200
X-24400Y-9400
X-13600Y-4000
X44800Y-6600
X33200Y5400
X32800Y4600
X30800Y4200
X21600Y-3800
X20800
X41000Y-2400
X32000Y-9200
X26400Y-10200
X400Y-10000
X54000Y3400
X53400Y26400
X9000Y15800
Y9800
X43000Y-1600
X53200Y-1400
X-15000Y26000
X31600Y8800
X30000
X22400Y12000
X11200Y14000
X8600Y5000
X-26800Y800
X34800Y21400
X55200
Y30400
X66000Y-11600
X63400
Y-8800
X58600
X9200Y-7000
Y-8400
X11800Y5200
X-3200Y400
X-12400Y4200
X-22200
X32600Y15400
X48000Y-6600
X45400
X32600Y16600
X33000Y19200
X34400
Y22600
X11800Y21000
X-400Y16600
X31800Y200
X30600Y1000
X-27400Y14400
X-29200Y14800
X27600Y3400
X22200Y-5000
X21000Y-5400
X32000Y7400
X29200Y4000
X62400Y18400
X63000Y-2800
X42600Y6000
X32600Y6400
X30800Y9200
X-28400Y6600
X11600Y4600
X22000Y13400
X21400Y9000
X63600Y-3200
X22000Y4200
X35000Y9600
X40800Y1400
X20400Y23200
X-1000Y23400
X-27000Y9800
M30
