G04 Generated by Ultiboard 14.1 *
%FSLAX24Y24*%
%MOIN*%

%ADD10C,0.0001*%
%ADD11C,0.0080*%
%ADD12C,0.0050*%


G04 ColorRGB FF14FF for the following layer *
%LNSilkscreen Bottom*%
%LPD*%
G54D10*
G54D11*
X58221Y10944D02*
X58519Y10944D01*
X58519Y10611D01*
X58519Y10444D02*
X58340Y10444D01*
X58221Y10333D01*
X58221Y10222D01*
X58340Y10111D01*
X58519Y10111D01*
X58430Y10444D02*
X58430Y10111D01*
X58460Y9944D02*
X58519Y9833D01*
X58519Y9722D01*
X58460Y9611D01*
X58281Y9944D01*
X58221Y9833D01*
X58221Y9722D01*
X58281Y9611D01*
X58519Y9278D02*
X58221Y9278D01*
X58221Y9444D02*
X58221Y9111D01*
X58519Y8944D02*
X58519Y8611D01*
X58519Y8444D02*
X58519Y8222D01*
X58460Y8111D01*
X58281Y8111D01*
X58221Y8222D01*
X58221Y8444D01*
X58221Y8389D02*
X58519Y8389D01*
X58519Y7833D02*
X58519Y7722D01*
X58221Y7833D02*
X58221Y7722D01*
X58519Y7778D02*
X58221Y7778D01*
X58370Y7222D02*
X58370Y7111D01*
X58460Y7111D01*
X58519Y7222D01*
X58519Y7333D01*
X58460Y7444D01*
X58281Y7444D01*
X58221Y7333D01*
X58221Y7111D01*
X58519Y6833D02*
X58519Y6722D01*
X58221Y6833D02*
X58221Y6722D01*
X58519Y6778D02*
X58221Y6778D01*
X58519Y6278D02*
X58221Y6278D01*
X58221Y6444D02*
X58221Y6111D01*
X63983Y10417D02*
X58817Y10417D01*
X58817Y6583D02*
X63983Y6583D01*
X59567Y9167D02*
X61317Y9333D01*
X59567Y7500D02*
X61317Y7667D01*
X63067Y9667D02*
X59650Y9333D01*
X63067Y7667D02*
X59650Y7333D01*
X63983Y6583D02*
X63983Y10417D01*
X63400Y9417D02*
X63067Y9667D01*
X63400Y8000D02*
X63067Y7667D01*
X63317Y7333D02*
X63331Y7334D01*
X63346Y7336D01*
X63360Y7339D01*
X63374Y7343D01*
X63387Y7349D01*
X63400Y7356D01*
X63412Y7363D01*
X63424Y7372D01*
X63435Y7382D01*
X63444Y7393D01*
X63453Y7404D01*
X63461Y7417D01*
X63468Y7430D01*
X63473Y7443D01*
X63478Y7457D01*
X63481Y7471D01*
X63483Y7485D01*
X63483Y7500D01*
X63483Y7515D01*
X63481Y7529D01*
X63478Y7543D01*
X63473Y7557D01*
X63468Y7570D01*
X63461Y7583D01*
X63453Y7596D01*
X63444Y7607D01*
X63435Y7618D01*
X63424Y7628D01*
X63412Y7637D01*
X63400Y7644D01*
X63387Y7651D01*
X63374Y7657D01*
X63360Y7661D01*
X63346Y7664D01*
X63331Y7666D01*
X63317Y7667D01*
X63302Y7666D01*
X63288Y7664D01*
X63274Y7661D01*
X63260Y7657D01*
X63246Y7651D01*
X63233Y7644D01*
X63221Y7637D01*
X63210Y7628D01*
X63199Y7618D01*
X63189Y7607D01*
X63180Y7596D01*
X63172Y7583D01*
X63166Y7570D01*
X63160Y7557D01*
X63156Y7543D01*
X63153Y7529D01*
X63151Y7515D01*
X63150Y7500D01*
X63151Y7485D01*
X63153Y7471D01*
X63156Y7457D01*
X63160Y7443D01*
X63166Y7430D01*
X63172Y7417D01*
X63180Y7404D01*
X63189Y7393D01*
X63199Y7382D01*
X63210Y7372D01*
X63221Y7363D01*
X63233Y7356D01*
X63246Y7349D01*
X63260Y7343D01*
X63274Y7339D01*
X63288Y7336D01*
X63302Y7334D01*
X63317Y7333D01*
X63400Y8000D02*
X63400Y9417D01*
X63233Y7833D02*
X63233Y9500D01*
X61567Y9333D02*
X61567Y7667D01*
X61317Y7667D02*
X61317Y9333D01*
X61567Y9333D02*
X63233Y9500D01*
X61400Y9500D02*
X61567Y9333D01*
X61317Y9333D02*
X61400Y9500D01*
X61567Y7667D02*
X63233Y7833D01*
X61567Y7667D02*
X61400Y7500D01*
X61317Y7667D01*
X58817Y10417D02*
X58817Y6583D01*
X59567Y9167D02*
X59567Y7500D01*
X59400Y7583D02*
X59400Y9083D01*
X59233Y9500D02*
X59567Y9500D01*
X59400Y9083D02*
X59650Y9333D01*
X59317Y9583D02*
X59233Y9500D01*
X59650Y7333D02*
X59400Y7583D01*
X58519Y16644D02*
X58221Y16644D01*
X58370Y16478D01*
X58221Y16311D01*
X58519Y16311D01*
X58519Y16033D02*
X58519Y15922D01*
X58221Y16033D02*
X58221Y15922D01*
X58519Y15978D02*
X58221Y15978D01*
X58519Y15644D02*
X58519Y15422D01*
X58460Y15311D01*
X58281Y15311D01*
X58221Y15422D01*
X58221Y15644D01*
X58221Y15589D02*
X58519Y15589D01*
X58519Y15144D02*
X58519Y14922D01*
X58460Y14811D01*
X58281Y14811D01*
X58221Y14922D01*
X58221Y15144D01*
X58221Y15089D02*
X58519Y15089D01*
X58221Y14644D02*
X58519Y14644D01*
X58519Y14311D01*
X58519Y13811D02*
X58519Y14144D01*
X58370Y14144D01*
X58221Y14144D01*
X58221Y13811D01*
X58370Y14144D02*
X58370Y13922D01*
X58519Y13644D02*
X58519Y13311D01*
X58519Y13144D02*
X58519Y12922D01*
X58460Y12811D01*
X58281Y12811D01*
X58221Y12922D01*
X58221Y13144D01*
X58221Y13089D02*
X58519Y13089D01*
X58519Y12533D02*
X58519Y12422D01*
X58221Y12533D02*
X58221Y12422D01*
X58519Y12478D02*
X58221Y12478D01*
X58370Y11922D02*
X58370Y11811D01*
X58460Y11811D01*
X58519Y11922D01*
X58519Y12033D01*
X58460Y12144D01*
X58281Y12144D01*
X58221Y12033D01*
X58221Y11811D01*
X58519Y11533D02*
X58519Y11422D01*
X58221Y11533D02*
X58221Y11422D01*
X58519Y11478D02*
X58221Y11478D01*
X58519Y10978D02*
X58221Y10978D01*
X58221Y11144D02*
X58221Y10811D01*
X63983Y15617D02*
X58817Y15617D01*
X58817Y11783D02*
X63983Y11783D01*
X59567Y14367D02*
X61317Y14533D01*
X59567Y12700D02*
X61317Y12867D01*
X63067Y14867D02*
X59650Y14533D01*
X63067Y12867D02*
X59650Y12533D01*
X63983Y11783D02*
X63983Y15617D01*
X63400Y14617D02*
X63067Y14867D01*
X63400Y13200D02*
X63067Y12867D01*
X63317Y12533D02*
X63331Y12534D01*
X63346Y12536D01*
X63360Y12539D01*
X63374Y12543D01*
X63387Y12549D01*
X63400Y12556D01*
X63412Y12563D01*
X63424Y12572D01*
X63435Y12582D01*
X63444Y12593D01*
X63453Y12604D01*
X63461Y12617D01*
X63468Y12630D01*
X63473Y12643D01*
X63478Y12657D01*
X63481Y12671D01*
X63483Y12685D01*
X63483Y12700D01*
X63483Y12715D01*
X63481Y12729D01*
X63478Y12743D01*
X63473Y12757D01*
X63468Y12770D01*
X63461Y12783D01*
X63453Y12796D01*
X63444Y12807D01*
X63435Y12818D01*
X63424Y12828D01*
X63412Y12837D01*
X63400Y12844D01*
X63387Y12851D01*
X63374Y12857D01*
X63360Y12861D01*
X63346Y12864D01*
X63331Y12866D01*
X63317Y12867D01*
X63302Y12866D01*
X63288Y12864D01*
X63274Y12861D01*
X63260Y12857D01*
X63246Y12851D01*
X63233Y12844D01*
X63221Y12837D01*
X63210Y12828D01*
X63199Y12818D01*
X63189Y12807D01*
X63180Y12796D01*
X63172Y12783D01*
X63166Y12770D01*
X63160Y12757D01*
X63156Y12743D01*
X63153Y12729D01*
X63151Y12715D01*
X63150Y12700D01*
X63151Y12685D01*
X63153Y12671D01*
X63156Y12657D01*
X63160Y12643D01*
X63166Y12630D01*
X63172Y12617D01*
X63180Y12604D01*
X63189Y12593D01*
X63199Y12582D01*
X63210Y12572D01*
X63221Y12563D01*
X63233Y12556D01*
X63246Y12549D01*
X63260Y12543D01*
X63274Y12539D01*
X63288Y12536D01*
X63302Y12534D01*
X63317Y12533D01*
X63400Y13200D02*
X63400Y14617D01*
X63233Y13033D02*
X63233Y14700D01*
X61567Y14533D02*
X61567Y12867D01*
X61317Y12867D02*
X61317Y14533D01*
X61567Y14533D02*
X63233Y14700D01*
X61400Y14700D02*
X61567Y14533D01*
X61317Y14533D02*
X61400Y14700D01*
X61567Y12867D02*
X63233Y13033D01*
X61567Y12867D02*
X61400Y12700D01*
X61317Y12867D01*
X58817Y15617D02*
X58817Y11783D01*
X59567Y14367D02*
X59567Y12700D01*
X59400Y12783D02*
X59400Y14283D01*
X59233Y14700D02*
X59567Y14700D01*
X59400Y14283D02*
X59650Y14533D01*
X59317Y14783D02*
X59233Y14700D01*
X59650Y12533D02*
X59400Y12783D01*
X58519Y21594D02*
X58221Y21594D01*
X58221Y21261D01*
X58370Y21594D02*
X58370Y21372D01*
X58519Y20983D02*
X58519Y20872D01*
X58221Y20983D02*
X58221Y20872D01*
X58519Y20928D02*
X58221Y20928D01*
X58519Y20594D02*
X58221Y20594D01*
X58221Y20372D01*
X58281Y20261D01*
X58311Y20261D01*
X58370Y20372D01*
X58370Y20594D01*
X58370Y20539D02*
X58519Y20261D01*
X58460Y20094D02*
X58519Y19983D01*
X58519Y19872D01*
X58460Y19761D01*
X58281Y20094D01*
X58221Y19983D01*
X58221Y19872D01*
X58281Y19761D01*
X58519Y19428D02*
X58221Y19428D01*
X58221Y19594D02*
X58221Y19261D01*
X58519Y19094D02*
X58519Y18761D01*
X58519Y18594D02*
X58519Y18372D01*
X58460Y18261D01*
X58281Y18261D01*
X58221Y18372D01*
X58221Y18594D01*
X58221Y18539D02*
X58519Y18539D01*
X58519Y17983D02*
X58519Y17872D01*
X58221Y17983D02*
X58221Y17872D01*
X58519Y17928D02*
X58221Y17928D01*
X58370Y17372D02*
X58370Y17261D01*
X58460Y17261D01*
X58519Y17372D01*
X58519Y17483D01*
X58460Y17594D01*
X58281Y17594D01*
X58221Y17483D01*
X58221Y17261D01*
X58519Y16983D02*
X58519Y16872D01*
X58221Y16983D02*
X58221Y16872D01*
X58519Y16928D02*
X58221Y16928D01*
X58519Y16428D02*
X58221Y16428D01*
X58221Y16594D02*
X58221Y16261D01*
X63983Y20817D02*
X58817Y20817D01*
X58817Y16983D02*
X63983Y16983D01*
X59567Y19567D02*
X61317Y19733D01*
X59567Y17900D02*
X61317Y18067D01*
X63067Y20067D02*
X59650Y19733D01*
X63067Y18067D02*
X59650Y17733D01*
X63983Y16983D02*
X63983Y20817D01*
X63400Y19817D02*
X63067Y20067D01*
X63400Y18400D02*
X63067Y18067D01*
X63317Y17733D02*
X63331Y17734D01*
X63346Y17736D01*
X63360Y17739D01*
X63374Y17743D01*
X63387Y17749D01*
X63400Y17756D01*
X63412Y17763D01*
X63424Y17772D01*
X63435Y17782D01*
X63444Y17793D01*
X63453Y17804D01*
X63461Y17817D01*
X63468Y17830D01*
X63473Y17843D01*
X63478Y17857D01*
X63481Y17871D01*
X63483Y17885D01*
X63483Y17900D01*
X63483Y17915D01*
X63481Y17929D01*
X63478Y17943D01*
X63473Y17957D01*
X63468Y17970D01*
X63461Y17983D01*
X63453Y17996D01*
X63444Y18007D01*
X63435Y18018D01*
X63424Y18028D01*
X63412Y18037D01*
X63400Y18044D01*
X63387Y18051D01*
X63374Y18057D01*
X63360Y18061D01*
X63346Y18064D01*
X63331Y18066D01*
X63317Y18067D01*
X63302Y18066D01*
X63288Y18064D01*
X63274Y18061D01*
X63260Y18057D01*
X63246Y18051D01*
X63233Y18044D01*
X63221Y18037D01*
X63210Y18028D01*
X63199Y18018D01*
X63189Y18007D01*
X63180Y17996D01*
X63172Y17983D01*
X63166Y17970D01*
X63160Y17957D01*
X63156Y17943D01*
X63153Y17929D01*
X63151Y17915D01*
X63150Y17900D01*
X63151Y17885D01*
X63153Y17871D01*
X63156Y17857D01*
X63160Y17843D01*
X63166Y17830D01*
X63172Y17817D01*
X63180Y17804D01*
X63189Y17793D01*
X63199Y17782D01*
X63210Y17772D01*
X63221Y17763D01*
X63233Y17756D01*
X63246Y17749D01*
X63260Y17743D01*
X63274Y17739D01*
X63288Y17736D01*
X63302Y17734D01*
X63317Y17733D01*
X63400Y18400D02*
X63400Y19817D01*
X63233Y18233D02*
X63233Y19900D01*
X61567Y19733D02*
X61567Y18067D01*
X61317Y18067D02*
X61317Y19733D01*
X61567Y19733D02*
X63233Y19900D01*
X61400Y19900D02*
X61567Y19733D01*
X61317Y19733D02*
X61400Y19900D01*
X61567Y18067D02*
X63233Y18233D01*
X61567Y18067D02*
X61400Y17900D01*
X61317Y18067D01*
X58817Y20817D02*
X58817Y16983D01*
X59567Y19567D02*
X59567Y17900D01*
X59400Y17983D02*
X59400Y19483D01*
X59233Y19900D02*
X59567Y19900D01*
X59400Y19483D02*
X59650Y19733D01*
X59317Y19983D02*
X59233Y19900D01*
X59650Y17733D02*
X59400Y17983D01*
G54D12*
X-35300Y-13100D02*
X-35300Y-8390D01*
X-35300Y-13100D02*
X-25080Y-13100D01*
X66900Y-13100D02*
X56680Y-13100D01*
X66900Y-13100D02*
X66900Y-8390D01*
X66900Y34004D02*
X66900Y29294D01*
X66900Y34004D02*
X56680Y34004D01*
X-35300Y34004D02*
X-25080Y34004D01*
X-35300Y34004D02*
X-35300Y29294D01*
X-37269Y-13100D02*
X-41206Y-13100D01*
X-39237Y-15069D02*
X-39237Y-11131D01*
X-40714Y-13100D02*
G75*
D01*
G02X-40714Y-13100I1477J0*
G01*
X68869Y-13100D02*
X72806Y-13100D01*
X70837Y-15069D02*
X70837Y-11131D01*
X69361Y-13100D02*
G75*
D01*
G02X69361Y-13100I1476J0*
G01*
X70345Y-13100D02*
G75*
D01*
G02X70345Y-13100I492J0*
G01*
X-37269Y34004D02*
X-41206Y34004D01*
X-39237Y32035D02*
X-39237Y35972D01*
X-40714Y34004D02*
G75*
D01*
G02X-40714Y34004I1477J0*
G01*
X-40221Y34004D02*
G75*
D01*
G02X-40221Y34004I984J0*
G01*
X-39729Y34004D02*
G75*
D01*
G02X-39729Y34004I492J0*
G01*

M02*
